<?xml version="1.0" standalone="no"?>
<!DOCTYPE svg PUBLIC "-//W3C//DTD SVG 20010904//EN"
 "http://www.w3.org/TR/2001/REC-SVG-20010904/DTD/svg10.dtd">
<svg version="1.0" xmlns="http://www.w3.org/2000/svg"
 width="600.000000pt" height="437.000000pt" viewBox="0 0 600.000000 437.000000"
 preserveAspectRatio="xMidYMid meet">

<g transform="translate(0.000000,437.000000) scale(0.100000,-0.100000)"
fill="#000000" stroke="none">
<path d="M2294 4359 c-3 -6 -1 -16 6 -22 10 -10 11 -8 6 8 -6 15 -4 17 5 8 6
-6 9 -19 5 -28 -5 -15 -9 -15 -24 -4 -13 10 -12 7 3 -10 11 -14 15 -21 9 -18
-7 4 -15 0 -18 -9 -8 -21 -8 -26 2 -20 12 7 49 -37 44 -52 -2 -7 4 -12 13 -12
9 0 19 -9 22 -20 3 -11 10 -20 15 -20 5 0 6 -4 3 -10 -3 -5 3 -10 14 -10 13 0
21 -7 21 -16 0 -9 9 -18 21 -21 16 -4 20 -12 16 -29 -3 -19 -1 -22 8 -14 9 8
14 6 19 -5 3 -8 9 -15 13 -14 22 4 32 -3 27 -16 -4 -8 -1 -15 6 -15 7 0 10 -7
7 -15 -4 -8 -1 -17 5 -21 7 -4 8 -3 4 4 -4 7 -3 12 2 12 12 0 37 -30 26 -31
-5 0 0 -4 11 -8 12 -5 25 -4 33 2 9 7 16 7 24 -1 9 -9 8 -15 -5 -24 -16 -12
-15 -13 8 -14 14 -1 22 2 19 8 -4 6 1 6 13 -1 11 -6 24 -7 28 -3 5 4 5 -1 2
-10 -9 -25 8 -22 27 5 10 14 14 16 10 5 -7 -21 21 -25 30 -5 4 6 4 1 2 -13
l-5 -25 20 27 c13 18 26 25 36 21 12 -5 14 -3 8 8 -8 12 -6 12 9 0 15 -13 19
-13 27 0 8 10 8 7 4 -11 -6 -20 -5 -22 5 -13 7 6 13 23 13 37 0 14 3 23 8 20
5 -3 9 1 9 8 0 21 32 35 70 32 22 -2 29 0 20 6 -8 5 -18 6 -24 3 -5 -3 -6 -1
-2 5 3 5 3 12 -1 15 -5 2 -2 2 6 0 20 -5 71 20 71 34 0 7 5 13 12 13 6 0 8 3
5 6 -4 4 -14 1 -22 -6 -13 -11 -18 -11 -28 1 -7 7 -8 10 -3 6 5 -4 18 0 28 10
17 16 17 17 1 37 -16 18 -16 19 -1 8 10 -8 26 -11 38 -7 11 3 20 3 20 -2 0 -4
12 -9 28 -10 28 -1 52 12 52 30 0 5 -10 2 -21 -9 -16 -14 -23 -16 -26 -6 -3 6
-9 9 -15 6 -5 -4 -2 5 7 20 10 14 22 26 27 26 5 0 6 5 3 10 -7 11 18 40 34 40
14 0 51 32 51 44 0 5 -8 2 -18 -7 -30 -27 -37 -19 -8 9 14 15 26 32 26 40 0 7
3 19 6 28 5 13 -2 16 -44 16 -44 0 -53 -4 -70 -27 -10 -16 -22 -36 -26 -47 -6
-18 -7 -18 -27 0 -11 10 -17 24 -14 31 3 7 8 20 11 28 5 11 -1 15 -23 15 -25
0 -34 -9 -66 -66 -21 -36 -37 -70 -35 -76 2 -5 22 10 44 34 35 38 44 43 58 33
9 -7 16 -15 16 -19 0 -4 -24 -34 -52 -67 -29 -33 -53 -64 -53 -68 0 -14 -46
-73 -52 -67 -3 3 -25 -11 -48 -32 -54 -47 -89 -66 -109 -59 -9 4 -20 7 -24 9
-4 1 -20 19 -37 39 -16 21 -59 61 -95 90 -36 29 -91 78 -123 108 -32 31 -72
64 -88 74 -19 13 -29 27 -29 43 0 20 -5 24 -29 24 -17 0 -33 -5 -37 -11z m916
-49 c0 -5 -4 -10 -10 -10 -5 0 -10 5 -10 10 0 6 5 10 10 10 6 0 10 -4 10 -10z
m-718 -108 c20 -19 34 -40 32 -47 -3 -7 0 -16 7 -21 8 -4 10 -3 5 4 -4 7 -2
12 4 12 7 0 9 -7 6 -16 -5 -12 -2 -15 10 -10 10 4 34 -8 64 -31 51 -39 59 -60
21 -56 -15 2 -20 -1 -15 -10 4 -6 4 -9 0 -5 -4 3 -8 10 -8 15 1 12 -29 43 -41
43 -5 0 -3 -8 4 -17 7 -10 1 -7 -13 6 -15 13 -26 29 -25 35 1 6 -6 10 -15 10
-9 -1 -31 15 -50 35 l-33 36 35 -30 35 -30 -34 37 c-19 21 -39 34 -45 31 -6
-3 -8 -3 -4 1 3 4 2 21 -2 38 -8 27 -8 29 8 17 9 -7 34 -28 54 -47z m-81 21
c13 -16 12 -17 -3 -4 -10 7 -18 15 -18 17 0 8 8 3 21 -13z m628 -25 c-2 -2
-20 -16 -39 -33 l-35 -30 29 33 c17 17 34 32 40 32 5 0 7 -1 5 -2z m66 -28 c3
-5 1 -10 -4 -10 -6 0 -11 5 -11 10 0 6 2 10 4 10 3 0 8 -4 11 -10z m-70 -50
c3 -6 -1 -7 -9 -4 -18 7 -21 14 -7 14 6 0 13 -4 16 -10z m-45 -34 c0 -3 -4 -8
-10 -11 -5 -3 -10 -1 -10 4 0 6 5 11 10 11 6 0 10 -2 10 -4z m-92 -36 c-7 -10
-14 -17 -17 -15 -4 4 18 35 25 35 2 0 -1 -9 -8 -20z m-82 -75 c-11 -8 -24 -15
-30 -15 -5 0 -1 7 10 15 10 8 24 14 29 14 6 0 1 -6 -9 -14z"/>
<path d="M2766 4314 c76 -63 113 -89 117 -83 2 2 21 27 43 54 22 28 46 58 53
68 13 16 5 17 -134 17 l-148 0 69 -56z"/>
<path d="M3260 4366 c0 -2 7 -7 16 -10 8 -3 12 -2 9 4 -6 10 -25 14 -25 6z"/>
<path d="M3307 4350 c4 -14 0 -20 -11 -20 -9 0 -16 -7 -16 -15 0 -19 5 -19 26
2 9 10 24 18 32 18 9 0 17 7 19 15 4 13 3 13 -5 1 -9 -12 -13 -12 -27 2 -21
22 -24 21 -18 -3z"/>
<path d="M3602 4353 c-25 -12 -31 -20 -27 -37 2 -11 2 -15 -1 -8 -8 17 -24 5
-17 -13 3 -10 -1 -15 -16 -15 -14 0 -23 -8 -27 -25 -3 -14 -10 -22 -15 -19 -5
3 -9 1 -9 -5 0 -6 -8 -8 -17 -4 -10 3 -15 3 -11 -1 3 -4 -12 -24 -34 -44 -23
-21 -38 -42 -35 -52 2 -8 -3 -22 -11 -29 -12 -12 -14 -12 -10 -1 2 8 -4 22
-15 33 -14 14 -16 21 -6 33 9 11 7 14 -10 14 -18 0 -20 -3 -12 -19 8 -15 6
-22 -12 -35 l-22 -17 24 12 c33 16 48 -2 25 -30 -10 -11 -22 -21 -27 -21 -5 0
-4 7 3 15 9 10 9 15 1 15 -11 0 -15 -13 -12 -36 1 -7 -5 -14 -14 -18 -8 -3
-15 -11 -15 -18 0 -14 -40 -44 -52 -40 -5 1 -8 -5 -8 -13 0 -8 -6 -15 -13 -15
-16 0 -59 -43 -56 -56 3 -19 -1 -34 -11 -34 -5 0 -7 7 -4 15 9 22 -9 18 -29
-5 -21 -25 -13 -47 10 -28 14 12 15 11 3 -8 -8 -12 -20 -19 -30 -17 -10 3 -23
-6 -34 -22 l-17 -26 28 17 c28 18 28 18 11 -2 -10 -11 -18 -26 -18 -34 0 -7
-8 -19 -17 -26 -17 -13 -17 -13 1 -14 17 0 17 -1 1 -26 -16 -25 -16 -25 4 -14
25 13 27 5 6 -16 -17 -17 -20 -44 -5 -44 6 0 10 -7 10 -15 0 -8 4 -15 8 -15 4
0 8 -9 9 -21 2 -27 44 -119 55 -119 4 0 8 -5 8 -11 0 -6 -7 -8 -16 -5 -8 3
-12 2 -9 -4 3 -6 13 -10 21 -10 8 0 14 -4 14 -9 0 -6 12 -16 28 -23 15 -7 27
-20 27 -28 1 -8 6 -14 13 -13 7 2 12 -2 12 -7 0 -6 12 -22 26 -35 15 -14 23
-25 19 -25 -4 0 0 -9 10 -20 10 -11 23 -20 29 -20 6 0 3 5 -6 11 -10 5 -18 14
-18 20 0 5 9 4 20 -3 11 -7 20 -19 20 -26 0 -8 6 -12 15 -8 8 3 14 0 12 -7 -1
-7 6 -11 16 -9 9 2 17 -3 17 -9 0 -7 3 -10 6 -6 3 3 16 -4 28 -16 11 -12 28
-23 36 -25 8 -2 18 -9 23 -15 5 -8 7 -7 5 3 -2 9 0 17 5 18 20 6 29 0 23 -14
-4 -9 7 -2 23 15 27 29 49 42 36 22 -3 -5 -1 -12 4 -16 5 -3 13 1 18 8 11 19
53 32 53 17 0 -6 -4 -8 -10 -5 -16 10 -11 -1 7 -16 9 -8 14 -9 10 -3 -8 14 28
48 42 39 7 -4 8 0 4 11 -6 15 -4 15 20 -1 15 -9 32 -15 39 -12 8 4 7 6 -4 6
-9 1 -20 5 -23 11 -3 6 1 7 9 4 12 -5 15 1 12 30 -2 27 1 33 10 25 8 -7 14 -6
19 1 4 6 13 9 21 6 7 -3 22 6 33 20 16 20 18 31 10 52 l-10 26 22 -19 22 -20
-12 22 c-10 19 -9 22 4 17 11 -4 15 0 15 16 0 19 4 21 33 15 17 -4 34 -11 35
-16 2 -5 8 -7 12 -4 5 3 7 12 4 19 -3 8 1 17 8 22 7 4 10 4 6 -1 -4 -4 -3 -14
3 -21 7 -9 4 -17 -13 -28 -12 -9 -18 -16 -12 -16 6 0 22 13 37 28 19 20 24 31
16 39 -8 8 -7 13 1 18 7 4 15 2 19 -4 5 -7 17 -1 35 18 l27 29 -26 0 c-19 0
-23 -3 -14 -9 12 -8 11 -11 -1 -19 -11 -7 -16 -5 -18 6 -2 8 -9 13 -15 11 -7
-2 -18 3 -25 12 -12 14 -13 14 -8 -2 3 -11 0 -20 -9 -23 -8 -4 -15 -12 -15
-20 0 -21 -40 -39 -54 -23 -8 9 -8 10 1 5 17 -9 45 5 39 20 -3 8 -1 14 5 14 6
0 8 3 5 8 -10 17 21 41 49 37 19 -2 34 3 42 14 18 24 16 30 -9 24 -21 -4 -20
-3 5 14 15 11 25 22 23 24 -3 3 3 5 13 5 18 0 21 -21 7 -44 -4 -6 -2 -12 3
-12 6 0 11 3 12 8 0 4 2 21 4 39 4 28 2 31 -18 26 -19 -4 -17 0 12 26 36 32
68 33 51 1 -7 -14 -5 -19 9 -23 13 -3 18 0 15 8 -7 16 25 28 41 15 8 -7 18 -3
34 14 17 18 19 26 10 31 -7 5 -10 4 -6 -2 4 -6 0 -16 -8 -23 -12 -10 -15 -10
-15 1 0 9 -3 10 -8 4 -12 -17 -46 -15 -72 5 l-25 20 25 0 c20 0 22 2 10 10 -8
5 -10 10 -4 10 15 0 36 -25 28 -33 -8 -8 18 -3 34 6 14 10 16 27 2 27 -5 0
-10 -7 -10 -16 0 -8 -4 -12 -10 -9 -15 9 -12 34 5 51 13 14 16 14 21 -1 5 -11
10 -13 19 -5 14 12 65 10 65 -3 0 -5 -7 -7 -14 -4 -10 4 -13 1 -9 -9 3 -7 0
-14 -6 -14 -6 0 -11 5 -11 11 0 5 -5 7 -11 3 -8 -5 -6 -10 6 -16 14 -8 26 -1
61 33 48 47 48 47 34 69 -9 13 -11 13 -20 0 -5 -8 -8 -20 -5 -27 2 -7 0 -15
-4 -18 -10 -6 -7 37 5 74 5 17 4 22 -4 17 -8 -5 -10 -2 -6 8 7 18 39 21 49 6
3 -5 -1 -10 -9 -10 -9 0 -16 -4 -16 -10 0 -14 17 -12 27 3 11 17 13 38 3 32
-16 -10 -18 10 -4 30 12 16 14 17 14 2 0 -9 5 -17 11 -17 6 0 8 -9 4 -22 -5
-19 -2 -17 14 7 26 38 26 48 1 40 -25 -8 -25 1 0 43 22 35 39 42 36 15 0 -10
5 -17 13 -15 7 1 19 -2 26 -8 9 -8 14 -7 18 3 4 10 -3 13 -23 12 -23 -1 -27 2
-27 21 0 13 3 21 7 19 4 -3 11 2 14 11 3 8 2 12 -4 9 -6 -3 -7 1 -4 9 3 9 9
14 13 12 4 -3 17 4 30 14 l24 18 -27 27 c-22 22 -25 30 -15 41 9 12 8 19 -7
37 -137 156 -158 177 -176 177 -19 0 -19 -2 6 -35 43 -56 79 -143 73 -174 -10
-48 6 -57 46 -27 22 17 34 33 30 42 -3 8 -1 14 5 14 23 0 18 -29 -8 -48 -16
-12 -35 -42 -46 -71 -13 -38 -38 -70 -101 -133 -46 -46 -81 -75 -77 -65 3 9 3
17 0 17 -9 0 -75 -74 -76 -85 0 -6 -38 -48 -84 -94 -47 -47 -83 -88 -80 -93 3
-4 -1 -8 -9 -8 -8 0 -37 -27 -65 -61 -29 -34 -52 -56 -52 -49 0 6 -13 2 -31
-10 -16 -12 -28 -28 -25 -35 7 -18 -176 -196 -222 -216 -20 -9 -48 -20 -62
-24 l-25 -8 20 23 20 23 -20 -10 c-24 -13 -34 -9 -110 41 -84 55 -223 200
-265 275 -19 34 -40 68 -47 75 -9 10 -9 18 1 32 7 11 19 39 26 63 17 52 95
142 159 182 24 16 79 63 122 105 67 65 77 79 68 95 -11 21 0 26 19 7 6 -6 13
-10 14 -7 2 3 59 62 128 132 l125 127 -75 0 c-48 0 -87 -6 -108 -17z m803 -81
c-3 -3 -11 0 -18 7 -9 10 -8 11 6 5 10 -3 15 -9 12 -12z m55 -102 c0 -5 -2
-10 -4 -10 -3 0 -8 5 -11 10 -3 6 -1 10 4 10 6 0 11 -4 11 -10z m21 -59 c-6
-10 -7 -21 -4 -25 3 -3 1 -6 -5 -6 -7 0 -12 3 -12 6 0 9 20 44 26 44 2 0 0 -8
-5 -19z m49 -23 c0 -6 -6 -5 -15 2 -8 7 -15 14 -15 16 0 2 7 1 15 -2 8 -4 15
-11 15 -16z m-1336 -157 c3 -5 -1 -11 -9 -14 -9 -4 -12 -1 -8 9 6 16 10 17 17
5z m1176 -141 c0 -5 -4 -10 -10 -10 -5 0 -10 5 -10 10 0 6 5 10 10 10 6 0 10
-4 10 -10z m-1289 -43 c-10 -9 -11 -8 -5 6 3 10 9 15 12 12 3 -3 0 -11 -7 -18z
m44 -184 c3 -16 16 -44 28 -63 31 -52 168 -190 181 -183 6 3 8 3 4 -2 -9 -9 9
-35 24 -35 5 0 6 6 2 13 -5 8 -3 8 9 -2 9 -7 15 -17 12 -21 -3 -5 17 -19 44
-32 51 -23 70 -45 29 -32 -44 13 -134 83 -209 160 -88 91 -128 148 -139 198
-9 41 4 40 15 -1z m755 -87 c0 -2 -8 -10 -17 -17 -16 -13 -17 -12 -4 4 13 16
21 21 21 13z"/>
<path d="M3802 4363 c1 -5 -66 -75 -149 -158 -119 -118 -154 -160 -168 -197
l-17 -46 33 -49 c79 -114 307 -323 353 -323 45 0 108 46 227 167 69 71 133
139 143 153 16 24 18 24 31 7 7 -10 16 -14 19 -8 8 13 -21 41 -43 41 -9 0 -30
-14 -47 -31 -45 -48 -119 -99 -143 -99 -75 0 -273 173 -325 284 -28 58 -28 61
-12 91 9 17 41 58 71 92 57 63 66 83 40 83 -8 0 -14 -3 -13 -7z"/>
<path d="M3979 4333 c-49 -52 -89 -107 -89 -123 0 -7 43 -55 96 -106 75 -73
100 -91 113 -84 32 16 136 97 180 138 l44 41 -83 86 -84 85 -71 0 c-69 0 -72
-1 -106 -37z"/>
<path d="M4520 4244 c69 -69 121 -124 115 -122 -18 5 -50 -26 -52 -52 -5 -57
-17 -92 -34 -103 -11 -7 -19 -16 -19 -22 0 -5 38 28 85 75 86 86 96 100 71
100 -8 0 -18 10 -21 21 -5 15 -10 18 -15 9 -5 -8 -9 -7 -13 5 -4 9 -3 13 3 10
6 -3 10 -1 10 5 0 7 5 6 14 -2 8 -7 12 -16 9 -20 -2 -5 7 -8 21 -8 19 0 26 -5
26 -20 0 -11 7 -36 14 -55 16 -38 15 -42 -7 -21 -12 13 -20 8 -61 -33 -37 -37
-42 -47 -26 -47 10 0 17 2 15 4 -8 8 16 43 28 41 7 -1 20 1 30 6 10 4 21 5 24
1 4 -3 -1 -6 -10 -6 -20 0 -23 -16 -4 -23 15 -6 -25 -47 -46 -47 -8 0 -20 -7
-27 -15 -7 -8 -16 -12 -21 -9 -5 3 -8 0 -7 -8 2 -8 -4 -12 -16 -10 -22 4 -39
-17 -26 -33 5 -6 0 -11 -13 -12 -69 -6 -87 -16 -87 -47 0 -14 -13 -32 -32 -46
l-33 -24 19 29 c11 18 -8 4 -48 -35 -64 -62 -80 -85 -53 -74 9 3 12 -4 11 -23
-3 -49 -4 -53 -14 -53 -6 0 -6 9 0 25 6 16 6 25 -1 25 -5 0 -12 -7 -15 -15 -4
-8 -19 -15 -34 -15 -34 0 -45 -15 -41 -52 1 -17 -2 -28 -9 -28 -7 0 -10 -7 -7
-14 4 -11 1 -13 -10 -9 -12 5 -14 3 -8 -8 7 -11 5 -11 -10 1 -10 8 -16 10 -12
3 4 -6 0 -19 -9 -27 -8 -9 -12 -16 -8 -16 4 0 -5 -12 -19 -26 -24 -24 -54 -89
-49 -107 1 -5 -2 -6 -7 -3 -5 4 -12 2 -16 -4 -4 -6 -10 -8 -15 -5 -12 7 -40
-5 -40 -17 0 -6 6 -5 15 2 9 7 15 8 15 2 0 -11 -23 -22 -46 -22 -11 0 -14 7
-9 23 5 20 5 20 -5 4 -7 -10 -9 -21 -6 -24 3 -3 1 -15 -5 -26 -7 -13 -7 -17
-1 -13 6 3 13 3 15 -1 7 -12 -11 -53 -23 -53 -6 0 -8 6 -4 13 5 8 2 7 -10 -2
-9 -8 -15 -19 -12 -26 2 -6 -2 -12 -9 -12 -7 0 -10 8 -7 19 7 30 -13 20 -25
-12 -6 -16 -8 -30 -3 -30 4 0 11 -7 14 -16 3 -8 2 -12 -4 -9 -6 3 -10 -2 -11
-12 0 -12 -5 -9 -14 12 -8 17 -15 23 -15 15 -1 -8 -3 -24 -4 -36 -2 -17 2 -20
17 -16 14 3 18 1 13 -6 -4 -7 -2 -12 5 -12 7 0 9 -3 6 -6 -4 -4 -12 -2 -19 3
-18 15 -47 8 -69 -16 -24 -25 -13 -28 14 -3 19 15 20 16 14 0 -3 -9 -1 -19 6
-21 7 -2 -7 -4 -30 -3 -24 1 -43 0 -43 -2 0 -2 9 -15 20 -29 11 -14 20 -31 20
-37 0 -8 -2 -8 -8 0 -9 13 -42 14 -42 1 0 -5 7 -7 15 -3 10 3 17 -3 21 -19 3
-14 10 -25 14 -25 5 0 6 -9 3 -20 -3 -11 -9 -17 -14 -14 -5 3 -6 -2 -3 -10 4
-10 1 -16 -9 -16 -10 0 -15 -8 -14 -20 1 -23 8 -25 24 -9 9 9 11 0 9 -35 -2
-29 2 -46 9 -46 6 0 20 -7 31 -16 10 -8 12 -12 4 -8 -13 7 -13 5 -2 -8 7 -9 9
-24 5 -34 -7 -18 -6 -18 12 0 20 19 20 19 35 -17 8 -20 21 -37 28 -37 7 0 15
-7 18 -15 4 -8 15 -15 25 -15 11 0 19 -7 19 -16 0 -18 17 -37 43 -47 9 -3 16
-12 15 -19 -2 -7 5 -12 14 -12 10 1 16 -2 13 -6 -9 -14 37 -45 69 -45 21 -1
31 -6 30 -16 -1 -8 7 -15 17 -15 11 0 19 4 19 9 0 5 7 6 16 3 10 -4 13 -2 8 6
-5 8 5 9 34 6 24 -4 42 -2 44 4 3 7 11 7 26 -1 15 -8 22 -8 22 -1 0 6 4 9 9 6
5 -3 14 1 20 8 10 11 9 16 -3 23 -12 7 -9 14 17 38 18 16 33 28 35 27 1 -1 2
1 3 6 0 4 7 14 15 23 15 17 68 19 82 4 4 -5 1 -5 -5 -1 -7 4 -13 2 -13 -3 0
-15 13 -14 31 2 8 6 12 11 10 10 -2 -2 -10 5 -16 14 -14 19 1 44 22 36 7 -3
18 7 24 21 10 22 15 24 27 13 13 -10 15 -9 8 7 -7 19 -6 19 13 2 12 -11 21
-14 26 -6 3 5 12 7 18 4 8 -5 8 -3 0 7 -7 7 -13 22 -13 33 0 19 0 19 -22 0
l-23 -19 19 22 c15 18 22 20 32 12 8 -6 11 -16 7 -22 -3 -6 -1 -7 6 -3 6 4 9
12 6 17 -4 5 4 9 17 9 13 0 19 4 13 8 -14 10 -17 32 -5 32 6 0 13 -7 16 -15 8
-19 20 -19 28 0 7 20 -2 42 -22 50 -13 5 -13 2 3 -15 19 -20 11 -27 -14 -11
-8 5 -11 16 -8 26 4 9 11 14 16 11 5 -4 19 6 30 21 11 16 21 22 21 16 0 -26
20 -12 20 15 0 19 3 23 9 13 6 -9 11 -10 15 -2 4 6 5 15 1 21 -3 5 0 18 7 29
11 18 14 18 40 5 24 -12 26 -17 15 -28 -7 -7 -22 -16 -34 -20 -26 -8 -52 -36
-33 -36 7 0 10 -7 7 -14 -4 -9 2 -17 14 -21 11 -4 16 -11 12 -18 -3 -7 3 -4
15 7 19 16 22 36 6 36 -3 0 -2 -4 1 -10 3 -5 0 -10 -7 -10 -7 0 -19 9 -25 19
-15 24 2 34 32 18 17 -9 18 -8 8 5 -10 11 -10 17 -1 26 19 19 32 14 17 -5 -7
-10 -9 -15 -5 -11 5 4 15 3 23 -4 11 -9 20 -6 40 15 22 22 24 28 14 41 -7 9
-16 14 -20 12 -4 -3 -6 8 -5 22 1 21 6 27 25 28 13 0 32 -6 41 -14 15 -12 21
-9 60 26 34 33 41 43 31 53 -11 11 -13 10 -14 -1 -1 -8 -1 -18 -1 -21 1 -4 -8
-15 -18 -24 -11 -10 -20 -15 -20 -11 0 4 -9 2 -20 -4 -11 -6 -20 -7 -20 -1 0
5 7 12 16 15 13 5 14 9 4 21 -9 10 -9 15 -1 15 6 0 11 8 12 18 0 10 3 12 6 5
2 -7 9 -13 14 -13 6 0 8 4 4 9 -3 5 0 13 6 17 8 5 9 3 4 -6 -6 -10 -4 -12 7
-7 9 3 20 1 26 -5 7 -7 26 4 62 38 44 41 50 51 46 78 -4 29 -4 30 10 12 16
-23 19 -14 4 15 -8 13 -7 19 0 19 6 0 8 4 5 10 -3 6 1 7 10 3 13 -4 14 -7 3
-14 -9 -6 -10 -11 -2 -19 7 -7 18 -2 35 17 13 15 17 22 8 15 -14 -10 -18 -10
-23 3 -3 9 0 15 8 15 8 0 17 7 20 16 8 21 8 21 -9 21 -8 0 -15 -6 -15 -13 0
-6 -9 -14 -20 -17 -11 -3 -18 -1 -15 3 3 5 2 10 -2 13 -5 2 -2 2 6 0 10 -3 10
2 -3 22 -15 23 -15 25 -1 25 9 0 13 4 10 10 -3 6 1 7 9 4 9 -4 16 -1 16 6 0
10 3 10 14 0 8 -6 12 -18 9 -26 -3 -8 1 -14 8 -14 7 0 9 3 5 7 -3 4 3 12 14
18 l21 11 -22 20 -22 19 8 -25 c7 -22 6 -23 -8 -11 -17 14 -47 67 -47 84 0 5
11 -2 26 -18 14 -15 27 -25 30 -22 3 2 -11 18 -31 35 -19 17 -35 38 -35 47 0
8 -34 51 -75 94 -68 71 -88 101 -68 101 4 0 70 -62 145 -137 92 -92 138 -132
138 -119 0 15 3 16 15 6 11 -9 15 -9 15 -1 0 8 4 8 14 -1 17 -16 2 -28 -25
-21 -10 3 -19 0 -19 -6 0 -5 -6 -8 -13 -5 -8 3 -20 -2 -27 -11 -15 -18 1 -20
19 -2 10 10 11 9 6 -5 -4 -11 -2 -18 4 -18 6 0 11 6 11 14 0 19 19 25 52 15
17 -5 30 -3 34 3 4 7 2 8 -4 4 -7 -4 -12 -2 -12 4 0 7 8 9 23 4 31 -9 48 -24
40 -37 -4 -6 0 -8 10 -4 10 3 17 2 17 -3 0 -6 -7 -10 -15 -10 -8 0 -15 -7 -15
-16 0 -9 6 -14 13 -11 6 2 19 -3 27 -11 13 -14 12 -15 -4 -9 -10 4 -23 7 -31
7 -7 0 -15 8 -17 18 -7 26 -43 24 -69 -4 -22 -24 -23 -26 -6 -35 9 -6 17 -15
17 -21 0 -6 -9 -3 -20 7 -26 23 -39 11 -16 -14 18 -20 7 -39 -15 -25 -8 5 -8
9 1 14 7 4 8 10 3 13 -4 3 -16 -1 -26 -8 -21 -15 -13 -47 10 -38 10 4 14 2 10
-4 -4 -6 -1 -13 5 -16 11 -3 11 -7 0 -19 -10 -13 -8 -15 15 -11 27 4 26 3 -7
-16 -27 -14 -38 -16 -49 -8 -9 8 -10 12 -2 15 6 2 11 11 11 20 0 13 -2 13 -14
-3 -8 -11 -12 -25 -9 -31 2 -7 0 -15 -6 -19 -6 -3 -11 -1 -11 5 0 6 -4 9 -9 6
-5 -3 -14 0 -20 8 -8 10 -8 16 3 26 9 6 20 9 26 5 6 -3 10 3 10 14 0 12 -2 21
-5 21 -8 0 -55 -50 -54 -58 3 -18 -2 -26 -9 -16 -4 7 -44 -26 -105 -86 -70
-71 -93 -99 -82 -104 8 -3 14 -2 12 2 -1 4 3 9 8 11 6 2 15 11 21 19 8 11 10
6 8 -23 -3 -36 -22 -71 -32 -60 -3 3 -25 -14 -49 -37 -24 -23 -43 -36 -43 -28
0 7 -3 11 -6 8 -3 -4 0 -16 6 -28 10 -18 14 -19 27 -8 14 11 15 11 11 -2 -6
-19 -38 -26 -48 -10 -11 18 -30 3 -23 -17 5 -13 2 -15 -12 -9 -18 7 -18 6 -1
-13 12 -13 14 -21 6 -26 -6 -4 -14 -4 -17 -1 -4 3 -15 -1 -25 -11 -10 -9 -18
-12 -18 -7 0 5 -5 2 -11 -6 -8 -12 -10 -9 -6 12 5 35 -17 33 -60 -3 -22 -19
-30 -33 -28 -52 2 -15 0 -29 -5 -32 -4 -3 -6 -15 -2 -27 3 -13 1 -19 -5 -15
-5 4 -16 -5 -23 -18 -14 -26 -30 -33 -30 -13 0 6 -2 9 -5 6 -3 -3 -1 -17 5
-32 9 -25 8 -26 -11 -15 -17 9 -20 8 -14 -2 6 -9 2 -11 -13 -7 -17 5 -22 2
-22 -14 0 -15 -5 -19 -17 -14 -16 5 -15 4 1 -9 15 -11 16 -18 8 -28 -9 -10 -8
-17 1 -27 10 -12 9 -12 -5 -2 -10 8 -19 9 -22 3 -3 -5 -15 -7 -26 -4 -30 8
-37 -24 -11 -48 23 -22 29 -38 7 -20 -11 9 -15 8 -20 -5 -4 -10 -1 -21 6 -25
9 -6 8 -12 -5 -27 -13 -15 -14 -21 -4 -32 10 -10 9 -12 -5 -7 -10 3 -20 2 -23
-3 -4 -6 0 -10 8 -10 10 0 13 -7 10 -20 -3 -11 -1 -20 4 -20 6 0 9 -12 7 -26
-2 -19 1 -24 12 -20 8 3 12 2 9 -3 -7 -13 40 -96 87 -152 21 -25 38 -48 38
-52 0 -10 70 -77 79 -77 4 0 21 -11 36 -24 16 -14 47 -33 69 -42 23 -10 44
-23 47 -28 4 -4 11 -6 17 -2 6 3 14 2 17 -4 4 -6 15 -8 25 -5 15 5 17 1 14
-17 l-5 -23 12 22 c15 28 33 30 24 4 -5 -18 -3 -18 19 -8 13 6 22 15 20 19 -3
5 -1 8 5 8 5 0 11 -5 13 -10 2 -6 13 -2 26 10 13 12 22 16 22 8 0 -9 3 -9 12
0 7 7 17 12 23 12 5 0 3 -5 -5 -10 -9 -6 -10 -10 -3 -10 7 0 17 8 22 17 6 10
11 14 11 10 0 -4 10 -2 23 5 12 7 28 12 36 13 8 0 17 7 19 15 4 12 3 13 -10 2
-27 -22 -33 18 -7 42 19 18 21 19 16 3 -7 -20 47 -85 57 -68 3 5 1 11 -6 13
-8 3 -7 8 4 18 11 11 13 19 5 32 -10 15 -12 15 -24 0 -12 -15 -13 -14 -3 6 12
25 21 27 39 10 7 -7 4 2 -7 21 -21 35 -21 51 1 51 8 0 8 -3 -1 -9 -10 -6 -8
-13 7 -32 11 -13 20 -19 21 -12 0 6 -6 13 -12 16 -7 2 -10 8 -6 12 5 5 17 0
28 -10 11 -10 20 -13 20 -7 0 6 -6 13 -12 16 -10 5 -10 7 0 12 6 3 10 9 7 13
-2 5 7 6 20 3 19 -3 25 0 25 13 0 15 -3 16 -17 4 -10 -7 -6 0 10 15 28 27 37
53 15 40 -10 -5 -10 -4 -1 6 7 8 19 10 30 5 10 -5 25 -7 35 -6 9 1 19 -3 23
-9 3 -5 -1 -11 -9 -11 -9 -1 -20 -3 -26 -4 -5 -1 -14 -3 -18 -4 -13 -2 -33
-51 -26 -62 3 -5 2 -8 -3 -7 -4 2 -9 0 -10 -4 -7 -19 -2 -20 17 -3 11 10 17
22 13 28 -3 5 -2 7 4 4 5 -3 38 23 73 58 36 36 61 65 58 65 -4 0 -18 -12 -32
-26 -13 -15 -29 -23 -36 -19 -8 5 -6 11 7 21 16 13 15 13 -11 4 -16 -6 -31 -8
-34 -6 -8 9 63 46 77 41 8 -3 18 0 23 7 11 18 10 28 -3 28 -5 0 -8 -4 -4 -9 3
-5 2 -12 -3 -15 -4 -2 -14 4 -21 16 -10 16 -10 18 0 12 9 -5 10 -2 6 9 -5 12
-1 17 13 17 10 0 22 5 25 11 4 6 13 8 21 5 8 -3 14 -1 14 3 0 5 -6 11 -12 14
-9 3 -7 10 6 23 16 15 17 16 7 2 -23 -30 2 -20 34 14 23 25 26 30 10 24 -17
-6 -18 -5 -7 6 11 11 16 10 26 -4 9 -12 20 -15 37 -11 l24 6 -20 -24 c-10 -13
9 3 43 36 34 33 62 61 62 64 0 2 -11 -6 -26 -20 -22 -21 -24 -21 -18 -4 4 11
12 23 18 28 8 5 7 10 -2 15 -17 12 -3 45 17 39 11 -3 16 3 18 21 1 18 -1 21
-7 11 -5 -7 -11 -11 -14 -8 -3 3 8 19 26 35 17 16 28 22 24 14 -4 -8 -1 -6 8
4 8 10 13 23 10 27 -3 5 2 6 10 3 10 -4 18 1 23 12 4 10 2 19 -5 22 -7 2 -12
8 -12 13 0 6 5 7 10 4 6 -4 10 32 10 100 l0 105 -40 58 c-22 31 -49 69 -61 85
-33 44 -15 31 44 -30 l55 -57 1 304 2 304 -25 -23 c-24 -23 -46 -22 -46 3 0 6
16 27 35 46 29 28 35 41 35 75 0 40 -5 45 -378 418 l-377 377 -60 -60 c-46
-47 -62 -57 -72 -48 -12 9 -3 23 47 73 l60 61 -38 37 -38 37 -277 0 c-215 0
-277 -3 -277 -12 0 -10 -3 -9 -9 1 -5 8 -14 10 -21 6 -10 -6 -9 -11 4 -21 18
-12 5 -31 -13 -19 -5 3 -12 1 -16 -5 -10 -16 23 -12 51 6 23 15 24 15 18 0 -4
-9 -18 -23 -32 -30 -16 -8 -21 -16 -13 -20 6 -4 11 -2 11 3 0 6 4 11 9 11 4 0
6 -11 3 -25 -2 -14 -8 -22 -13 -19 -15 9 -10 -8 8 -30 10 -12 -4 -1 -30 24
-26 24 -47 50 -47 58 0 8 -5 10 -12 6 -8 -5 -7 0 2 11 14 17 13 17 -9 10 -18
-5 -22 -4 -16 5 5 8 4 11 -2 7 -6 -4 -18 2 -28 13 -10 11 -23 20 -29 20 -6 0
45 -57 114 -126z m103 68 c-2 -10 -11 -19 -19 -19 -11 0 -11 4 3 19 9 10 17
18 19 18 1 0 0 -8 -3 -18z m130 -211 c3 -14 1 -18 -9 -14 -15 6 -18 16 -7 26
9 10 10 9 16 -12z m-73 -3 c0 -4 -4 -8 -9 -8 -6 0 -12 4 -15 8 -3 5 1 9 9 9 8
0 15 -4 15 -9z m125 -18 c3 -5 -1 -10 -10 -10 -9 0 -13 5 -10 10 3 6 8 10 10
10 2 0 7 -4 10 -10z m-170 -20 c3 -5 -1 -10 -10 -10 -9 0 -13 5 -10 10 3 6 8
10 10 10 2 0 7 -4 10 -10z m140 -30 c1 -10 -2 -17 -6 -14 -4 2 -7 13 -6 24 2
23 10 17 12 -10z m28 15 c-3 -9 -8 -14 -10 -11 -3 3 -2 9 2 15 9 16 15 13 8
-4z m-198 -15 c-3 -5 -11 -10 -16 -10 -6 0 -7 5 -4 10 3 6 11 10 16 10 6 0 7
-4 4 -10z m325 -40 c0 -5 -2 -10 -4 -10 -3 0 -8 5 -11 10 -3 6 -1 10 4 10 6 0
11 -4 11 -10z m36 -27 c-4 -4 -11 -1 -16 7 -16 25 -11 35 7 17 9 -9 13 -20 9
-24z m-57 -107 c149 -150 166 -198 23 -67 -97 89 -192 166 -192 156 0 -3 -5
-3 -10 0 -9 6 25 44 40 45 3 0 65 -60 139 -134z m-49 99 c7 -9 10 -18 7 -22
-4 -3 -9 2 -13 11 -3 9 -10 14 -14 11 -5 -3 -11 -1 -15 5 -10 16 21 12 35 -5z
m-108 -39 c4 -6 8 -7 8 -2 0 6 9 0 21 -13 12 -12 18 -25 14 -29 -3 -3 -10 0
-16 8 -8 13 -10 13 -20 0 -9 -13 -10 -12 -5 3 3 11 0 17 -9 17 -8 0 -15 -4
-15 -10 0 -5 -7 -7 -15 -4 -8 3 -17 0 -20 -8 -4 -10 -16 -13 -35 -10 -31 4
-42 22 -15 22 8 0 15 9 15 21 0 11 4 18 10 14 5 -3 7 -13 4 -23 -3 -9 2 -4 11
11 13 22 21 27 38 21 12 -4 25 -12 29 -18z m-350 -211 c0 -13 -29 -31 -38 -23
-7 8 18 38 29 35 5 -1 9 -7 9 -12z m15 -39 c-6 -8 -15 -12 -19 -9 -4 2 -2 10
5 17 6 8 15 12 19 9 4 -2 2 -10 -5 -17z m878 -6 c3 -6 -1 -7 -9 -4 -18 7 -21
14 -7 14 6 0 13 -4 16 -10z m0 -30 c3 -5 3 -10 -2 -11 -4 0 -16 -2 -25 -4 -10
-2 -18 0 -18 4 0 21 34 29 45 11z m35 -20 c0 -5 -5 -10 -11 -10 -5 0 -7 5 -4
10 3 6 8 10 11 10 2 0 4 -4 4 -10z m64 -16 c3 -8 2 -12 -4 -9 -6 3 -10 10 -10
16 0 14 7 11 14 -7z m-14 -29 c0 -8 -6 -12 -14 -9 -8 3 -12 12 -9 20 6 17 23
9 23 -11z m-1116 0 c-4 -8 -8 -15 -10 -15 -2 0 -4 7 -4 15 0 8 4 15 10 15 5 0
7 -7 4 -15z m1036 -67 c0 -6 -6 -5 -15 2 -8 7 -15 14 -15 16 0 2 7 1 15 -2 8
-4 15 -11 15 -16z m-1005 2 c-3 -5 -11 -10 -16 -10 -6 0 -7 5 -4 10 3 6 11 10
16 10 6 0 7 -4 4 -10z m-1 -49 c-2 -3 -12 3 -22 13 -16 17 -16 18 5 5 12 -7
20 -15 17 -18z m1058 5 c3 2 8 -2 11 -11 9 -22 -7 -18 -29 7 -12 14 -13 18 -3
10 9 -6 18 -9 21 -6z m-1142 -27 c0 -11 -4 -17 -10 -14 -5 3 -10 13 -10 21 0
8 5 14 10 14 6 0 10 -9 10 -21z m-15 -31 c19 -5 19 -5 1 -13 -18 -8 -36 7 -36
30 0 6 4 5 8 -1 4 -7 16 -14 27 -16z m1068 -48 c-10 -11 -19 -20 -21 -20 -1 0
2 9 8 20 6 11 15 20 20 20 6 0 2 -9 -7 -20z m-1083 -10 c0 -5 -2 -10 -4 -10
-3 0 -8 5 -11 10 -3 6 -1 10 4 10 6 0 11 -4 11 -10z m1313 -54 c7 3 3 -2 -7
-10 -23 -19 -29 -16 -19 10 4 11 8 13 11 6 2 -7 9 -10 15 -6z m139 -38 c-17
-17 -15 -28 4 -28 8 0 12 5 9 10 -3 6 -4 10 -1 10 2 0 13 3 23 6 14 6 16 4 6
-6 -8 -9 -9 -19 -1 -36 13 -28 11 -31 -24 -38 -20 -3 -25 -1 -21 10 3 8 13 14
22 15 9 0 1 5 -16 10 -18 5 -33 14 -33 19 0 10 28 40 38 40 3 0 1 -5 -6 -12z
m-1597 -8 c3 -5 1 -10 -4 -10 -6 0 -11 5 -11 10 0 6 2 10 4 10 3 0 8 -4 11
-10z m1565 0 c0 -5 -2 -10 -4 -10 -3 0 -8 5 -11 10 -3 6 -1 10 4 10 6 0 11 -4
11 -10z m-394 -12 c11 -18 13 -68 2 -68 -5 0 -6 5 -3 10 3 6 1 10 -4 10 -6 0
-11 -6 -11 -12 0 -7 -7 0 -15 16 -12 22 -12 32 -4 42 14 17 26 18 35 2z m463
-132 c73 -73 129 -136 123 -140 -5 -3 -52 33 -103 80 -52 47 -105 93 -119 102
-14 9 -35 25 -47 36 -13 11 -23 14 -23 8 0 -7 5 -12 11 -12 5 0 8 -4 5 -9 -7
-10 -37 -8 -36 2 0 10 42 67 50 67 3 0 65 -60 139 -134z m41 124 c-19 -13 -30
-13 -30 0 0 6 10 10 23 10 18 0 19 -2 7 -10z m2 -40 c-15 -27 -15 -32 -2 -40
10 -6 20 -4 32 7 22 20 23 14 3 -23 -8 -16 -15 -23 -15 -15 0 11 -3 11 -17 0
-15 -12 -16 -12 -11 3 4 10 1 19 -8 22 -8 3 -14 0 -15 -7 0 -9 -2 -9 -6 1 -2
6 -9 10 -13 7 -5 -3 -12 0 -16 6 -4 8 -3 9 4 5 7 -4 12 -2 12 4 0 7 7 10 15 6
9 -3 15 0 15 10 0 16 20 43 32 44 4 0 -1 -14 -10 -30z m-102 10 c0 -5 -2 -10
-4 -10 -3 0 -8 5 -11 10 -3 6 -1 10 4 10 6 0 11 -4 11 -10z m-140 -9 c0 -15
-17 -22 -36 -14 -16 6 -16 7 2 14 27 11 34 10 34 0z m260 -17 c0 -8 -5 -12
-10 -9 -6 4 -8 11 -5 16 9 14 15 11 15 -7z m-1780 -44 c0 -5 -4 -10 -10 -10
-5 0 -10 5 -10 10 0 6 5 10 10 10 6 0 10 -4 10 -10z m1218 -23 c18 -14 15 -22
-13 -35 -21 -10 -27 -9 -31 2 -3 8 -13 13 -22 11 -9 -1 -11 0 -4 2 6 3 12 9
12 14 0 6 5 7 12 3 7 -5 9 -2 5 9 -4 12 -2 14 11 10 9 -3 23 -10 30 -16z m32
19 c0 -3 -4 -8 -10 -11 -5 -3 -10 -1 -10 4 0 6 5 11 10 11 6 0 10 -2 10 -4z
m115 -37 c4 -6 4 -13 0 -17 -3 -3 -10 0 -15 8 -9 13 -11 12 -9 -6 1 -11 -44
-44 -52 -38 -9 5 -13 -8 -10 -36 2 -13 1 -13 -9 0 -9 11 -13 12 -17 2 -8 -19
-35 -44 -41 -37 -4 3 -1 10 7 14 7 5 11 12 9 17 -1 5 7 13 20 19 12 5 25 18
28 28 5 17 59 57 76 57 4 0 10 -5 13 -11z m515 7 c0 -2 -8 -10 -17 -17 -16
-13 -17 -12 -4 4 13 16 21 21 21 13z m-897 -76 c-3 -12 -8 -19 -11 -16 -5 6 5
36 12 36 2 0 2 -9 -1 -20z m42 10 c-3 -5 -12 -10 -18 -10 -7 0 -6 4 3 10 19
12 23 12 15 0z m45 -29 c0 -6 -4 -13 -10 -16 -5 -3 -10 1 -10 9 0 9 5 16 10
16 6 0 10 -4 10 -9z m905 -2 c11 -16 1 -19 -13 -3 -7 8 -8 14 -3 14 5 0 13 -5
16 -11z m-695 -23 c0 -2 -7 -9 -15 -16 -13 -11 -14 -10 -9 4 5 14 24 23 24 12z
m740 -53 c0 -5 -5 -15 -10 -23 -7 -12 -9 -10 -7 8 1 19 17 33 17 15z m-1002
-33 c-7 -11 -17 -20 -22 -20 -5 0 -1 9 9 20 10 11 20 20 22 20 2 0 -2 -9 -9
-20z m-1075 -25 c-3 -9 -8 -14 -10 -11 -3 3 -2 9 2 15 9 16 15 13 8 -4z m7
-35 c0 -5 -2 -10 -4 -10 -3 0 -8 5 -11 10 -3 6 -1 10 4 10 6 0 11 -4 11 -10z
m1230 0 c0 -5 -10 -10 -22 -9 -22 0 -22 1 -3 9 11 5 21 9 23 9 1 1 2 -3 2 -9z
m857 -5 c0 -8 -4 -12 -9 -9 -5 3 -6 10 -3 15 9 13 12 11 12 -6z m-1945 -183
c-3 -9 -1 -13 5 -9 11 7 124 -80 130 -100 11 -33 -52 10 -134 92 -67 66 -93
99 -93 116 1 21 6 18 49 -30 30 -33 47 -60 43 -69z m984 70 c-18 -16 -18 -16
-6 6 6 13 14 21 18 18 3 -4 -2 -14 -12 -24z m-144 -54 c-10 -10 -15 -10 -22 2
-13 20 -13 4 0 -19 7 -14 4 -24 -15 -41 -14 -13 -28 -21 -31 -18 -3 4 6 14 20
23 25 16 25 18 9 31 -17 13 -17 15 6 34 17 15 27 18 35 10 7 -7 6 -14 -2 -22z
m-627 -188 c3 -5 1 -10 -4 -10 -6 0 -11 5 -11 10 0 6 2 10 4 10 3 0 8 -4 11
-10z m1425 -124 c-19 -19 -22 -20 -47 -6 -14 8 -31 22 -36 31 -15 24 16 68 53
76 18 3 30 12 31 22 1 9 6 -11 11 -43 8 -54 7 -61 -12 -80z m-1383 118 c-3 -3
-12 -4 -19 -1 -8 3 -5 6 6 6 11 1 17 -2 13 -5z m93 -9 c0 -1 -9 -5 -19 -8 -13
-3 -18 -1 -14 9 4 10 33 10 33 -1z m1470 -5 c0 -5 -4 -10 -10 -10 -5 0 -10 5
-10 10 0 6 5 10 10 10 6 0 10 -4 10 -10z m-65 -26 c-41 -34 -65 -47 -65 -35 0
14 62 61 80 61 9 -1 4 -10 -15 -26z m-1570 6 c-3 -5 -11 -10 -16 -10 -6 0 -7
5 -4 10 3 6 11 10 16 10 6 0 7 -4 4 -10z m768 -23 c17 10 -10 -25 -62 -79 -25
-27 -50 -48 -55 -48 -6 0 14 25 44 56 30 31 46 54 36 50 -20 -7 -20 -7 -1 14
11 12 21 17 23 11 2 -6 9 -8 15 -4z m377 -20 c0 -2 -15 -16 -32 -33 l-33 -29
29 33 c28 30 36 37 36 29z m-610 -213 c0 -11 -6 -14 -21 -9 -15 5 -19 4 -15
-4 4 -6 2 -11 -4 -11 -8 0 -8 -6 0 -21 7 -11 9 -23 6 -26 -3 -3 -11 6 -17 21
-10 22 -9 29 6 46 22 24 45 26 45 4z m910 -18 c0 -3 -4 -8 -10 -11 -5 -3 -10
-1 -10 4 0 6 5 11 10 11 6 0 10 -2 10 -4z m-260 -81 c-22 -27 -152 -129 -167
-131 -7 -1 13 26 46 61 70 76 80 98 54 127 -12 14 -2 11 30 -11 38 -26 46 -35
37 -46z m120 41 c0 -3 -13 -14 -30 -26 -16 -12 -30 -18 -30 -13 0 5 12 16 28
25 30 19 32 20 32 14z m-200 -39 c0 -7 -24 -35 -52 -63 -48 -45 -104 -91 -86
-70 4 5 1 18 -7 28 -21 32 0 64 62 93 31 15 51 30 47 36 -4 7 1 7 15 0 11 -7
21 -17 21 -24z m260 23 c0 -5 -2 -10 -4 -10 -3 0 -8 5 -11 10 -3 6 -1 10 4 10
6 0 11 -4 11 -10z m0 -34 c0 -2 -7 -6 -15 -10 -8 -3 -15 -1 -15 4 0 6 7 10 15
10 8 0 15 -2 15 -4z m-40 -110 c0 -3 -4 -8 -10 -11 -5 -3 -10 -1 -10 4 0 6 5
11 10 11 6 0 10 -2 10 -4z m-123 -43 c-3 -3 -13 1 -21 10 -8 8 -12 17 -9 20 3
3 12 -1 20 -9 9 -8 13 -18 10 -21z m-57 -113 c0 -5 -4 -10 -10 -10 -5 0 -10 5
-10 10 0 6 5 10 10 10 6 0 10 -4 10 -10z m-229 -13 c-1 -12 -15 -9 -19 4 -3 6
1 10 8 8 6 -3 11 -8 11 -12z m-53 -19 c9 -9 12 -9 12 1 0 7 5 9 10 6 13 -8 3
-25 -14 -25 -7 0 -21 7 -32 15 -15 11 -16 14 -3 15 8 0 20 -5 27 -12z"/>
<path d="M4707 3917 c-3 -8 1 -14 9 -14 16 0 19 13 5 21 -5 3 -11 0 -14 -7z"/>
<path d="M5177 3223 c-11 -11 -8 -20 7 -20 8 0 12 6 9 14 -6 15 -7 15 -16 6z"/>
<path d="M5145 3080 c4 -6 11 -8 16 -5 14 9 11 15 -7 15 -8 0 -12 -5 -9 -10z"/>
<path d="M4498 4363 c-10 -2 -18 -9 -18 -14 0 -6 8 -5 20 1 11 6 20 13 20 15
0 3 -1 4 -2 4 -2 -1 -11 -3 -20 -6z"/>
<path d="M5300 4360 c0 -5 5 -10 10 -10 6 0 10 5 10 10 0 6 -4 10 -10 10 -5 0
-10 -4 -10 -10z"/>
<path d="M3507 4333 c-4 -3 -7 -11 -7 -17 0 -6 5 -5 12 2 6 6 9 14 7 17 -3 3
-9 2 -12 -2z"/>
<path d="M3250 4300 c0 -5 5 -10 11 -10 5 0 7 5 4 10 -3 6 -8 10 -11 10 -2 0
-4 -4 -4 -10z"/>
<path d="M3307 4249 c-5 -17 -3 -18 11 -7 9 7 18 13 20 14 2 1 -4 4 -12 7 -8
3 -16 -2 -19 -14z"/>
<path d="M3193 4227 c-26 -11 -30 -27 -8 -27 8 0 15 5 15 10 0 14 28 12 32 -2
3 -7 7 -8 11 -2 10 17 -25 32 -50 21z"/>
<path d="M3274 4225 c-4 -11 -12 -23 -18 -27 -8 -5 -8 -8 0 -8 17 0 37 27 31
42 -3 9 -7 6 -13 -7z"/>
<path d="M5500 4209 c0 -5 5 -7 10 -4 6 3 10 8 10 11 0 2 -4 4 -10 4 -5 0 -10
-5 -10 -11z"/>
<path d="M3405 4200 c-3 -5 -1 -10 4 -10 6 0 11 5 11 10 0 6 -2 10 -4 10 -3 0
-8 -4 -11 -10z"/>
<path d="M3210 4196 c0 -2 8 -10 18 -17 15 -13 16 -12 3 4 -13 16 -21 21 -21
13z"/>
<path d="M3145 4170 c-3 -5 -1 -10 4 -10 6 0 11 5 11 10 0 6 -2 10 -4 10 -3 0
-8 -4 -11 -10z"/>
<path d="M3281 4141 c-10 -17 -8 -18 13 -8 14 7 22 15 20 19 -9 14 -23 9 -33
-11z"/>
<path d="M4527 4154 c-7 -7 30 -44 44 -44 5 0 -1 11 -13 25 -24 28 -23 27 -31
19z"/>
<path d="M2320 4109 c0 -5 5 -7 10 -4 6 3 10 8 10 11 0 2 -4 4 -10 4 -5 0 -10
-5 -10 -11z"/>
<path d="M4380 4110 c0 -5 5 -10 11 -10 5 0 7 5 4 10 -3 6 -8 10 -11 10 -2 0
-4 -4 -4 -10z"/>
<path d="M5600 4109 c0 -5 5 -7 10 -4 6 3 10 8 10 11 0 2 -4 4 -10 4 -5 0 -10
-5 -10 -11z"/>
<path d="M3275 4100 c-3 -5 -1 -10 4 -10 6 0 11 5 11 10 0 6 -2 10 -4 10 -3 0
-8 -4 -11 -10z"/>
<path d="M3065 4060 c3 -5 8 -10 11 -10 2 0 4 5 4 10 0 6 -5 10 -11 10 -5 0
-7 -4 -4 -10z"/>
<path d="M4521 4034 c-9 -20 -9 -25 0 -22 14 5 32 48 20 48 -4 0 -13 -12 -20
-26z"/>
<path d="M2426 4015 c-3 -8 -1 -15 4 -15 6 0 10 7 10 15 0 8 -2 15 -4 15 -2 0
-6 -7 -10 -15z"/>
<path d="M5707 3983 c-4 -3 -7 -11 -7 -17 0 -6 5 -5 12 2 6 6 9 14 7 17 -3 3
-9 2 -12 -2z"/>
<path d="M5750 3959 c0 -5 5 -7 10 -4 6 3 10 8 10 11 0 2 -4 4 -10 4 -5 0 -10
-5 -10 -11z"/>
<path d="M5795 3960 c3 -5 8 -10 11 -10 2 0 4 5 4 10 0 6 -5 10 -11 10 -5 0
-7 -4 -4 -10z"/>
<path d="M160 3940 c0 -5 -8 -7 -17 -4 -17 5 -17 5 0 -6 9 -6 15 -16 11 -21
-4 -6 -13 -4 -25 7 -13 12 -19 13 -19 4 0 -7 -7 -10 -16 -6 -11 4 -15 2 -11
-6 2 -7 -2 -19 -9 -26 -10 -9 -14 -9 -14 -1 0 6 -7 9 -15 5 -8 -3 -15 0 -15 7
0 7 -7 -1 -15 -17 -8 -15 -15 -42 -15 -58 l0 -30 36 31 c19 18 59 45 89 62 42
23 52 34 48 49 -6 21 -13 27 -13 10z"/>
<path d="M196 3940 c-15 -5 -16 -9 -7 -14 7 -5 18 -3 24 3 14 14 6 20 -17 11z"/>
<path d="M2915 3940 c3 -5 11 -10 16 -10 6 0 7 5 4 10 -3 6 -11 10 -16 10 -6
0 -7 -4 -4 -10z"/>
<path d="M4472 3943 c-10 -4 -9 -9 4 -24 16 -18 16 -19 -7 -20 -13 0 -18 -3
-11 -6 6 -2 9 -10 6 -16 -4 -7 4 -2 17 11 19 18 21 24 10 31 -7 5 -10 14 -7
20 8 12 7 12 -12 4z"/>
<path d="M4585 3930 c-16 -17 -16 -20 -3 -15 9 4 19 13 22 21 7 19 2 18 -19
-6z"/>
<path d="M5750 3921 c0 -6 4 -13 10 -16 6 -3 7 1 4 9 -7 18 -14 21 -14 7z"/>
<path d="M2578 3913 c7 -3 16 -2 19 1 4 3 -2 6 -13 5 -11 0 -14 -3 -6 -6z"/>
<path d="M270 3905 c0 -2 10 -10 23 -16 20 -11 21 -11 8 4 -13 16 -31 23 -31
12z"/>
<path d="M412 3834 c19 -20 42 -34 49 -31 10 3 8 7 -6 13 -11 4 -29 18 -40 31
-11 13 -25 23 -30 23 -5 0 7 -16 27 -36z"/>
<path d="M4430 3852 c0 -6 -7 -9 -16 -5 -11 4 -15 1 -12 -13 2 -12 -2 -18 -10
-16 -8 1 -11 -2 -7 -9 5 -7 16 -2 33 15 14 14 23 29 19 32 -4 4 -7 2 -7 -4z"/>
<path d="M3235 3810 c-4 -6 -10 -8 -15 -5 -5 3 -16 -9 -25 -27 l-16 -33 36 35
c19 18 35 35 35 37 0 7 -9 2 -15 -7z"/>
<path d="M5881 3794 c0 -11 3 -14 6 -6 3 7 2 16 -1 19 -3 4 -6 -2 -5 -13z"/>
<path d="M470 3783 c0 -5 23 -30 50 -57 48 -47 71 -58 30 -14 -10 12 -17 25
-14 29 3 5 -2 6 -10 3 -10 -4 -16 -1 -16 8 0 7 -9 19 -20 26 -11 7 -20 9 -20
5z"/>
<path d="M434 3743 c16 -20 36 -23 36 -6 0 4 -3 3 -7 0 -3 -4 -16 1 -27 10
-21 18 -21 18 -2 -4z"/>
<path d="M28 3705 l-28 -24 0 -194 0 -194 45 -42 46 -42 67 47 c99 70 211 158
212 166 1 24 -284 309 -308 308 -4 0 -19 -12 -34 -25z"/>
<path d="M580 3675 c0 -3 13 -23 29 -45 62 -86 65 -141 8 -165 -18 -7 -48 -31
-67 -52 -29 -32 -30 -34 -4 -10 16 15 41 27 55 27 22 -1 21 -2 -11 -20 -19
-10 -57 -39 -84 -64 -52 -49 -72 -61 -40 -24 15 17 16 19 2 12 -25 -14 -138
-124 -138 -135 0 -5 -4 -9 -9 -9 -5 0 -22 -12 -38 -27 -16 -16 -86 -83 -156
-151 l-127 -123 0 -162 c0 -91 4 -156 9 -149 6 11 11 10 25 -3 9 -9 16 -22 16
-29 0 -17 -35 -48 -43 -39 -4 3 -7 -10 -7 -31 0 -21 4 -35 10 -31 5 3 6 13 3
22 -5 11 -3 14 6 8 14 -8 181 150 181 172 0 15 -21 13 -33 -2 -8 -10 -5 5 9
40 4 10 -2 18 -17 24 l-24 10 23 0 c12 1 22 -4 22 -10 0 -5 4 -8 10 -4 5 3 7
12 3 20 -3 8 0 15 6 15 6 0 8 7 5 15 -4 8 -1 15 6 15 6 0 8 6 4 13 -5 9 -4 9
5 1 10 -9 9 -19 -3 -48 -12 -30 -13 -41 -3 -57 11 -17 22 -8 148 117 l136 136
-22 24 c-12 13 -25 24 -29 24 -4 0 2 -10 14 -22 24 -26 25 -34 6 -41 -8 -3
-22 3 -32 14 -12 13 -21 16 -29 9 -6 -5 -16 -6 -21 -2 -4 4 -2 -2 6 -12 13
-17 13 -19 0 -14 -9 3 -14 15 -13 29 l3 24 -18 -23 c-17 -22 -52 -23 -52 -1 0
4 7 6 14 3 9 -3 30 9 51 30 34 35 53 47 40 26 -3 -6 1 -7 10 -4 11 5 12 10 5
18 -6 9 -6 16 2 24 16 16 28 15 28 -1 0 -7 9 -18 21 -25 17 -11 25 -10 55 8
36 23 44 33 17 23 -12 -5 -14 -3 -8 8 5 8 5 11 -1 6 -5 -5 -9 -14 -9 -19 0 -6
-6 -13 -13 -16 -7 -2 -10 2 -7 10 3 7 -4 19 -15 26 -22 13 -27 3 -8 -16 7 -7
8 -12 2 -12 -5 0 -15 9 -22 20 -7 12 -17 18 -22 15 -6 -3 -10 -1 -10 5 0 6 8
9 18 6 11 -3 24 4 35 20 19 25 16 61 -3 49 -5 -3 -10 -1 -10 5 0 7 7 9 17 6
11 -5 25 2 41 21 13 15 26 27 28 26 2 -2 11 -3 21 -3 14 0 14 3 -3 22 -19 21
-19 21 0 14 16 -5 17 -4 6 9 -10 12 -10 15 4 15 13 0 14 3 4 19 -9 15 -9 23 1
35 7 9 18 13 23 10 6 -4 5 3 -1 15 -10 17 -9 20 4 15 11 -5 13 -2 9 10 -4 9
-1 16 6 16 7 0 10 7 6 15 -3 9 1 18 9 22 9 3 15 10 14 17 -1 6 -1 22 0 36 1
18 4 21 10 12 6 -11 9 -9 14 7 2 11 0 22 -6 24 -5 1 -12 14 -14 27 -2 13 -10
31 -18 40 -8 9 -13 19 -9 22 3 3 -6 17 -20 31 -14 15 -26 31 -26 37 0 5 -4 10
-10 10 -5 0 -10 -2 -10 -5z m-122 -539 c-7 -8 -15 -12 -17 -11 -5 6 10 25 20
25 5 0 4 -6 -3 -14z m22 -26 c-6 -11 -20 -20 -33 -19 l-22 0 21 9 c12 5 25 13
29 19 11 19 16 12 5 -9z m-64 -54 c14 4 13 1 -6 -15 -32 -26 -35 -26 -35 3 0
17 3 21 11 15 6 -5 20 -7 30 -3z m2 -161 c6 -2 12 0 12 5 0 6 5 10 10 10 18 0
11 -18 -10 -25 -11 -3 -20 -13 -20 -21 0 -11 -7 -13 -27 -8 -23 5 -26 4 -15
-7 18 -20 14 -33 -5 -14 -16 16 -15 18 6 35 20 14 21 18 8 23 -10 4 -23 -3
-34 -17 -15 -19 -21 -21 -31 -10 -6 7 -8 15 -3 19 5 3 12 -1 14 -7 4 -8 8 -5
12 8 6 18 13 21 38 18 18 -3 38 -7 45 -9z m-186 -87 c-6 -6 -15 -8 -19 -4 -4
4 -2 11 5 15 7 4 10 16 7 27 -4 13 -2 12 6 -4 9 -17 10 -25 1 -34z m72 44 c2
-4 -4 -8 -14 -8 -10 0 -16 4 -14 8 3 4 9 8 14 8 5 0 11 -4 14 -8z m14 -38 c12
-8 22 -20 22 -26 0 -7 -5 -6 -14 1 -9 8 -16 8 -20 2 -4 -5 -2 -12 4 -16 11 -7
4 -25 -10 -25 -5 0 -7 16 -5 36 2 23 -1 34 -8 31 -7 -3 -11 -9 -10 -14 12 -57
11 -64 -17 -92 -18 -18 -31 -24 -34 -16 -6 16 5 30 24 30 9 0 15 11 17 27 1
21 -2 26 -15 21 -10 -3 -13 -2 -6 4 17 13 24 41 11 47 -7 2 -1 5 13 5 14 1 36
-6 48 -15z m42 6 c0 -5 -5 -10 -11 -10 -5 0 -7 5 -4 10 3 6 8 10 11 10 2 0 4
-4 4 -10z m-175 -50 c-10 -11 -21 -17 -24 -14 -3 3 3 12 13 20 28 20 32 17 11
-6z m-65 -20 c0 -5 -4 -10 -10 -10 -5 0 -10 5 -10 10 0 6 5 10 10 10 6 0 10
-4 10 -10z m45 -59 c3 -5 1 -12 -5 -16 -5 -3 -10 1 -10 9 0 18 6 21 15 7z
m-44 -101 c6 0 13 9 16 20 6 22 23 28 23 7 0 -7 -9 -18 -21 -25 -17 -11 -23
-10 -43 9 -18 17 -21 26 -12 35 8 9 13 5 19 -17 4 -16 12 -29 18 -29z m-41 10
c0 -5 -4 -10 -10 -10 -5 0 -10 5 -10 10 0 6 5 10 10 10 6 0 10 -4 10 -10z
m-20 -90 c0 -5 -8 -10 -17 -10 -15 0 -16 2 -3 10 19 12 20 12 20 0z"/>
<path d="M3145 3643 c-9 -25 11 -38 24 -15 8 15 7 21 -3 25 -8 3 -17 -1 -21
-10z"/>
<path d="M4136 3605 c-4 -10 -2 -14 5 -9 6 4 15 0 20 -7 7 -11 13 -9 31 11 18
19 18 21 2 7 -18 -15 -22 -15 -36 -1 -14 14 -16 14 -22 -1z"/>
<path d="M617 3536 c3 -13 0 -34 -7 -47 -11 -23 -10 -23 4 -5 17 21 22 76 7
76 -4 0 -6 -11 -4 -24z"/>
<path d="M4120 3538 c-12 -22 -12 -22 6 -6 10 10 15 20 12 24 -4 3 -12 -5 -18
-18z"/>
<path d="M4069 3413 l-24 -28 28 24 c25 23 32 31 24 31 -2 0 -14 -12 -28 -27z"/>
<path d="M3907 3393 c3 -6 11 -9 19 -6 20 7 17 19 -5 19 -11 0 -17 -6 -14 -13z"/>
<path d="M4050 3380 c-23 -7 -23 -8 -3 -9 12 -1 25 4 28 9 3 6 5 10 3 9 -2 -1
-14 -5 -28 -9z"/>
<path d="M4067 3346 c-9 -13 -13 -26 -10 -30 7 -6 43 32 43 46 0 16 -18 8 -33
-16z"/>
<path d="M258 3287 c-59 -34 -141 -86 -182 -115 l-76 -52 0 -72 0 -72 32 30
c159 143 358 332 358 338 0 15 -33 0 -132 -57z"/>
<path d="M5406 3319 c-16 -16 -17 -19 -4 -19 18 0 43 26 31 33 -4 2 -17 -4
-27 -14z"/>
<path d="M5490 3336 c0 -2 7 -6 15 -10 8 -3 15 -1 15 4 0 6 -7 10 -15 10 -8 0
-15 -2 -15 -4z"/>
<path d="M606 3303 c-9 -10 -7 -25 3 -19 5 3 11 -1 15 -9 3 -8 11 -15 18 -14
10 0 10 2 0 6 -6 2 -10 8 -8 11 5 10 -20 32 -28 25z"/>
<path d="M3950 3295 c-7 -9 -8 -15 -2 -15 5 0 12 7 16 15 3 8 4 15 2 15 -2 0
-9 -7 -16 -15z"/>
<path d="M3505 3270 c-18 -7 -19 -8 -2 -15 20 -8 47 0 47 15 0 12 -17 12 -45
0z"/>
<path d="M3565 3270 c3 -5 8 -10 11 -10 2 0 4 5 4 10 0 6 -5 10 -11 10 -5 0
-7 -4 -4 -10z"/>
<path d="M3831 3248 c-14 -23 -14 -23 8 -4 22 20 25 26 13 26 -4 0 -13 -10
-21 -22z"/>
<path d="M3935 3260 c3 -5 11 -10 16 -10 6 0 7 5 4 10 -3 6 -11 10 -16 10 -6
0 -7 -4 -4 -10z"/>
<path d="M5345 3250 c-3 -6 1 -7 9 -4 18 7 21 14 7 14 -6 0 -13 -4 -16 -10z"/>
<path d="M614 3231 c0 -11 5 -17 13 -14 10 4 11 9 2 19 -15 18 -15 18 -15 -5z"/>
<path d="M3220 3210 c0 -5 7 -7 15 -4 8 4 15 8 15 10 0 2 -7 4 -15 4 -8 0 -15
-4 -15 -10z"/>
<path d="M3786 3204 c-23 -23 -20 -30 4 -9 11 10 20 20 20 22 0 7 -9 2 -24
-13z"/>
<path d="M543 3163 c-20 -14 -21 -16 -5 -34 9 -10 21 -19 26 -19 5 0 2 8 -7
18 -10 10 -14 22 -11 25 4 4 13 -1 20 -11 12 -16 13 -15 14 5 0 29 -10 34 -37
16z"/>
<path d="M3609 3153 c-13 -16 -12 -17 4 -4 16 13 21 21 13 21 -2 0 -10 -8 -17
-17z"/>
<path d="M835 3090 c-3 -6 1 -7 9 -4 18 7 21 14 7 14 -6 0 -13 -4 -16 -10z"/>
<path d="M842 3073 c-24 -12 -40 -19 -37 -13 3 5 -4 8 -15 7 -11 -1 -20 -5
-20 -9 0 -4 -6 -8 -14 -8 -23 0 -64 -25 -96 -59 -17 -17 -30 -26 -30 -21 0 16
-26 11 -43 -8 -18 -20 -13 -34 8 -25 8 2 11 12 8 21 -5 14 -4 15 8 4 12 -12
10 -16 -10 -30 -13 -9 -33 -18 -45 -19 -26 -4 -137 -113 -129 -126 3 -6 1 -7
-4 -4 -16 10 -115 -95 -100 -106 8 -6 7 -7 -4 -4 -19 6 -243 -215 -232 -228 5
-4 2 -5 -4 -1 -8 5 -13 1 -13 -10 0 -10 -3 -14 -7 -11 -4 4 -19 -5 -35 -20
-28 -27 -28 -27 -28 -154 l0 -127 35 -43 c56 -66 62 -89 12 -40 l-46 44 -1
-353 c0 -276 3 -351 12 -342 18 18 34 15 62 -13 29 -29 52 -31 84 -9 12 8 26
13 30 10 4 -2 14 -1 22 4 10 6 11 12 2 22 -8 11 -6 17 10 27 19 12 24 9 57
-23 l36 -36 -31 -30 -30 -31 -19 21 c-15 17 -16 20 -3 20 9 0 21 7 28 15 7 8
10 15 7 15 -19 0 -195 -65 -210 -78 -15 -14 -19 -13 -37 3 -28 26 -25 3 3 -24
13 -12 34 -44 47 -72 l24 -50 60 59 c45 44 73 63 108 72 70 18 77 5 26 -47
-52 -54 -74 -67 -84 -51 -4 6 -3 8 3 5 5 -3 25 9 43 28 26 27 29 33 13 29 -11
-3 -46 -32 -78 -64 -56 -57 -57 -58 -35 -70 12 -6 31 -9 43 -6 28 7 52 -7 117
-68 41 -38 38 -33 -14 21 l-70 72 24 28 c14 16 47 52 74 81 l50 52 53 -52 c29
-29 53 -48 53 -42 0 5 -23 32 -50 59 -27 27 -50 52 -50 56 0 4 12 9 27 12 19
3 39 -4 75 -30 27 -20 51 -34 53 -31 2 2 -18 19 -46 37 -27 19 -49 37 -49 40
0 3 16 11 37 18 34 10 38 9 85 -28 28 -21 55 -39 60 -39 6 0 -8 14 -30 30 -23
17 -42 35 -42 40 0 6 -7 10 -16 10 -8 0 -13 4 -10 8 3 5 -5 8 -17 8 -12 -1
-21 4 -20 10 1 7 -6 10 -16 7 -11 -3 -21 2 -25 12 -4 10 -2 14 5 9 7 -4 10 -1
7 7 -3 8 -10 15 -16 15 -22 3 -23 4 -12 23 8 17 7 20 -9 18 -11 0 -18 -5 -15
-9 5 -7 -17 -48 -26 -48 -12 0 -62 50 -52 51 22 3 27 5 53 22 15 10 34 15 45
11 14 -4 15 -3 6 4 -10 7 -8 13 12 25 34 23 50 25 51 7 1 -19 35 -14 55 8 14
14 13 15 -3 2 -15 -11 -20 -11 -34 3 -13 13 -14 19 -3 31 15 19 36 21 44 4 3
-7 4 -4 3 7 -1 11 4 20 13 20 8 1 14 7 12 14 -1 7 6 15 16 18 24 6 68 86 57
104 -6 11 -5 11 5 2 7 -6 19 -9 28 -6 11 5 13 3 7 -8 -8 -12 -6 -12 9 0 9 8
15 20 12 28 -3 8 -1 11 4 8 14 -8 13 8 -1 22 -8 8 -6 14 9 22 10 6 22 7 26 4
3 -3 6 -1 6 5 0 18 18 14 24 -5 3 -11 4 -7 3 7 -1 14 -8 25 -14 25 -28 0 -11
20 19 22 18 2 37 8 43 15 7 8 5 9 -9 4 -16 -5 -17 -4 -6 9 11 14 14 13 27 -5
12 -16 17 -18 33 -7 11 6 20 16 20 21 0 6 -5 5 -12 -2 -7 -7 -19 -12 -27 -12
-11 0 -10 4 5 16 13 11 15 17 7 20 -19 8 -16 27 3 20 14 -5 15 -4 4 9 -10 12
-10 15 4 15 9 0 25 9 35 19 19 19 20 19 18 0 -1 -12 -9 -19 -22 -19 -18 -1
-19 -1 -2 -11 26 -15 39 -1 35 39 -2 24 2 37 11 40 10 3 12 0 8 -12 -5 -12 -3
-16 5 -13 7 2 12 12 10 21 -2 9 3 15 10 14 7 -2 13 4 13 12 0 22 58 76 76 72
12 -3 16 3 14 22 -2 18 2 26 11 26 9 0 12 5 9 10 -4 6 -1 9 5 8 7 -2 20 11 30
27 11 19 24 29 35 27 12 -2 15 1 9 10 -5 8 2 6 19 -4 33 -22 43 -23 23 -2 -18
17 -22 39 -5 29 6 -4 9 0 7 10 -2 10 4 20 12 22 13 4 13 3 0 -6 -13 -9 -13
-11 1 -11 14 0 16 9 14 47 -3 31 -1 42 6 33 6 -10 9 -11 9 -3 0 7 7 10 18 7
16 -5 16 -5 -1 6 -13 9 -15 15 -7 31 13 23 33 24 54 3 9 -8 16 -11 16 -5 0 5
-4 13 -10 16 -5 3 -10 11 -10 17 0 7 6 6 15 -2 16 -14 20 -3 6 19 -5 8 -14 10
-22 5 -12 -6 -12 -5 -1 8 8 9 19 15 27 12 7 -3 16 -1 20 5 3 6 -1 11 -11 11
-14 0 -13 3 6 20 18 16 20 20 7 20 -10 0 -17 5 -17 11 0 6 7 8 16 5 13 -5 14
-3 6 7 -14 16 -10 46 9 59 11 8 10 9 -5 4 -13 -5 -17 -2 -12 9 3 8 -6 32 -20
52 -13 20 -23 42 -20 49 3 7 0 11 -7 9 -13 -5 -97 100 -97 121 0 7 -6 11 -13
8 -8 -3 -29 12 -48 33 -20 21 -55 49 -80 62 -24 13 -51 30 -59 37 -8 7 -32 15
-53 19 -29 6 -37 11 -32 23 4 12 3 13 -10 2 -11 -9 -22 -10 -38 -3 -17 7 -32
4 -65 -14z m146 -61 c5 -16 -41 -15 -56 0 -9 9 -12 8 -12 -5 0 -9 -7 -17 -15
-17 -24 0 -17 18 12 34 28 14 64 8 71 -12z m-188 -75 c0 -8 -11 -24 -24 -36
-32 -30 -46 -8 -15 25 25 27 39 31 39 11z m-244 -53 c-11 -8 -16 -14 -12 -14
4 0 4 -5 0 -11 -4 -8 -9 -7 -15 2 -6 10 -1 20 14 31 12 9 24 14 27 11 3 -2 -4
-11 -14 -19z m-40 -26 c4 -7 3 -8 -4 -4 -7 4 -12 2 -12 -5 0 -7 -3 -10 -6 -6
-6 5 3 27 11 27 2 0 7 -5 11 -12z m-76 -102 c-14 -13 -27 -21 -30 -19 -4 4 40
42 50 43 2 0 -7 -11 -20 -24z m-45 -44 c-3 -3 -11 0 -18 7 -9 10 -8 11 6 5 10
-3 15 -9 12 -12z m947 -66 c2 -13 -6 -25 -24 -35 -37 -21 -44 -9 -23 39 15 33
21 38 31 28 7 -7 14 -22 16 -32z m-1037 -16 c-3 -5 -12 -10 -18 -10 -7 0 -6 4
3 10 19 12 23 12 15 0z m403 -51 c34 -42 22 -36 -23 12 -22 23 -31 36 -20 29
11 -7 30 -25 43 -41z m-433 23 c-3 -3 -11 0 -18 7 -9 10 -8 11 6 5 10 -3 15
-9 12 -12z m585 -177 c17 -25 29 -45 26 -45 -3 0 -18 18 -33 41 l-27 41 -18
-22 c-10 -12 -18 -19 -18 -14 0 7 30 44 36 44 2 0 17 -20 34 -45z m-820 -34
c-10 -20 -30 -37 -30 -27 0 6 33 46 38 46 1 0 -2 -9 -8 -19z m710 -26 c-24
-25 -46 -45 -49 -45 -5 0 58 70 74 82 26 20 15 4 -25 -37z m96 -133 c-2 -4
-27 -23 -55 -42 -27 -19 -52 -43 -55 -54 -3 -11 -8 -17 -12 -13 -11 10 44 87
58 82 7 -3 24 4 38 15 27 21 34 24 26 12z m-116 -352 c0 -5 -5 -10 -11 -10 -5
0 -7 5 -4 10 3 6 8 10 11 10 2 0 4 -4 4 -10z m-363 -138 c35 -30 69 -52 75
-49 7 2 28 -9 47 -25 l33 -29 29 27 c16 15 31 25 33 23 3 -3 -18 -24 -45 -48
l-51 -44 -112 113 c-114 117 -117 125 -9 32z m-217 18 c0 -5 -2 -10 -4 -10 -3
0 -8 5 -11 10 -3 6 -1 10 4 10 6 0 11 -4 11 -10z m480 -34 c0 -2 -8 -10 -17
-17 -16 -13 -17 -12 -4 4 13 16 21 21 21 13z m-487 -18 c-6 -11 -31 -10 -37 1
-3 5 5 8 18 7 13 0 22 -4 19 -8z m107 -32 c0 -3 -4 -8 -10 -11 -5 -3 -10 -1
-10 4 0 6 5 11 10 11 6 0 10 -2 10 -4z m40 -16 c8 -5 11 -10 5 -10 -5 0 -17 5
-25 10 -8 5 -10 10 -5 10 6 0 17 -5 25 -10z m35 -10 c-10 -11 -13 -20 -7 -20
6 0 14 5 17 11 5 7 13 5 24 -5 10 -9 21 -13 24 -9 4 3 7 1 7 -5 0 -7 7 -12 16
-12 8 0 13 4 9 9 -3 5 -1 12 5 16 5 3 10 -1 10 -10 0 -8 -6 -18 -13 -21 -16
-6 -20 -47 -4 -41 7 2 12 10 12 17 0 7 10 14 23 15 19 1 21 -1 10 -11 -15 -14
-85 -54 -95 -54 -4 0 2 7 13 16 18 15 18 15 -8 11 -15 -2 -27 -1 -26 2 1 3 -2
14 -7 24 -4 10 -2 24 6 35 13 15 12 16 -3 4 -9 -8 -22 -11 -27 -7 -7 4 -8 -1
-4 -12 6 -15 5 -16 -9 -3 -15 14 -14 17 10 43 29 31 45 37 17 7z m-87 -14 c-2
-1 -12 -8 -22 -16 -18 -14 -19 -14 -8 6 6 12 8 25 4 30 -4 5 1 2 11 -5 9 -8
16 -14 15 -15z m-78 10 c0 -3 -4 -8 -10 -11 -5 -3 -10 -1 -10 4 0 6 5 11 10
11 6 0 10 -2 10 -4z m114 -52 c3 -8 2 -12 -4 -9 -6 3 -10 10 -10 16 0 14 7 11
14 -7z m-34 2 c0 -3 -4 -8 -10 -11 -5 -3 -10 -1 -10 4 0 6 5 11 10 11 6 0 10
-2 10 -4z m-10 -30 c0 -2 -7 -7 -16 -10 -8 -3 -12 -2 -9 4 6 10 25 14 25 6z
m46 -19 c1 -9 -2 -17 -7 -17 -5 0 -9 4 -9 10 0 5 -8 6 -17 3 -16 -6 -16 -5 -4
10 17 21 33 18 37 -6z m51 -14 c-1 -14 -9 -28 -17 -30 -13 -4 -13 -3 0 7 12 9
12 13 2 17 -10 4 -10 8 -1 19 16 19 18 18 16 -13z m-103 -54 c-3 -6 -1 -15 7
-19 9 -6 6 -12 -14 -21 -20 -9 -31 -9 -38 -2 -14 14 -4 32 25 43 28 12 28 12
20 -1z m-154 -39 c0 -5 -5 -10 -11 -10 -5 0 -7 5 -4 10 3 6 8 10 11 10 2 0 4
-4 4 -10z"/>
<path d="M1306 2644 c-8 -22 1 -31 16 -16 9 9 9 15 1 23 -7 7 -12 5 -17 -7z"/>
<path d="M350 1599 c0 -5 5 -7 10 -4 6 3 10 8 10 11 0 2 -4 4 -10 4 -5 0 -10
-5 -10 -11z"/>
<path d="M605 3080 c-3 -5 -3 -15 1 -22 5 -8 1 -9 -12 -4 -15 6 -17 5 -6 -5
10 -11 16 -10 30 5 10 11 11 15 3 11 -11 -6 -13 -4 -8 8 7 19 2 23 -8 7z"/>
<path d="M736 3077 c3 -10 9 -15 12 -12 3 3 0 11 -7 18 -10 9 -11 8 -5 -6z"/>
<path d="M500 3070 c0 -5 5 -10 11 -10 5 0 7 5 4 10 -3 6 -8 10 -11 10 -2 0
-4 -4 -4 -10z"/>
<path d="M570 3022 c0 -5 -14 -15 -32 -23 -24 -12 -28 -17 -16 -21 10 -4 26 5
44 23 15 16 22 29 16 29 -7 0 -12 -4 -12 -8z"/>
<path d="M460 3000 c0 -5 5 -10 11 -10 5 0 7 5 4 10 -3 6 -8 10 -11 10 -2 0
-4 -4 -4 -10z"/>
<path d="M625 3000 c-3 -5 -1 -10 4 -10 6 0 11 5 11 10 0 6 -2 10 -4 10 -3 0
-8 -4 -11 -10z"/>
<path d="M392 2977 c-18 -21 1 -30 24 -11 10 9 14 13 7 10 -6 -4 -13 -1 -15 5
-2 7 -8 6 -16 -4z"/>
<path d="M480 2969 c0 -5 5 -7 10 -4 6 3 10 8 10 11 0 2 -4 4 -10 4 -5 0 -10
-5 -10 -11z"/>
<path d="M4850 2896 c0 -2 7 -7 16 -10 8 -3 12 -2 9 4 -6 10 -25 14 -25 6z"/>
<path d="M5057 2882 c-19 -20 -23 -37 -7 -27 10 6 33 45 27 45 -2 0 -11 -8
-20 -18z"/>
<path d="M5110 2880 c0 -5 5 -10 11 -10 5 0 7 5 4 10 -3 6 -8 10 -11 10 -2 0
-4 -4 -4 -10z"/>
<path d="M4987 2821 c-17 -18 -17 -19 0 -25 9 -4 14 -4 10 0 -4 4 0 16 10 26
21 23 4 22 -20 -1z"/>
<path d="M4820 2782 c0 -5 7 -9 15 -9 8 0 15 4 15 9 0 4 -7 8 -15 8 -8 0 -15
-4 -15 -8z"/>
<path d="M4946 2773 c-6 -14 -5 -15 5 -6 7 7 10 15 7 18 -3 3 -9 -2 -12 -12z"/>
<path d="M4790 2760 c0 -5 5 -10 11 -10 5 0 7 5 4 10 -3 6 -8 10 -11 10 -2 0
-4 -4 -4 -10z"/>
<path d="M4940 2706 c0 -2 7 -7 16 -10 8 -3 12 -2 9 4 -6 10 -25 14 -25 6z"/>
<path d="M4731 2686 c-15 -8 -20 -16 -12 -20 6 -4 11 -2 11 3 0 6 7 11 15 11
8 0 15 5 15 10 0 12 0 12 -29 -4z"/>
<path d="M185 2680 c-3 -5 1 -10 10 -10 9 0 13 5 10 10 -3 6 -8 10 -10 10 -2
0 -7 -4 -10 -10z"/>
<path d="M4760 2665 c-8 -9 -8 -15 -2 -15 12 0 26 19 19 26 -2 2 -10 -2 -17
-11z"/>
<path d="M2714 2626 c-6 -6 -8 -18 -6 -25 3 -10 0 -11 -9 -5 -19 12 -33 12
-41 -1 -5 -6 -18 -4 -38 7 -16 9 -30 13 -30 8 0 -6 5 -10 12 -10 9 0 9 -3 1
-11 -8 -8 -17 -5 -32 10 -12 12 -26 19 -31 16 -6 -4 -28 -7 -50 -7 -29 0 -45
-6 -55 -21 -18 -26 -19 -41 -3 -31 7 4 8 3 4 -5 -6 -9 -11 -9 -22 0 -16 13
-48 4 -39 -11 3 -5 1 -10 -4 -10 -6 0 -11 5 -11 11 0 5 -5 7 -10 4 -8 -5 -7
-12 2 -23 11 -13 11 -14 -1 -11 -8 3 -23 -3 -33 -13 -26 -26 -22 -31 8 -11 26
17 27 17 13 -4 -7 -12 -18 -21 -23 -20 -6 1 -10 -6 -10 -16 2 -14 -1 -15 -13
-6 -10 9 -11 14 -2 19 7 5 7 10 1 14 -5 3 -16 -1 -23 -10 -10 -12 -10 -17 0
-23 9 -6 7 -10 -9 -14 -17 -4 -20 -9 -12 -24 5 -10 7 -24 5 -30 -3 -7 0 -13 6
-13 6 0 11 5 11 11 0 5 5 7 11 3 7 -4 7 -9 2 -13 -6 -3 -15 -16 -22 -29 -7
-12 -16 -20 -22 -17 -5 4 -9 1 -9 -5 0 -7 -7 -10 -15 -6 -11 4 -15 -1 -15 -19
0 -14 5 -25 11 -25 8 0 8 -5 -1 -15 -7 -8 -10 -16 -6 -16 3 -1 10 -2 15 -3 14
-2 26 -16 14 -16 -6 0 -14 -7 -17 -16 -9 -24 3 -54 18 -48 8 3 16 -4 19 -16 4
-15 2 -20 -8 -16 -17 6 -30 -25 -14 -35 6 -4 8 -12 5 -18 -5 -7 -2 -10 6 -9
17 4 23 -42 6 -54 -9 -6 -6 -7 10 -3 16 5 22 2 22 -10 0 -10 -5 -13 -12 -9 -7
5 -8 3 -4 -5 5 -7 14 -10 22 -7 8 3 11 0 7 -10 -3 -7 0 -14 6 -14 6 0 11 5 11
11 0 5 5 7 11 3 8 -4 8 -9 1 -13 -15 -9 -2 -25 36 -45 30 -15 45 -46 22 -46
-5 0 -10 -4 -10 -10 0 -5 7 -10 15 -10 8 0 15 -5 15 -11 0 -8 4 -8 13 -1 15
12 33 11 62 -5 11 -6 25 -12 30 -13 6 -1 9 -7 7 -12 -2 -6 4 -8 11 -5 8 3 19
1 25 -5 8 -8 9 -4 5 12 -5 21 -3 22 18 17 13 -4 30 -7 37 -7 6 0 12 -4 12 -10
0 -6 -9 -6 -25 0 -19 7 -23 6 -18 -5 5 -14 24 -19 63 -16 10 0 11 -1 3 -5 -7
-3 -13 -9 -13 -14 0 -10 60 6 74 20 16 16 30 12 16 -5 -7 -9 -10 -18 -6 -22 3
-3 6 0 6 7 0 9 5 7 16 -6 14 -18 15 -18 4 4 -12 25 -8 28 46 34 23 3 31 1 27
-9 -3 -7 0 -13 6 -13 6 0 11 -7 11 -15 0 -8 -4 -15 -10 -15 -15 0 -12 -17 4
-23 7 -3 13 0 13 6 -1 43 5 56 33 67 17 7 30 17 30 22 0 6 8 7 17 4 9 -4 20
-1 25 6 6 10 10 10 17 -1 5 -7 14 -10 20 -7 6 4 11 2 11 -4 0 -6 11 -8 24 -6
18 3 23 1 19 -10 -3 -8 -9 -11 -14 -8 -5 3 -9 -2 -9 -10 0 -24 18 -28 25 -6 6
20 8 20 31 6 27 -18 34 -20 34 -7 0 5 -9 11 -20 14 -22 6 -27 32 -8 43 7 5 9
2 5 -9 -3 -9 1 -18 9 -21 28 -11 37 -6 23 10 -12 15 -11 16 7 10 15 -5 24 -2
28 10 4 9 9 14 12 11 3 -3 -4 -24 -17 -47 -20 -35 -21 -43 -9 -50 18 -11 33 9
20 26 -12 14 -2 24 16 17 8 -3 11 -10 8 -15 -4 -6 3 -5 15 1 11 7 21 17 21 24
0 6 7 2 15 -10 17 -25 60 -39 51 -17 -3 8 -1 14 5 14 6 0 7 5 3 11 -4 8 1 9
17 4 l24 -7 -23 17 c-12 9 -27 13 -32 10 -6 -3 -10 -1 -10 5 0 15 52 8 68 -10
12 -13 13 -13 8 3 -3 9 -1 17 4 17 6 0 10 -5 10 -11 0 -6 7 -9 14 -6 10 4 13
1 9 -9 -6 -15 12 -20 22 -4 3 5 12 7 20 3 8 -3 15 0 15 6 0 6 5 11 11 11 6 0
8 -7 5 -16 -3 -8 -2 -13 3 -9 5 3 11 -1 14 -7 4 -10 7 -11 18 0 9 9 10 12 1
12 -7 0 -12 5 -12 12 0 6 7 4 18 -5 20 -19 52 -23 52 -7 0 6 5 10 11 10 5 0 7
-6 3 -12 -4 -7 3 -3 15 10 23 23 57 31 45 10 -4 -7 2 -4 13 7 11 11 19 22 17
25 -1 3 6 6 16 6 10 0 17 -3 14 -7 -2 -4 5 -5 16 -2 11 3 23 9 26 14 3 5 13 9
22 9 15 0 15 -2 2 -11 -13 -9 -13 -10 0 -6 8 2 14 11 14 20 -1 9 1 15 5 12 31
-19 102 205 103 325 1 68 -10 121 -58 283 -3 11 -21 25 -40 33 -25 10 -32 19
-28 32 4 10 2 13 -3 6 -9 -12 -53 -14 -53 -2 0 4 -3 7 -7 7 -5 -1 -10 -1 -13
1 -3 1 -16 3 -30 5 -50 9 -60 11 -66 18 -4 4 -16 7 -26 7 -10 0 -18 5 -18 11
0 5 -5 7 -12 3 -15 -9 -69 -9 -93 0 -10 3 -25 1 -33 -6 -13 -11 -14 -11 -7 2
8 12 5 12 -16 -2 -24 -15 -26 -15 -37 0 -9 13 -14 14 -18 5 -3 -7 -12 -13 -20
-13 -9 0 -13 4 -10 8 3 5 -1 9 -9 9 -8 0 -12 -4 -9 -9 7 -10 8 -10 -48 6 -38
12 -46 12 -42 1 3 -7 1 -16 -4 -19 -5 -3 -12 2 -14 12 -5 17 -14 18 -72 13 -4
-1 -5 -9 -2 -18 6 -16 6 -16 -12 0 -22 20 -38 22 -49 4 -10 -17 -43 -29 -43
-16 0 6 -4 7 -10 4 -6 -4 -7 1 -3 11 5 14 3 15 -16 5 -12 -7 -26 -9 -31 -6 -6
4 -7 -1 -3 -11 5 -14 3 -15 -15 -5 -12 7 -22 17 -22 24 0 8 -3 8 -9 -2 -6 -9
-11 -10 -15 -2 -10 16 -26 13 -26 -4 0 -13 -4 -12 -22 5 -24 22 -38 26 -38 10
0 -5 5 -10 12 -10 6 0 8 -3 5 -6 -4 -4 -12 -2 -19 4 -7 6 -17 10 -21 10 -5 0
-12 4 -15 8 -4 4 -1 4 6 0 6 -4 12 -3 12 3 0 16 -14 20 -26 7z m-214 -41 c0
-8 -7 -15 -16 -15 -8 0 -12 -4 -9 -10 3 -6 -1 -7 -9 -4 -28 11 -12 32 32 43 1
1 2 -6 2 -14z m184 -16 c-3 -5 -10 -7 -15 -3 -5 3 -7 10 -3 15 3 5 10 7 15 3
5 -3 7 -10 3 -15z m451 11 c3 -6 -1 -7 -9 -4 -18 7 -21 14 -7 14 6 0 13 -4 16
-10z m-400 -60 c-3 -5 -21 -10 -38 -9 -27 0 -29 2 -12 9 28 12 57 12 50 0z
m-315 -30 c0 -5 -8 -10 -17 -10 -15 0 -16 2 -3 10 19 12 20 12 20 0z m998 4
c-15 -14 -365 -24 -618 -17 l-275 8 400 5 c220 3 422 6 449 8 27 1 47 -1 44
-4z m237 -20 c44 -1 91 -3 105 -4 23 0 27 -8 54 -102 42 -151 42 -193 4 -323
l-33 -110 -50 -1 c-27 0 -75 -2 -105 -4 -51 -2 -52 -3 -20 -9 21 -5 -8 -7 -75
-8 -94 0 -100 1 -45 7 74 7 104 21 122 53 14 25 24 330 13 403 -8 59 -39 92
-95 104 l-45 9 45 -5 c25 -3 81 -8 125 -10z m-1155 -14 c-31 -31 -35 -62 -35
-265 0 -206 6 -237 55 -263 23 -12 21 -12 -25 -7 -84 10 -94 14 -110 45 -43
83 -45 358 -4 463 12 29 48 44 107 46 32 1 32 1 12 -19z m934 -5 c3 -8 1 -15
-3 -15 -5 0 -11 7 -15 15 -3 8 -1 15 3 15 5 0 11 -7 15 -15z m-809 -4 c-6 -5
-36 -11 -68 -13 -48 -2 -55 -1 -40 10 19 14 122 17 108 3z m699 -6 c3 -10 -1
-15 -13 -15 -10 0 -24 7 -31 15 -11 13 -9 15 13 15 14 0 27 -7 31 -15z m-1054
-35 c0 -5 -2 -10 -4 -10 -3 0 -8 5 -11 10 -3 6 -1 10 4 10 6 0 11 -4 11 -10z
m1144 -21 c12 -20 16 -41 12 -60 -3 -16 0 -41 6 -57 l11 -27 7 25 c5 16 8 -4
9 -60 1 -93 8 -133 22 -124 5 3 32 9 59 13 l50 8 0 -43 c0 -46 -19 -101 -29
-85 -4 5 -27 15 -52 22 -43 11 -48 11 -69 -9 -13 -12 -18 -22 -12 -22 14 0 16
-26 3 -34 -13 -9 -63 12 -57 23 3 5 -11 12 -32 15 -72 13 -70 11 -68 82 1 36
-1 67 -6 70 -4 3 -8 34 -8 70 0 61 9 91 38 122 16 18 15 27 -3 46 -18 18 -7
27 23 19 21 -5 22 -10 22 -136 0 -139 7 -168 11 -50 3 63 5 70 20 63 12 -7 22
-4 34 10 10 12 13 20 7 20 -8 0 -12 21 -12 57 0 42 -3 54 -11 46 -12 -12 -8
-74 6 -107 6 -14 4 -17 -11 -14 -15 2 -20 13 -22 52 -6 95 17 124 52 65z
m-752 -71 c3 -54 -3 -61 -20 -23 -15 33 -15 61 0 88 14 25 14 25 20 -65z
m-132 5 c0 -7 -4 -13 -10 -13 -5 0 -10 -8 -10 -17 0 -14 2 -15 9 -4 6 9 10 0
13 -28 4 -42 -2 -52 -34 -64 -16 -6 -18 1 -18 66 0 40 3 83 7 96 l6 24 18 -24
c10 -13 19 -30 19 -36z m7 -259 c-1 0 -14 -4 -29 -8 -27 -6 -28 -5 -28 34 l0
41 30 -32 c16 -18 28 -34 27 -35z m143 -79 c11 -13 10 -15 -4 -9 -38 15 -58
95 -33 134 11 18 13 13 18 -44 3 -36 11 -72 19 -81z m37 -28 c8 -8 -49 -15
-104 -12 -29 1 -64 3 -78 4 -14 0 -25 5 -25 11 0 10 197 7 207 -3z m640 -13
c-3 -3 -12 -4 -19 -1 -8 3 -5 6 6 6 11 1 17 -2 13 -5z m-928 -43 c-6 -2 -21 6
-33 19 l-21 21 32 -18 c18 -10 28 -20 22 -22z m931 20 c43 -6 -59 -9 -297 -9
-200 0 -363 4 -363 8 0 11 577 11 660 1z m-620 -41 c0 -5 -14 -7 -32 -3 -46 8
-48 13 -5 13 21 0 37 -4 37 -10z m-328 -42 c-7 -7 -12 -8 -12 -2 0 6 3 14 7
17 3 4 9 5 12 2 2 -3 -1 -11 -7 -17z m268 -1 c0 -2 -8 -12 -19 -21 -16 -15
-19 -15 -24 -2 -4 10 -1 13 7 10 8 -3 17 -1 21 5 6 11 15 15 15 8z m-180 -17
c0 -5 -2 -10 -4 -10 -3 0 -8 5 -11 10 -3 6 -1 10 4 10 6 0 11 -4 11 -10z m357
-15 c0 -8 -6 -15 -14 -15 -17 0 -17 17 0 23 6 3 12 6 13 6 0 1 1 -6 1 -14z
m-147 -10 c-7 -9 -15 -13 -19 -10 -3 3 1 10 9 15 21 14 24 12 10 -5z m492 8
c-6 -2 -10 -9 -6 -14 3 -5 1 -9 -5 -9 -5 0 -12 4 -15 9 -6 9 10 19 29 19 6 0
4 -2 -3 -5z"/>
<path d="M3292 2065 c0 -16 2 -22 5 -12 2 9 2 23 0 30 -3 6 -5 -1 -5 -18z"/>
<path d="M4619 2623 c15 -30 30 -38 44 -23 9 10 9 11 -1 6 -7 -5 -21 2 -33 16
-19 22 -20 22 -10 1z"/>
<path d="M4680 2629 c0 -5 5 -7 10 -4 6 3 10 8 10 11 0 2 -4 4 -10 4 -5 0 -10
-5 -10 -11z"/>
<path d="M4690 2595 c-13 -14 -19 -25 -14 -25 8 1 50 50 41 50 -2 0 -14 -11
-27 -25z"/>
<path d="M2975 2600 c3 -5 10 -10 16 -10 5 0 9 5 9 10 0 6 -7 10 -16 10 -8 0
-12 -4 -9 -10z"/>
<path d="M4774 2590 c0 -13 4 -16 10 -10 7 7 7 13 0 20 -6 6 -10 3 -10 -10z"/>
<path d="M3867 2583 c-4 -3 -7 -11 -7 -17 0 -6 5 -5 12 2 6 6 9 14 7 17 -3 3
-9 2 -12 -2z"/>
<path d="M4565 2530 c-3 -5 -1 -10 4 -10 6 0 11 5 11 10 0 6 -2 10 -4 10 -3 0
-8 -4 -11 -10z"/>
<path d="M4520 2520 c20 -13 33 -13 25 0 -3 6 -14 10 -23 10 -15 0 -15 -2 -2
-10z"/>
<path d="M4422 2488 c-16 -16 -15 -25 2 -31 8 -3 16 2 19 14 6 23 -6 32 -21
17z"/>
<path d="M2246 2474 c-5 -14 -4 -15 9 -4 17 14 19 20 6 20 -5 0 -12 -7 -15
-16z"/>
<path d="M3965 2480 c-3 -5 -1 -10 4 -10 6 0 11 5 11 10 0 6 -2 10 -4 10 -3 0
-8 -4 -11 -10z"/>
<path d="M5985 2430 c-3 -5 -1 -10 4 -10 6 0 11 5 11 10 0 6 -2 10 -4 10 -3 0
-8 -4 -11 -10z"/>
<path d="M4575 2400 c-10 -11 -15 -20 -11 -20 11 0 39 30 34 36 -3 2 -13 -5
-23 -16z"/>
<path d="M4380 2400 c0 -5 5 -10 11 -10 5 0 7 5 4 10 -3 6 -8 10 -11 10 -2 0
-4 -4 -4 -10z"/>
<path d="M4120 2391 c0 -6 4 -13 10 -16 6 -3 7 1 4 9 -7 18 -14 21 -14 7z"/>
<path d="M5938 2390 c6 -8 12 -22 12 -32 0 -18 -33 -42 -44 -31 -3 3 -6 -1 -6
-10 0 -28 24 -19 65 23 33 33 36 40 21 46 -9 4 -20 4 -23 0 -3 -3 -13 0 -22 6
-13 10 -14 10 -3 -2z"/>
<path d="M1290 2386 c0 -2 7 -6 15 -10 8 -3 15 -1 15 4 0 6 -7 10 -15 10 -8 0
-15 -2 -15 -4z"/>
<path d="M2212 2368 c-16 -16 -15 -35 1 -44 6 -4 9 -3 4 1 -4 5 0 16 9 26 17
19 4 35 -14 17z"/>
<path d="M5964 2278 c-16 -17 -23 -27 -15 -23 10 5 12 4 7 -4 -4 -6 -11 -9
-15 -6 -11 6 -317 -303 -313 -316 1 -6 -1 -8 -6 -5 -5 3 -35 -22 -67 -54 -33
-33 -54 -60 -48 -60 6 0 13 6 15 12 3 7 7 3 10 -9 4 -16 2 -20 -9 -16 -10 4
-13 0 -11 -12 2 -10 -4 -20 -12 -22 -12 -4 -12 -2 -2 5 10 7 10 11 -2 21 -11
9 -16 9 -22 -1 -11 -17 -14 -39 -6 -34 4 2 13 -2 20 -10 11 -12 10 -14 -5 -14
-12 0 -14 -3 -6 -11 13 -13 6 -39 -9 -39 -5 0 -6 5 -2 12 4 7 3 8 -4 4 -6 -4
-18 5 -26 21 -8 15 -15 21 -15 13 -1 -25 11 -60 18 -56 4 3 13 1 21 -5 13 -7
12 -9 -2 -9 -10 0 -18 -4 -18 -10 0 -5 -6 -7 -14 -4 -8 3 -12 13 -9 23 5 21
-22 48 -32 31 -3 -5 1 -10 9 -10 12 0 14 -5 6 -25 -6 -16 -6 -26 1 -31 6 -4 2
-12 -10 -21 -22 -15 -28 -33 -10 -33 5 0 7 5 4 10 -3 6 -1 10 4 10 6 0 11 -9
11 -21 0 -14 -5 -19 -15 -16 -8 4 -17 2 -20 -3 -4 -6 -1 -10 6 -10 8 0 7 -5
-3 -17 -9 -10 -13 -25 -10 -33 3 -11 2 -12 -8 -4 -15 14 -47 7 -54 -12 -5 -12
-2 -12 17 -3 19 11 20 10 10 -3 -9 -10 -9 -18 -2 -25 14 -14 2 -38 -27 -53
-16 -9 -20 -16 -13 -21 6 -4 8 -12 5 -18 -4 -6 -2 -11 4 -11 6 0 4 -10 -5 -24
-12 -18 -13 -26 -4 -32 7 -4 9 -3 5 4 -10 16 14 26 27 12 7 -8 8 -11 1 -7 -16
9 -12 -67 6 -88 8 -9 15 -23 16 -31 1 -7 14 -24 29 -38 15 -14 24 -29 21 -35
-4 -5 4 -11 16 -13 13 -2 23 -9 23 -16 0 -7 9 -18 20 -25 69 -41 85 -53 80
-65 -7 -20 4 -35 18 -24 7 5 23 6 36 3 22 -6 23 -8 8 -23 -21 -20 -22 -35 -2
-18 11 9 19 8 39 -7 14 -10 23 -24 21 -30 -6 -18 20 -16 39 2 14 14 18 14 45
0 17 -8 41 -15 55 -15 24 0 76 18 86 30 3 4 33 24 68 45 53 32 62 42 62 67 0
21 -4 27 -12 22 -10 -6 -9 -3 0 8 10 12 13 47 11 122 -2 88 -6 109 -21 123
-10 9 -18 21 -18 26 0 6 9 2 19 -7 19 -18 20 -15 21 213 0 127 -2 231 -5 231
-4 0 -32 -22 -63 -49 -31 -27 -97 -77 -147 -112 -49 -35 -108 -80 -131 -101
-23 -21 -44 -35 -48 -31 -4 4 -4 0 -1 -9 4 -9 2 -19 -4 -23 -17 -10 -13 -58 6
-85 69 -102 277 -297 325 -307 l28 -6 -53 -41 c-30 -23 -52 -46 -50 -52 2 -5
-10 -17 -27 -27 -29 -17 -30 -17 -67 6 -21 13 -71 43 -111 66 -82 48 -111 82
-180 214 l-42 81 39 36 c22 19 55 53 73 75 l33 40 -55 -47 c-30 -26 -67 -60
-83 -74 -48 -47 -40 -19 16 52 30 38 61 82 69 98 9 17 29 33 49 40 57 20 235
136 335 219 l94 77 0 57 0 58 -102 -100 -103 -100 103 106 103 105 -1 192 c-1
106 -3 192 -4 192 -1 0 -15 -14 -32 -32z m-214 -278 c-14 -10 -27 -16 -30 -14
-2 3 6 14 20 24 14 10 27 16 30 14 2 -3 -6 -14 -20 -24z m-55 -19 c-3 -6 -11
-11 -17 -11 -6 0 -6 6 2 15 14 17 26 13 15 -4z m-45 -100 c0 -5 -9 -11 -21
-14 -16 -4 -18 -3 -8 9 13 16 29 19 29 5z m-70 -20 c0 -5 -7 -12 -16 -15 -14
-5 -15 -4 -4 9 14 17 20 19 20 6z m65 -20 c-3 -6 -11 -8 -17 -5 -6 4 -5 9 3
15 16 10 23 4 14 -10z m-71 -32 c-6 -11 -24 -2 -24 11 0 5 7 7 15 4 8 -4 12
-10 9 -15z m-29 -59 c3 -5 1 -10 -4 -10 -6 0 -11 5 -11 10 0 6 2 10 4 10 3 0
8 -4 11 -10z m313 -286 l54 -50 -20 -32 c-17 -29 -21 -31 -32 -17 -17 21 -90
58 -98 51 -3 -3 -13 1 -23 10 -16 14 -15 17 19 49 33 30 35 34 22 51 -14 18
-14 18 5 4 11 -8 44 -38 73 -66z m-543 -92 c-3 -3 -11 0 -18 7 -9 10 -8 11 6
5 10 -3 15 -9 12 -12z m535 -37 c10 -12 10 -15 -2 -15 -15 0 -68 50 -68 64 0
9 52 -27 70 -49z m112 13 c-8 -8 -9 -4 -5 13 4 13 8 18 11 10 2 -7 -1 -18 -6
-23z m-645 -10 c-3 -8 -6 -5 -6 6 -1 11 2 17 5 13 3 -3 4 -12 1 -19z m28 -98
c3 -5 1 -10 -4 -10 -6 0 -11 5 -11 10 0 6 2 10 4 10 3 0 8 -4 11 -10z"/>
<path d="M1140 2219 c0 -5 5 -7 10 -4 6 3 10 8 10 11 0 2 -4 4 -10 4 -5 0 -10
-5 -10 -11z"/>
<path d="M1118 2193 c6 -2 18 -2 25 0 6 3 1 5 -13 5 -14 0 -19 -2 -12 -5z"/>
<path d="M1130 2170 c-9 -6 -10 -10 -3 -10 6 0 15 5 18 10 8 12 4 12 -15 0z"/>
<path d="M5751 2173 c4 -24 -4 -35 -31 -44 -29 -10 -38 -28 -23 -43 9 -8 83
64 83 81 0 7 -7 13 -15 13 -8 0 -14 -3 -14 -7z"/>
<path d="M1040 2121 c0 -6 4 -13 10 -16 6 -3 7 1 4 9 -7 18 -14 21 -14 7z"/>
<path d="M1053 2073 c-10 -10 -13 -14 -5 -9 9 6 16 6 21 -2 4 -8 11 -5 19 8
16 26 -7 28 -35 3z"/>
<path d="M5670 2064 c0 -8 5 -12 10 -9 6 3 10 10 10 16 0 5 -4 9 -10 9 -5 0
-10 -7 -10 -16z"/>
<path d="M996 2043 c-6 -16 9 -33 29 -33 6 1 2 5 -8 11 -14 8 -16 14 -6 25 7
8 7 14 1 14 -5 0 -13 -8 -16 -17z"/>
<path d="M1069 1923 c-13 -16 -12 -17 4 -4 9 7 17 15 17 17 0 8 -8 3 -21 -13z"/>
<path d="M2274 1905 c-10 -8 -14 -15 -8 -15 6 0 17 7 24 15 16 19 9 19 -16 0z"/>
<path d="M4720 1900 c-9 -6 -10 -10 -3 -10 6 0 15 5 18 10 8 12 4 12 -15 0z"/>
<path d="M2295 1889 c-11 -16 -1 -19 13 -3 7 8 8 14 3 14 -5 0 -13 -5 -16 -11z"/>
<path d="M910 1876 c0 -2 7 -7 16 -10 8 -3 12 -2 9 4 -6 10 -25 14 -25 6z"/>
<path d="M4725 1870 c-8 -13 9 -20 24 -11 10 6 9 10 -3 14 -8 3 -18 2 -21 -3z"/>
<path d="M5460 1860 c0 -5 5 -10 10 -10 6 0 10 5 10 10 0 6 -4 10 -10 10 -5 0
-10 -4 -10 -10z"/>
<path d="M5423 1818 c-2 -16 1 -17 13 -8 17 15 17 17 1 23 -8 3 -14 -3 -14
-15z"/>
<path d="M730 1822 c0 -4 5 -13 12 -20 9 -9 9 -12 0 -12 -7 0 -12 -7 -12 -15
0 -8 4 -15 9 -15 11 0 24 48 16 60 -7 12 -25 13 -25 2z"/>
<path d="M4790 1821 c0 -6 4 -13 10 -16 6 -3 7 1 4 9 -7 18 -14 21 -14 7z"/>
<path d="M2363 1805 c0 -8 7 -15 15 -15 12 0 12 3 2 15 -7 8 -13 15 -15 15 -1
0 -2 -7 -2 -15z"/>
<path d="M2450 1808 c0 -6 -8 -21 -17 -32 -15 -18 -14 -18 8 2 14 12 30 19 34
15 5 -5 3 0 -4 10 -16 20 -21 21 -21 5z"/>
<path d="M4825 1799 c-4 -6 -5 -12 -2 -15 2 -3 7 2 10 11 7 17 1 20 -8 4z"/>
<path d="M5300 1799 c0 -5 5 -7 10 -4 6 3 10 8 10 11 0 2 -4 4 -10 4 -5 0 -10
-5 -10 -11z"/>
<path d="M2950 1770 c0 -15 7 -33 15 -40 10 -9 15 -9 15 -1 0 6 -4 11 -9 11
-5 0 -7 10 -3 22 3 12 7 17 10 10 2 -6 8 -12 13 -12 16 0 -2 28 -22 33 -15 4
-19 0 -19 -23z"/>
<path d="M2906 1775 c4 -8 1 -15 -5 -15 -6 0 -11 5 -11 11 0 5 -5 7 -11 3 -8
-5 -8 -9 1 -14 7 -5 9 -13 5 -21 -5 -8 1 -6 13 4 12 12 26 16 34 11 10 -6 11
-5 1 8 -7 8 -10 18 -6 21 3 4 -1 7 -10 7 -10 0 -14 -5 -11 -15z"/>
<path d="M3306 1754 c-9 -24 -2 -26 12 -4 7 11 8 20 3 20 -5 0 -12 -7 -15 -16z"/>
<path d="M2607 1743 c-4 -3 -7 -11 -7 -17 0 -6 5 -5 12 2 6 6 9 14 7 17 -3 3
-9 2 -12 -2z"/>
<path d="M5259 1732 l-22 -19 23 2 c13 1 24 9 26 18 3 21 1 21 -27 -1z"/>
<path d="M2550 1730 c0 -5 5 -10 11 -10 5 0 7 5 4 10 -3 6 -8 10 -11 10 -2 0
-4 -4 -4 -10z"/>
<path d="M5445 1730 c3 -5 8 -10 11 -10 2 0 4 5 4 10 0 6 -5 10 -11 10 -5 0
-7 -4 -4 -10z"/>
<path d="M2763 1702 c-1 -22 0 -24 9 -8 6 10 6 22 2 26 -5 5 -10 -3 -11 -18z"/>
<path d="M3035 1720 c3 -5 8 -10 11 -10 2 0 4 5 4 10 0 6 -5 10 -11 10 -5 0
-7 -4 -4 -10z"/>
<path d="M641 1699 c-10 -18 -10 -20 1 -17 7 3 18 -2 24 -10 9 -12 11 -11 9 7
-2 34 -19 43 -34 20z"/>
<path d="M2725 1710 c-3 -5 -1 -10 4 -10 6 0 11 5 11 10 0 6 -2 10 -4 10 -3 0
-8 -4 -11 -10z"/>
<path d="M5196 1695 c4 -8 10 -12 15 -9 14 8 10 24 -6 24 -9 0 -12 -6 -9 -15z"/>
<path d="M5164 1691 c4 -5 1 -12 -4 -14 -6 -3 -5 -4 2 -3 15 3 23 26 8 26 -6
0 -9 -4 -6 -9z"/>
<path d="M2480 1665 c-7 -9 -8 -15 -2 -15 5 0 12 7 16 15 3 8 4 15 2 15 -2 0
-9 -7 -16 -15z"/>
<path d="M2886 1663 c-6 -14 -5 -15 5 -6 7 7 10 15 7 18 -3 3 -9 -2 -12 -12z"/>
<path d="M703 1651 c0 -11 5 -18 9 -15 4 3 5 11 1 19 -7 21 -12 19 -10 -4z"/>
<path d="M2560 1635 c-7 -8 -9 -15 -6 -15 4 0 14 7 22 15 9 8 11 15 6 15 -5 0
-15 -7 -22 -15z"/>
<path d="M2657 1633 c6 -25 -11 -32 -21 -8 -3 8 -11 15 -18 15 -10 0 -10 -2 1
-9 7 -5 9 -11 5 -13 -19 -10 -97 -8 -110 3 -8 6 -37 13 -65 14 -28 2 -47 0
-41 -4 7 -4 5 -13 -5 -26 -11 -14 -17 -16 -20 -7 -8 21 -21 13 -28 -18 -4 -16
-11 -32 -16 -35 -5 -4 -6 2 -2 12 5 14 0 13 -22 -7 -16 -14 -25 -19 -21 -12 4
7 1 12 -8 12 -9 0 -16 -6 -16 -14 0 -8 -11 -17 -25 -20 -14 -4 -25 -13 -25
-22 0 -9 -5 -12 -12 -8 -9 5 -9 2 1 -9 12 -15 11 -17 -3 -17 -10 0 -15 -4 -12
-8 3 -5 -2 -9 -10 -9 -8 0 -13 6 -10 14 3 8 -9 3 -27 -11 -17 -13 -50 -33 -72
-45 -22 -12 -34 -21 -27 -21 6 0 12 -5 12 -11 0 -5 -4 -8 -9 -5 -5 4 -12 0
-14 -6 -4 -9 -6 -9 -6 2 -1 8 -48 -32 -106 -90 -74 -74 -101 -107 -92 -113 8
-6 7 -7 -4 -4 -19 6 -184 -154 -172 -168 4 -4 3 -5 -3 -2 -14 8 -80 -61 -87
-91 -4 -18 -2 -22 9 -18 8 3 14 0 14 -5 0 -6 -9 -9 -20 -6 -24 6 -38 -12 -19
-25 11 -8 11 -9 -2 -5 -9 3 -29 -6 -45 -19 -21 -18 -23 -22 -7 -15 29 15 33
14 33 -6 0 -14 -2 -15 -9 -4 -7 11 -10 11 -17 0 -12 -20 -14 -38 -3 -45 12 -7
-9 -27 -50 -48 -29 -15 -32 -21 -28 -51 2 -18 8 -38 11 -44 4 -6 2 -11 -3 -11
-6 0 -11 -6 -11 -14 0 -8 -5 -18 -12 -22 -6 -4 -8 -3 -5 2 3 6 1 16 -4 24 -8
13 -10 13 -18 1 -20 -31 1 -72 75 -148 68 -69 73 -77 59 -93 -8 -9 -15 -23
-15 -32 0 -16 -47 -64 -55 -56 -3 3 -41 -31 -84 -76 l-79 -80 26 -32 c15 -18
35 -36 45 -39 9 -4 15 -10 12 -14 -2 -5 92 -9 210 -9 150 -1 216 2 221 10 4 7
3 8 -4 4 -7 -4 -12 -3 -12 2 0 6 7 12 15 16 13 5 20 -5 16 -26 0 -5 31 -8 70
-8 47 0 68 3 64 11 -4 6 2 5 13 -2 18 -11 24 -10 42 6 11 10 23 15 27 11 4 -4
1 -12 -7 -17 -12 -8 -11 -9 5 -7 11 2 26 10 33 18 12 13 13 13 8 -3 -3 -11 -2
-16 4 -12 6 3 10 12 10 19 0 21 30 74 45 80 8 3 17 0 21 -6 4 -7 3 -8 -4 -4
-6 4 -18 -5 -28 -18 -15 -24 -15 -27 0 -42 16 -15 18 -15 37 2 15 13 16 19 7
26 -9 5 -7 8 7 8 27 0 100 74 90 91 -6 8 -4 10 4 4 17 -10 91 62 92 90 0 12 3
15 6 7 6 -15 343 315 343 336 0 6 4 12 8 12 5 0 19 9 32 20 22 19 21 33 -1 36
-5 1 -13 2 -19 3 -5 0 -7 8 -3 17 3 9 9 12 12 7 3 -4 14 -14 23 -22 16 -12 22
-9 53 22 36 36 48 60 18 36 -10 -8 -14 -9 -10 -2 4 6 3 14 -3 18 -9 6 -15 -8
-11 -29 2 -11 -19 -36 -31 -36 -5 0 -6 5 -2 12 4 6 -2 17 -12 25 -14 11 -15
14 -4 13 29 -4 40 0 40 14 0 8 12 17 28 19 l27 4 -26 2 c-34 1 -57 27 -40 44
10 9 11 8 6 -5 -5 -13 -2 -18 10 -18 11 0 15 6 10 19 -7 23 4 53 17 45 5 -3 4
-13 -4 -22 -10 -14 -10 -15 2 -5 18 17 33 17 24 1 -6 -9 -3 -9 9 1 13 10 14
18 6 32 -5 11 -7 24 -4 29 3 5 -7 7 -22 4 l-28 -5 34 35 35 36 29 -28 29 -27
-21 35 c-23 39 -28 65 -7 37 14 -18 14 -18 21 2 4 13 12 18 23 15 14 -5 15 -4
2 5 -8 6 -12 11 -7 12 4 1 12 3 17 4 6 1 15 3 21 4 5 0 7 6 3 12 -5 8 -9 8
-14 -1 -6 -9 -9 -9 -16 1 -4 7 -3 14 4 17 7 2 12 11 12 20 0 15 -2 15 -10 2
-5 -8 -10 -12 -10 -7 0 4 12 26 27 50 l26 42 -38 72 c-21 39 -37 74 -36 77 0
3 -7 14 -16 24 -16 17 -56 84 -54 90 2 5 -45 47 -54 48 -5 1 -14 2 -19 3 -6 0
-1 7 9 15 18 13 18 14 -8 9 -30 -6 -32 -2 -16 30 9 20 9 20 -4 5 -14 -18 -43
-26 -33 -9 4 5 1 11 -6 13 -9 3 -8 9 5 22 21 21 22 27 3 20 -8 -3 -17 -12 -20
-19 -5 -15 -46 -9 -46 7 0 5 -4 7 -9 3 -5 -3 -12 -1 -15 4 -3 4 -19 11 -36 15
-20 3 -29 10 -24 17 5 8 9 8 14 -1 4 -7 13 -9 19 -5 7 4 18 1 26 -5 12 -10 15
-9 15 4 0 9 3 15 8 15 20 -3 32 2 27 12 -4 6 -9 8 -13 5 -3 -3 -11 2 -18 12
-12 15 -12 15 -7 -5z m-147 -23 c0 -5 -5 -10 -11 -10 -5 0 -7 5 -4 10 3 6 8
10 11 10 2 0 4 -4 4 -10z m79 -83 c-2 -2 -17 -11 -34 -21 l-30 -17 24 20 c13
12 28 21 34 21 6 0 8 -1 6 -3z m-339 -27 c0 -5 -5 -10 -11 -10 -5 0 -7 5 -4
10 3 6 8 10 11 10 2 0 4 -4 4 -10z m-103 -92 c-3 -8 -6 -5 -6 6 -1 11 2 17 5
13 3 -3 4 -12 1 -19z m-32 -18 c3 -5 -1 -10 -9 -10 -10 0 -13 -6 -9 -17 6 -16
5 -16 -10 -5 -8 8 -13 20 -10 28 6 16 29 19 38 4z m-35 -44 c0 -2 -9 -6 -20
-9 -11 -3 -18 -1 -14 4 5 9 34 13 34 5z m-90 -47 c-7 -11 -14 -18 -17 -15 -3
3 0 12 7 21 18 21 23 19 10 -6z m384 -40 c38 -22 42 -29 26 -45 -7 -7 -4 -16
8 -27 17 -15 21 -16 31 -3 10 12 22 4 70 -48 51 -55 80 -101 69 -111 -1 -1
-25 -14 -53 -28 -41 -20 -60 -24 -102 -20 -32 3 -50 10 -46 16 3 5 0 7 -8 5
-8 -3 -13 -11 -11 -17 1 -6 -3 -11 -9 -11 -7 0 -9 9 -5 23 18 63 18 78 0 98
-17 19 -17 20 0 13 16 -6 17 -4 7 14 -7 12 -19 22 -27 22 -9 0 -12 -5 -8 -12
4 -7 -6 -1 -23 15 -16 15 -38 27 -48 27 -17 0 -17 3 7 27 26 26 28 26 46 9 16
-14 20 -14 25 -3 3 8 0 20 -6 27 -9 10 -9 14 0 17 7 2 9 11 6 19 -7 20 10 18
51 -7z m-379 -29 c-3 -5 -11 -10 -16 -10 -6 0 -7 5 -4 10 3 6 11 10 16 10 6 0
7 -4 4 -10z m-55 -50 c0 -5 -5 -10 -11 -10 -5 0 -7 5 -4 10 3 6 8 10 11 10 2
0 4 -4 4 -10z m1010 -19 c0 -5 -8 -17 -17 -28 -10 -10 -15 -14 -10 -9 4 6 7
18 7 28 0 10 5 18 10 18 6 0 10 -4 10 -9z m-710 -30 c-13 -11 -29 -17 -34 -14
-11 8 22 33 43 33 11 0 9 -6 -9 -19z m595 -91 c-16 -16 -31 -27 -34 -24 -5 4
48 53 58 54 3 0 -8 -13 -24 -30z m91 -28 c-18 -16 -18 -16 -6 6 6 13 14 21 18
18 3 -4 -2 -14 -12 -24z m-1206 8 c0 -5 -5 -10 -11 -10 -5 0 -7 5 -4 10 3 6 8
10 11 10 2 0 4 -4 4 -10z m1054 -35 c-6 -16 -35 -35 -51 -35 -7 1 47 50 54 50
1 0 0 -7 -3 -15z m-1114 -25 c0 -5 -7 -10 -16 -10 -8 0 -12 5 -9 10 3 6 10 10
16 10 5 0 9 -4 9 -10z m795 -15 c-11 -8 -26 -19 -33 -25 -12 -11 -32 -6 -32 9
0 5 15 13 33 19 46 14 55 14 32 -3z m110 -14 c-3 -6 -11 -8 -17 -5 -6 4 -5 9
3 15 16 10 23 4 14 -10z m140 -32 c-3 -4 -13 -5 -22 -2 -13 5 -15 2 -10 -11 4
-10 3 -15 -3 -11 -6 3 -14 -4 -19 -17 -9 -22 -81 -99 -81 -85 0 3 13 21 29 39
15 18 39 57 52 86 24 53 24 53 41 31 10 -11 16 -25 13 -30z m-1095 1 c0 -11
-2 -20 -4 -20 -2 0 -6 9 -9 20 -3 11 -1 20 4 20 5 0 9 -9 9 -20z m931 3 c13
-16 12 -17 -3 -4 -17 13 -22 21 -14 21 2 0 10 -8 17 -17z m305 -50 c-3 -4 -6
-1 -6 4 0 6 -8 10 -17 8 -29 -4 -40 9 -13 15 24 6 50 -14 36 -27z m-1256 -27
c0 -3 -4 -8 -10 -11 -5 -3 -10 -1 -10 4 0 6 5 11 10 11 6 0 10 -2 10 -4z m200
-5 c0 -5 -9 -19 -21 -32 l-20 -24 17 33 c19 33 24 38 24 23z m751 -24 c-10 -9
-11 -8 -5 6 3 10 9 15 12 12 3 -3 0 -11 -7 -18z m193 -44 c-7 -2 -11 -12 -9
-21 1 -9 0 -11 -2 -4 -4 11 -8 11 -21 0 -10 -7 -6 0 7 15 14 15 27 24 30 21 3
-4 1 -9 -5 -11z m37 -6 c-10 -9 -11 -8 -5 6 3 10 9 15 12 12 3 -3 0 -11 -7
-18z m-1009 -64 c-11 -16 -29 -37 -41 -47 -27 -25 -27 -66 1 -102 l22 -29 -27
24 c-14 13 -29 37 -33 53 -5 27 0 36 42 79 55 56 64 61 36 22z m998 23 c0 -3
-4 -8 -10 -11 -5 -3 -10 -1 -10 4 0 6 5 11 10 11 6 0 10 -2 10 -4z m-1246 -63
c25 -27 50 -64 56 -83 5 -19 17 -46 26 -60 9 -14 -24 15 -74 65 -86 84 -90 90
-75 107 9 10 17 18 19 18 2 0 23 -21 48 -47z m401 -51 c17 -10 14 -11 -22 -12
-33 0 -46 5 -61 25 -12 15 -18 34 -15 46 5 19 8 18 42 -14 20 -19 45 -39 56
-45z m810 48 c-3 -5 -14 -10 -23 -9 -14 0 -13 2 3 9 27 11 27 11 20 0z m-96
-58 c-19 -30 -60 -55 -71 -44 -16 16 -1 31 24 24 17 -4 20 -2 15 12 -4 10 -3
15 3 11 6 -3 10 4 10 16 0 18 3 19 15 9 10 -9 11 -16 4 -28z m61 8 c0 -5 -5
-10 -11 -10 -5 0 -7 5 -4 10 3 6 8 10 11 10 2 0 4 -4 4 -10z m-1227 -40 c-9
-11 -19 -17 -21 -15 -6 6 18 35 29 35 5 0 1 -9 -8 -20z m16 -37 c0 -10 -3 -13
-5 -6 -3 7 -13 9 -22 6 -15 -4 -15 -3 -2 6 22 15 30 14 29 -6z m629 -118 c2
-2 -9 -5 -23 -7 -37 -8 -75 25 -75 64 l0 31 48 -43 c26 -24 48 -44 50 -45z
m-247 18 c13 -16 12 -17 -3 -4 -10 7 -18 15 -18 17 0 8 8 3 21 -13z m66 -19
c-3 -3 -12 -4 -19 -1 -8 3 -5 6 6 6 11 1 17 -2 13 -5z m537 -5 c4 6 12 11 19
11 7 0 5 -7 -5 -16 -17 -17 -38 -12 -38 9 0 8 3 8 9 -2 6 -9 11 -10 15 -2z
m-219 -29 c-3 -5 -20 -19 -38 -31 l-32 -22 29 31 c28 30 55 44 41 22z m-155
-59 c0 -17 -18 -21 -24 -6 -3 9 0 15 9 15 8 0 15 -4 15 -9z m289 0 c9 -6 10
-11 2 -15 -6 -4 -11 -3 -11 3 0 5 -8 12 -17 14 -13 3 -14 5 -3 6 8 0 21 -3 29
-8z m-72 -93 c-3 -8 -6 -5 -6 6 -1 11 2 17 5 13 3 -3 4 -12 1 -19z m-82 -18
c3 -5 -1 -10 -10 -10 -9 0 -13 5 -10 10 3 6 8 10 10 10 2 0 7 -4 10 -10z
m-235 -40 c9 0 34 -18 55 -40 l39 -40 -22 -22 c-12 -12 -22 -17 -22 -11 0 6
-33 43 -72 82 -67 67 -70 71 -33 52 22 -12 47 -21 55 -21z m180 -25 c-7 -9
-15 -13 -17 -11 -7 7 7 26 19 26 6 0 6 -6 -2 -15z m-410 -30 c-7 -9 -15 -13
-19 -10 -3 3 1 10 9 15 21 14 24 12 10 -5z m95 -26 c-5 -7 -11 -6 -20 1 -11 9
-12 15 -2 25 10 11 13 10 20 -1 4 -8 5 -19 2 -25z m58 25 c24 -9 21 -21 -4
-20 -25 1 -33 -12 -19 -34 8 -12 12 -11 32 6 36 32 44 34 45 11 2 -16 0 -18
-6 -8 -7 11 -13 10 -32 -8 -12 -11 -28 -21 -35 -21 -15 0 -26 42 -14 54 13 13
13 29 0 21 -5 -3 -10 -1 -10 5 0 7 6 9 13 6 6 -3 20 -9 30 -12z m224 -46 c-3
-8 -6 -5 -6 6 -1 11 2 17 5 13 3 -3 4 -12 1 -19z m-147 -23 c-7 -8 -18 -15
-24 -15 -6 0 -2 7 8 15 25 19 32 19 16 0z"/>
<path d="M2340 1210 c0 -5 5 -10 11 -10 5 0 7 5 4 10 -3 6 -8 10 -11 10 -2 0
-4 -4 -4 -10z"/>
<path d="M2380 1155 c13 -14 26 -25 28 -25 3 0 -5 11 -18 25 -13 14 -26 25
-28 25 -3 0 5 -11 18 -25z"/>
<path d="M2420 1120 c0 -5 5 -10 10 -10 6 0 10 5 10 10 0 6 -4 10 -10 10 -5 0
-10 -4 -10 -10z"/>
<path d="M2926 1623 c-6 -14 -5 -15 5 -6 7 7 10 15 7 18 -3 3 -9 -2 -12 -12z"/>
<path d="M586 1613 c-6 -14 -5 -15 5 -6 7 7 10 15 7 18 -3 3 -9 -2 -12 -12z"/>
<path d="M2766 1564 c-20 -19 -20 -25 -2 -18 8 3 17 12 20 20 7 18 1 18 -18
-2z"/>
<path d="M2139 1553 c-13 -16 -12 -17 4 -4 9 7 17 15 17 17 0 8 -8 3 -21 -13z"/>
<path d="M5320 1541 c0 -5 5 -13 10 -16 6 -3 10 -2 10 4 0 5 -4 13 -10 16 -5
3 -10 2 -10 -4z"/>
<path d="M2149 1493 c-13 -16 -12 -17 4 -4 9 7 17 15 17 17 0 8 -8 3 -21 -13z"/>
<path d="M450 1479 c0 -5 5 -7 10 -4 6 3 10 8 10 11 0 2 -4 4 -10 4 -5 0 -10
-5 -10 -11z"/>
<path d="M2825 1480 c3 -5 8 -10 11 -10 2 0 4 5 4 10 0 6 -5 10 -11 10 -5 0
-7 -4 -4 -10z"/>
<path d="M661 1428 c-6 -16 -4 -25 5 -31 7 -4 11 -15 8 -25 -5 -14 -4 -15 5
-2 10 14 16 7 12 -13 -1 -5 2 -6 7 -3 5 3 15 -6 22 -19 7 -14 17 -25 21 -25
11 0 94 -82 94 -92 0 -4 3 -8 8 -8 4 0 24 -16 44 -35 38 -37 72 -43 81 -15 5
13 3 13 -12 1 -16 -13 -30 -2 -153 122 -118 117 -135 138 -124 151 10 11 10
16 2 16 -6 0 -15 -10 -20 -22z"/>
<path d="M2098 1433 c7 -3 16 -2 19 1 4 3 -2 6 -13 5 -11 0 -14 -3 -6 -6z"/>
<path d="M1940 1381 c-7 -14 -6 -19 3 -17 21 3 38 17 32 27 -10 15 -23 11 -35
-10z"/>
<path d="M1880 1335 c-7 -9 -10 -18 -7 -22 4 -3 -3 -20 -15 -37 l-22 -31 28
25 c15 13 24 30 21 38 -3 8 0 21 6 28 6 8 9 14 6 14 -2 0 -10 -7 -17 -15z"/>
<path d="M2949 1333 c-13 -16 -12 -17 4 -4 9 7 17 15 17 17 0 8 -8 3 -21 -13z"/>
<path d="M1780 1321 c0 -6 4 -13 10 -16 6 -3 7 1 4 9 -7 18 -14 21 -14 7z"/>
<path d="M1845 1299 c-4 -6 -5 -12 -2 -15 2 -3 7 2 10 11 7 17 1 20 -8 4z"/>
<path d="M604 1268 c-17 -20 -17 -21 -1 -9 16 13 25 7 93 -60 41 -40 74 -68
74 -62 0 6 -7 14 -16 17 -9 4 -14 13 -10 22 4 9 2 12 -5 8 -11 -6 -99 81 -99
98 0 15 -17 8 -36 -14z"/>
<path d="M1815 1240 c3 -5 8 -10 11 -10 2 0 4 5 4 10 0 6 -5 10 -11 10 -5 0
-7 -4 -4 -10z"/>
<path d="M1774 1219 c-3 -6 -2 -15 4 -21 6 -6 12 -6 16 1 4 6 1 11 -6 11 -9 0
-9 3 2 10 9 6 10 10 3 10 -6 0 -15 -5 -19 -11z"/>
<path d="M5307 1199 c7 -7 15 -10 18 -7 3 3 -2 9 -12 12 -14 6 -15 5 -6 -5z"/>
<path d="M1752 1185 c4 -4 -2 -16 -14 -27 -12 -10 -19 -20 -16 -23 2 -3 15 6
27 19 18 19 20 26 9 32 -7 4 -10 4 -6 -1z"/>
<path d="M1650 1120 c0 -5 5 -10 11 -10 5 0 7 5 4 10 -3 6 -8 10 -11 10 -2 0
-4 -4 -4 -10z"/>
<path d="M719 1081 c-35 -22 -68 -36 -72 -32 -4 4 -44 -29 -88 -75 l-81 -82
33 -31 c19 -17 38 -31 42 -31 5 0 5 -6 1 -12 -4 -7 -4 -10 0 -6 4 3 21 2 37
-2 18 -6 41 -5 56 1 28 10 46 3 24 -10 -11 -7 -10 -11 5 -20 18 -10 18 -12 2
-21 -17 -10 -16 -13 8 -38 14 -15 33 -43 41 -62 8 -19 20 -38 25 -41 7 -4 6
-14 -2 -28 -10 -20 -5 -29 53 -89 36 -37 75 -87 87 -112 12 -25 24 -47 26 -49
2 -2 47 38 100 89 72 68 99 88 105 78 6 -9 -18 -40 -81 -103 -79 -79 -111
-119 -81 -100 5 3 13 1 16 -5 4 -6 21 -8 40 -4 31 6 40 1 97 -52 58 -54 57
-52 -12 19 l-74 77 34 37 c19 21 53 57 75 81 l39 42 53 -52 c29 -29 53 -48 53
-43 0 5 -23 32 -50 60 -50 51 -50 52 -31 69 19 17 21 17 48 -1 15 -11 35 -23
43 -27 19 -9 -18 24 -50 45 l-24 16 29 25 29 26 40 -34 c43 -37 59 -43 50 -19
-4 8 -10 15 -15 15 -4 0 -6 6 -3 14 6 15 -28 40 -39 30 -3 -3 -22 -1 -42 6
-26 9 -35 16 -30 27 4 13 3 14 -10 3 -11 -9 -15 -9 -15 0 0 6 -8 10 -17 8 -10
-2 -27 6 -38 18 -11 12 -29 24 -40 26 -11 2 -25 13 -31 26 -11 22 -11 22 -29
2 -14 -15 -21 -17 -32 -9 -7 6 -13 17 -12 23 0 7 2 6 6 -1 2 -7 12 -13 20 -13
13 0 13 3 3 15 -11 13 -11 18 0 28 9 9 11 9 6 0 -3 -6 -2 -14 4 -18 5 -3 10
-1 10 5 0 6 6 8 13 4 6 -4 3 2 -8 13 -18 18 -21 18 -35 4 -17 -19 -53 -25 -43
-7 3 6 0 6 -8 -1 -16 -15 -33 -17 -24 -3 3 6 -1 10 -9 10 -9 0 -16 -4 -16 -10
0 -5 -8 -10 -17 -10 -17 1 -16 2 1 15 10 8 19 24 20 36 1 13 8 23 19 25 20 3
22 -7 5 -24 -8 -8 -8 -12 -1 -12 6 0 14 8 17 17 6 15 8 15 17 3 9 -13 10 -13
7 0 -3 8 -18 20 -34 25 -16 6 -30 16 -32 23 -1 8 2 11 7 8 5 -3 14 1 20 8 8 9
8 17 2 20 -5 3 -12 0 -14 -6 -4 -10 -8 -9 -16 2 -10 14 -16 7 -12 -14 1 -5 -5
-4 -13 4 -10 8 -16 8 -16 2 0 -6 7 -15 17 -20 9 -5 17 -24 18 -41 2 -29 1 -30
-15 -14 -9 10 -13 19 -9 21 17 7 9 21 -17 35 -17 9 -23 17 -15 21 6 4 11 16
11 27 0 10 5 19 10 19 6 0 10 -7 10 -16 0 -8 4 -12 10 -9 14 8 -11 45 -31 45
-14 0 -70 50 -59 53 2 1 -2 12 -11 24 -9 13 -18 21 -20 19 -2 -2 -10 2 -17 10
-7 8 -9 14 -3 14 5 0 11 7 15 15 7 20 9 21 -65 -24z m65 -52 c-8 -14 -21 -11
-21 5 0 8 6 12 14 9 7 -3 10 -9 7 -14z m53 -51 c35 -34 42 -62 18 -72 -8 -3
-15 -12 -15 -21 0 -23 -38 -18 -51 8 l-12 22 23 -20 23 -20 -11 21 c-9 18 -8
27 8 47 17 22 18 26 5 37 -12 10 -15 10 -15 -3 0 -8 -7 -17 -15 -21 -8 -3 -15
-1 -15 5 0 6 -7 9 -15 6 -8 -4 -17 -1 -21 5 -4 7 -3 8 4 4 7 -4 12 -2 12 4 0
7 7 10 15 6 8 -3 14 -2 14 2 -5 31 9 28 48 -10z m57 -170 c16 -11 -6 -10 -23
1 -8 5 -10 14 -5 22 6 10 9 10 12 -1 3 -8 10 -18 16 -22z m85 -101 c8 -11 6
-18 -9 -32 -13 -11 -20 -14 -20 -6 0 8 -7 10 -20 6 -24 -8 -26 2 -3 27 19 21
36 23 52 5z m41 9 c0 -3 -4 -8 -10 -11 -5 -3 -10 -1 -10 4 0 6 5 11 10 11 6 0
10 -2 10 -4z m20 -71 c19 -20 21 -28 11 -38 -9 -9 -14 -9 -20 2 -5 7 -13 11
-19 7 -5 -3 -15 1 -22 9 -10 12 -10 18 0 30 17 20 23 19 50 -10z m-160 11 c0
-2 -8 -10 -17 -17 -16 -13 -17 -12 -4 4 13 16 21 21 21 13z m15 -98 c14 -6 25
-14 24 -17 0 -3 -16 -19 -35 -35 l-35 -29 -35 34 -35 34 37 34 c37 34 38 34
45 13 5 -12 20 -27 34 -34z m75 7 c0 -2 -10 -9 -22 -15 -22 -11 -22 -10 -4 4
21 17 26 19 26 11z"/>
<path d="M0 835 c0 -224 2 -273 13 -269 8 3 14 -2 14 -10 0 -9 -6 -12 -16 -8
-14 5 -14 3 -2 -11 8 -10 9 -17 3 -17 -7 0 -11 -87 -11 -260 l-1 -261 59 2
c58 2 59 3 54 28 -2 14 -1 23 2 19 4 -3 8 -14 9 -25 2 -10 10 -19 19 -21 15
-3 16 1 7 24 -15 37 -6 42 10 4 12 -29 35 -44 24 -16 -3 8 -1 17 4 20 5 3 9
-2 8 -11 -1 -21 33 -30 45 -11 5 8 9 8 9 2 0 -8 37 -12 115 -12 87 -1 114 2
108 11 -4 7 0 6 10 -2 13 -10 20 -11 31 -2 10 8 16 9 21 1 3 -5 11 -10 16 -10
6 0 8 4 5 8 -2 4 4 8 15 8 10 0 19 -4 19 -8 0 -13 55 -9 69 5 11 10 13 9 7 -1
-6 -9 41 -12 221 -12 l228 0 -555 555 c-305 305 -556 555 -557 555 -2 0 -3
-124 -3 -275z m100 -189 c0 -3 -4 -8 -10 -11 -5 -3 -10 -1 -10 4 0 6 5 11 10
11 6 0 10 -2 10 -4z m-27 -142 c10 -20 15 -39 12 -42 -3 -3 -5 0 -5 7 0 7 -4
9 -10 6 -5 -3 -10 -1 -10 4 0 6 -4 11 -10 11 -5 0 -10 -7 -10 -15 0 -8 7 -15
15 -15 14 0 14 -3 0 -31 -19 -35 -40 -34 -40 4 -1 14 3 23 8 20 4 -3 6 -11 3
-19 -3 -8 -1 -14 4 -14 17 0 21 19 8 40 -11 18 -10 23 4 34 12 8 14 16 7 29
-6 9 -6 17 -2 17 4 0 16 -17 26 -36z m109 -6 c-7 -7 -12 -8 -12 -2 0 14 12 26
19 19 2 -3 -1 -11 -7 -17z m112 -87 c-7 -8 -35 9 -29 19 4 6 11 5 20 -3 7 -6
11 -14 9 -16z m-180 -13 c-3 -4 -9 -8 -15 -8 -5 0 -9 4 -9 8 0 5 7 9 15 9 8 0
12 -4 9 -9z m24 -18 c-7 -11 -17 -20 -22 -20 -5 0 -1 9 9 20 10 11 20 20 22
20 2 0 -2 -9 -9 -20z m-84 -6 c23 -23 20 -37 -4 -17 -11 10 -20 21 -20 25 0
12 7 10 24 -8z m-29 -14 c3 -5 1 -10 -4 -10 -6 0 -11 5 -11 10 0 6 2 10 4 10
3 0 8 -4 11 -10z m15 -24 c0 -3 -4 -8 -10 -11 -5 -3 -10 -1 -10 4 0 6 5 11 10
11 6 0 10 -2 10 -4z m80 -19 c0 7 10 12 23 10 23 -2 37 -14 37 -32 0 -6 -3 -6
-8 1 -9 14 -42 26 -42 15 0 -5 7 -12 16 -15 8 -3 12 -11 8 -17 -4 -8 1 -9 17
-5 20 6 21 5 6 -4 -9 -6 -22 -8 -28 -4 -8 4 -9 -1 -5 -17 6 -21 5 -22 -4 -6
-9 14 -9 22 0 33 8 9 9 14 2 14 -6 0 -13 -4 -17 -10 -7 -11 -35 -2 -35 12 0 6
6 5 15 -2 9 -8 15 -9 15 -2 0 6 -4 14 -10 17 -5 3 -10 12 -10 18 0 7 4 6 10
-3 6 -10 10 -11 10 -3z m257 -1 c0 -8 -6 -12 -14 -9 -7 3 -10 9 -7 14 8 14 21
11 21 -5z m-97 0 c0 -3 -4 -8 -10 -11 -5 -3 -10 -1 -10 4 0 6 5 11 10 11 6 0
10 -2 10 -4z m-239 -15 c-11 -7 -8 -14 13 -32 14 -12 26 -27 26 -33 0 -6 -7
-3 -14 6 -15 20 -27 14 -19 -10 4 -14 3 -14 -5 -3 -6 8 -8 19 -6 26 3 6 -2 18
-11 25 -13 11 -13 15 -3 21 7 5 18 9 23 9 6 0 4 -4 -4 -9z m169 -11 c0 -5 -2
-10 -4 -10 -3 0 -8 5 -11 10 -3 6 -1 10 4 10 6 0 11 -4 11 -10z m248 -20 c-7
-11 -17 -20 -22 -20 -5 0 -1 9 9 20 10 11 20 20 22 20 2 0 -2 -9 -9 -20z
m-195 -25 c-3 -9 -8 -14 -10 -11 -3 3 -2 9 2 15 9 16 15 13 8 -4z m111 -11 c4
-10 -5 -27 -24 -46 -29 -29 -32 -30 -44 -12 -12 15 -11 22 3 41 17 24 31 30
31 13 0 -5 7 -10 16 -10 14 0 14 3 4 15 -7 9 -8 15 -2 15 5 0 13 -7 16 -16z
m106 6 c0 -5 -5 -10 -11 -10 -5 0 -7 5 -4 10 3 6 8 10 11 10 2 0 4 -4 4 -10z
m18 -20 c-7 -11 -18 -20 -25 -20 -9 0 -7 6 5 19 23 26 35 26 20 1z m-380 -11
c10 -13 9 -19 -2 -28 -12 -10 -13 -9 -9 8 3 13 1 21 -6 21 -7 0 -9 5 -6 11 4
6 8 9 9 7 1 -2 7 -10 14 -19z m-97 -12 c-10 -9 -11 -8 -5 6 3 10 9 15 12 12 3
-3 0 -11 -7 -18z m223 -14 c9 -23 -11 -14 -28 12 -17 25 -16 25 3 13 11 -7 23
-18 25 -25z m156 8 c0 -4 -7 -8 -15 -8 -16 0 -20 9 -9 20 8 8 24 -1 24 -12z
m144 3 c3 -8 2 -12 -4 -9 -6 3 -10 10 -10 16 0 14 7 11 14 -7z m-30 -2 c2 -4
-5 -9 -17 -9 -17 -2 -19 0 -7 7 18 12 18 12 24 2z m-344 -11 c0 -13 -28 -22
-35 -11 -3 4 1 11 7 13 20 8 28 8 28 -2z m49 -60 c-22 -18 -19 -41 4 -41 8 0
8 3 -1 9 -10 6 -10 10 3 21 13 11 15 10 10 -2 -4 -9 0 -22 8 -29 7 -8 11 -21
9 -29 -4 -11 0 -10 16 3 12 11 18 25 15 34 -5 13 -3 13 15 2 11 -7 19 -16 16
-20 -2 -4 2 -10 8 -13 7 -3 1 -3 -14 0 -21 5 -28 2 -28 -10 0 -9 -8 -16 -20
-16 -11 0 -20 4 -20 10 0 5 -8 7 -17 3 -15 -5 -14 -3 2 10 19 15 19 16 2 17
-10 0 -26 -4 -36 -10 -24 -12 -55 18 -40 40 8 13 10 13 19 0 11 -16 11 -15 15
18 2 18 0 20 -11 11 -18 -15 -18 -5 2 32 l15 31 25 -27 24 -26 -21 -18z m74
56 c3 -7 -6 -23 -18 -35 l-23 -22 2 23 c5 42 28 62 39 34z m-230 -12 c-3 -9
-8 -14 -10 -11 -3 3 -2 9 2 15 9 16 15 13 8 -4z m366 -12 c-8 -9 -15 -11 -17
-4 -2 7 -9 7 -22 -2 -16 -9 -22 -9 -32 2 -10 11 -10 12 -1 7 7 -4 20 -3 28 1
8 5 24 9 36 10 17 2 19 0 8 -14z m-363 -31 c-17 -16 -18 -16 -5 5 7 12 15 20
18 17 3 -2 -3 -12 -13 -22z m444 18 c0 -5 -5 -10 -11 -10 -5 0 -7 5 -4 10 3 6
8 10 11 10 2 0 4 -4 4 -10z m40 -1 c0 -5 -4 -7 -10 -4 -5 3 -10 1 -10 -6 0 -7
-3 -10 -6 -6 -8 7 4 27 17 27 5 0 9 -5 9 -11z m-436 -15 c22 -8 20 -20 -2 -20
-10 0 -19 6 -19 13 0 15 0 15 21 7z m221 -10 c9 3 12 0 8 -10 -3 -8 -11 -12
-17 -9 -6 3 -19 8 -28 11 -10 4 -18 10 -18 16 0 5 9 4 21 -2 11 -7 27 -9 34
-6z m113 -13 c5 -14 -20 -11 -30 4 -5 6 -12 4 -18 -5 -8 -13 -10 -13 -10 1 0
9 3 18 6 22 9 8 47 -8 52 -22z m-68 10 c0 -5 -7 -12 -16 -15 -14 -5 -15 -4 -4
9 14 17 20 19 20 6z m-306 -37 c3 -8 2 -12 -4 -9 -6 3 -10 10 -10 16 0 14 7
11 14 -7z"/>
<path d="M317 205 c-8 -18 11 -31 25 -17 11 11 3 32 -12 32 -4 0 -10 -7 -13
-15z"/>
<path d="M185 160 c-4 -6 -4 -10 -1 -10 2 0 11 -3 20 -6 9 -3 16 -2 16 4 0 14
-28 23 -35 12z"/>
<path d="M150 85 c0 -1 6 -8 14 -14 10 -8 16 -8 25 3 9 11 7 14 -14 14 -14 0
-25 -2 -25 -3z"/>
<path d="M1666 1082 l-19 -27 26 24 c28 26 32 31 20 31 -5 0 -17 -13 -27 -28z"/>
<path d="M1022 1088 c-19 -19 -14 -35 16 -63 15 -14 27 -31 27 -38 0 -6 5 -12
11 -12 14 0 45 -31 38 -38 -3 -3 4 -8 15 -12 12 -3 21 -13 21 -21 0 -8 5 -12
10 -9 6 3 10 0 10 -8 0 -7 11 -20 25 -27 13 -7 24 -16 23 -19 0 -3 0 -13 1
-21 1 -12 3 -13 10 -1 6 9 10 10 16 2 4 -7 1 -19 -7 -28 -11 -14 -11 -16 2 -8
8 5 27 8 42 6 19 -2 30 4 39 21 l12 23 -22 -19 -22 -20 -132 130 c-72 71 -133
130 -136 131 -2 2 4 12 14 23 19 21 7 28 -13 8z"/>
<path d="M5395 1040 c-3 -5 -2 -10 4 -10 5 0 13 5 16 10 3 6 2 10 -4 10 -5 0
-13 -4 -16 -10z"/>
<path d="M1571 989 c-37 -38 -46 -49 -38 -49 2 0 23 20 47 45 24 25 42 45 38
45 -3 0 -24 -19 -47 -41z"/>
<path d="M840 1016 c0 -2 8 -10 18 -17 15 -13 16 -12 3 4 -13 16 -21 21 -21
13z"/>
<path d="M415 940 c21 -22 41 -40 44 -40 3 0 -13 18 -34 40 -21 22 -41 40 -44
40 -3 0 13 -18 34 -40z"/>
<path d="M5495 940 c-3 -5 -2 -10 4 -10 5 0 13 5 16 10 3 6 2 10 -4 10 -5 0
-13 -4 -16 -10z"/>
<path d="M2860 930 c0 -5 7 -10 15 -10 8 0 15 -5 15 -12 0 -6 2 -9 5 -6 3 3 3
13 -1 22 -7 17 -34 22 -34 6z"/>
<path d="M1280 886 c0 -2 8 -10 18 -17 15 -13 16 -12 3 4 -13 16 -21 21 -21
13z"/>
<path d="M2880 886 c0 -2 7 -7 16 -10 8 -3 12 -2 9 4 -6 10 -25 14 -25 6z"/>
<path d="M5745 860 c3 -5 8 -10 11 -10 2 0 4 5 4 10 0 6 -5 10 -11 10 -5 0 -7
-4 -4 -10z"/>
<path d="M1499 843 c-13 -15 -12 -15 9 -4 23 12 28 21 13 21 -5 0 -15 -7 -22
-17z"/>
<path d="M1015 830 c3 -5 11 -10 16 -10 6 0 7 5 4 10 -3 6 -11 10 -16 10 -6 0
-7 -4 -4 -10z"/>
<path d="M2995 820 c-3 -5 -1 -10 4 -10 6 0 11 5 11 10 0 6 -2 10 -4 10 -3 0
-8 -4 -11 -10z"/>
<path d="M3136 805 c-15 -14 -30 -25 -34 -25 -4 0 1 7 11 14 24 19 21 27 -8
22 -35 -6 -45 -14 -56 -43 -6 -16 -13 -22 -21 -17 -9 5 -8 2 1 -9 12 -15 12
-17 -3 -11 -9 3 -16 1 -16 -5 0 -8 -5 -9 -19 -1 -25 13 -31 13 -31 -2 -1 -24
-27 -49 -44 -42 -9 3 -14 9 -11 13 2 4 -2 8 -10 8 -8 0 -15 -6 -15 -14 0 -7
-5 -13 -11 -13 -5 0 -7 6 -3 13 4 6 -5 1 -19 -12 -15 -14 -27 -33 -27 -42 0
-12 -5 -16 -14 -13 -21 8 -30 -14 -14 -34 12 -15 11 -16 -4 -4 -15 12 -35 -3
-178 -145 -88 -88 -160 -165 -160 -171 0 -7 -4 -11 -8 -9 -5 1 -68 -58 -141
-130 l-133 -132 638 -1 c587 0 639 1 656 17 18 16 18 16 12 0 -7 -20 11 -23
23 -4 13 20 51 37 68 31 9 -4 15 -1 15 9 0 17 -32 28 -50 17 -7 -4 -10 -12 -6
-18 4 -6 -2 -10 -14 -9 -18 1 -17 4 12 34 22 23 39 31 54 29 27 -5 82 39 60
47 -8 3 -19 -5 -26 -18 -7 -14 -17 -22 -22 -19 -5 3 6 23 23 45 17 21 34 37
39 34 4 -3 7 1 7 8 -1 6 14 43 32 80 31 63 33 72 22 107 -6 21 -27 57 -46 80
-30 36 -33 45 -23 59 12 14 11 15 -5 2 -16 -13 -22 -10 -62 29 -37 36 -43 48
-38 69 5 22 4 24 -8 14 -12 -10 -25 -2 -72 39 -31 27 -54 55 -51 60 4 7 2 8
-4 4 -6 -4 -30 7 -53 23 -31 23 -48 29 -70 24 -24 -4 -29 -2 -30 13 0 11 -3
13 -6 7 -3 -9 -10 -10 -23 -3 -12 7 -20 6 -22 -1 -2 -5 -11 -7 -21 -4 -9 4
-14 11 -11 16 10 16 -2 10 -30 -16z m-46 -9 c0 -3 -4 -8 -10 -11 -5 -3 -10 -1
-10 4 0 6 5 11 10 11 6 0 10 -2 10 -4z m215 -16 c-3 -5 -12 -10 -18 -10 -7 0
-6 4 3 10 19 12 23 12 15 0z m10 -50 c3 -5 -3 -10 -15 -10 -12 0 -18 5 -15 10
3 6 10 10 15 10 5 0 12 -4 15 -10z m45 -10 c0 -5 -7 -7 -15 -4 -8 4 -15 8 -15
10 0 2 7 4 15 4 8 0 15 -4 15 -10z m-477 -59 c-12 -10 -19 -21 -16 -25 4 -3 0
-6 -9 -6 -8 0 -18 3 -21 7 -10 10 13 32 28 27 7 -3 16 -1 20 5 3 6 9 11 13 11
4 -1 -3 -9 -15 -19z m641 -72 c72 -68 126 -142 114 -154 -2 -2 -56 50 -122
116 -91 91 -113 119 -97 119 13 0 54 -31 105 -81z m-771 -44 c-3 -9 -8 -14
-10 -11 -3 3 -2 9 2 15 9 16 15 13 8 -4z m-28 -34 c-3 -6 -11 -11 -16 -11 -5
0 -4 6 3 14 14 16 24 13 13 -3z m965 -125 c0 -12 -5 -7 -19 24 -11 24 -11 24
3 6 9 -11 16 -24 16 -30z m7 -53 c-3 -10 -5 -4 -5 12 0 17 2 24 5 18 2 -7 2
-21 0 -30z m-151 -108 c-37 -47 -43 -44 -10 5 15 22 29 38 32 35 3 -2 -7 -20
-22 -40z"/>
<path d="M1350 805 c0 -2 6 -8 13 -14 10 -8 14 -7 14 2 0 8 -6 14 -14 14 -7 0
-13 -1 -13 -2z"/>
<path d="M1315 780 c-3 -5 -1 -10 4 -10 6 0 11 5 11 10 0 6 -2 10 -4 10 -3 0
-8 -4 -11 -10z"/>
<path d="M2931 756 c-22 -24 -22 -46 1 -46 7 0 6 5 -1 14 -10 11 -8 16 8 21
12 3 21 13 21 21 0 19 -3 18 -29 -10z"/>
<path d="M1420 766 c0 -2 7 -7 16 -10 8 -3 12 -2 9 4 -6 10 -25 14 -25 6z"/>
<path d="M1379 723 l-24 -28 28 24 c25 23 32 31 24 31 -2 0 -14 -12 -28 -27z"/>
<path d="M1470 740 c0 -5 -7 -10 -17 -10 -9 0 -14 -3 -10 -6 8 -8 47 5 47 17
0 5 -4 9 -10 9 -5 0 -10 -4 -10 -10z"/>
<path d="M3457 698 c19 -21 31 -25 14 -5 -6 8 -9 16 -6 19 3 2 -2 5 -10 5 -13
0 -13 -3 2 -19z"/>
<path d="M1312 694 c-7 -8 -8 -14 -3 -14 10 0 25 19 20 25 -2 1 -10 -3 -17
-11z"/>
<path d="M1395 650 c3 -5 8 -10 11 -10 2 0 4 5 4 10 0 6 -5 10 -11 10 -5 0 -7
-4 -4 -10z"/>
<path d="M1345 630 c3 -5 14 -10 23 -10 15 0 15 2 2 10 -20 13 -33 13 -25 0z"/>
<path d="M3551 627 c-8 -11 -6 -18 9 -32 12 -11 20 -13 20 -6 0 6 -7 14 -15
17 -12 5 -13 10 -4 20 6 8 9 14 6 14 -2 0 -10 -6 -16 -13z"/>
<path d="M3638 173 c7 -3 16 -2 19 1 4 3 -2 6 -13 5 -11 0 -14 -3 -6 -6z"/>
<path d="M1220 135 c19 -19 36 -35 39 -35 3 0 -10 16 -29 35 -19 19 -36 35
-39 35 -3 0 10 -16 29 -35z"/>
<path d="M3540 15 c-11 -13 -10 -14 4 -9 9 3 16 10 16 15 0 13 -6 11 -20 -6z"/>
<path d="M3946 22 c-3 -6 -16 -8 -29 -6 -20 4 -21 4 -2 -5 11 -5 34 -10 50
-10 17 1 23 3 15 6 -8 3 -18 10 -21 16 -4 6 -9 5 -13 -1z"/>
</g>
</svg>
