<?xml version="1.0" encoding="UTF-8"?>
<svg version="1.1" xmlns="http://www.w3.org/2000/svg" width="1920" height="819">
<path d="M0 0 C0.7831015 -0.00295142 1.56620299 -0.00590285 2.37303483 -0.00894371 C5.00693099 -0.01763154 7.64078322 -0.01921506 10.27469254 -0.02082157 C12.1782524 -0.02555274 14.08181127 -0.03070368 15.98536897 -0.03623921 C21.2242215 -0.05014711 26.46306709 -0.05772937 31.70193338 -0.0642122 C36.1933351 -0.07058323 40.68472541 -0.08065323 45.17612001 -0.09077286 C59.97165238 -0.12409239 74.76719169 -0.14561502 89.56274927 -0.16397271 C93.4142419 -0.16876761 97.26573426 -0.17375092 101.1172266 -0.17877793 C125.02847337 -0.2097437 148.93972177 -0.2364361 172.85098267 -0.25319672 C178.38904958 -0.25713387 183.92711644 -0.26114574 189.46518326 -0.2652216 C190.15320932 -0.26572326 190.84123538 -0.26622493 191.55011072 -0.2667418 C213.86167792 -0.28316292 236.17313553 -0.32162602 258.48464881 -0.3725087 C282.07577562 -0.42621153 305.66681168 -0.4579146 329.25800538 -0.4653936 C342.11722167 -0.4700594 354.97625643 -0.48484847 367.83541489 -0.5251379 C378.78405536 -0.55939977 389.73248156 -0.57339261 400.68117258 -0.56071376 C406.26818125 -0.55487838 411.85473649 -0.55881336 417.44167709 -0.5888834 C422.55677076 -0.61618957 427.67108765 -0.61578939 432.78619817 -0.59337295 C434.63614076 -0.59014309 436.48613484 -0.59705864 438.33599159 -0.61517017 C455.03965428 -0.76879218 455.03965428 -0.76879218 461.54371476 4.50501007 C467.49310757 10.3961578 471.392482 14.87947246 471.46247372 23.67135769 C471.45807724 24.38562717 471.45368075 25.09989665 471.44915104 25.83581066 C471.45235752 26.60709354 471.455564 27.37837642 471.45886764 28.17303151 C471.46719271 30.76678874 471.46123459 33.36031656 471.45537186 35.95407772 C471.45839141 37.82876448 471.4622799 39.70345001 471.46696442 41.57813334 C471.47727871 46.73719829 471.47505387 51.896194 471.47078383 57.05526471 C471.46832278 62.61641747 471.47732309 68.1775533 471.48482132 73.73869991 C471.49758822 84.63711282 471.49935949 95.53550111 471.49702106 106.43392023 C471.49523976 115.29146973 471.4969835 124.14901173 471.5012455 133.00656033 C471.50184069 134.26607373 471.50243588 135.52558714 471.5030491 136.82326762 C471.50426083 139.38180337 471.50547496 141.94033912 471.50669148 144.49887487 C471.51448205 161.68526876 471.51839552 178.87165982 471.51437473 196.05805492 C471.51421836 196.7302993 471.51406198 197.40254367 471.51390087 198.09515908 C471.51309508 201.50240322 471.51224931 204.90964734 471.51138756 208.31689146 C471.51113093 209.33193407 471.51113093 209.33193407 471.51086912 210.36748259 C471.51052246 211.73592557 471.51017393 213.10436855 471.50982353 214.47281153 C471.50446742 235.76140346 471.5123929 257.04995397 471.53085709 278.33853817 C471.55157574 302.25448608 471.56226885 326.17040852 471.5582816 350.08636832 C471.55636772 362.74989992 471.55887515 375.41339378 471.57299614 388.0769186 C471.58489722 398.85900455 471.58632921 409.64102953 471.57420597 420.4231163 C471.56830802 425.92492959 471.56724318 431.42663131 471.57920837 436.92843723 C471.59003584 441.96563145 471.58700113 447.00262053 471.57294669 452.03980502 C471.57029108 453.86147245 471.57269331 455.68315578 471.58068255 457.50480762 C471.65850075 476.5729456 471.65850075 476.5729456 466.44467545 484.9523077 C459.96819942 491.24888162 452.21640707 493.4472749 443.30033112 493.39986992 C442.51975212 493.40367559 441.73917312 493.40748126 440.93494022 493.41140226 C438.31557974 493.4217204 435.69643587 493.41781146 433.0770607 493.41396236 C431.18159898 493.41841464 429.28613911 493.42372865 427.39068198 493.42983109 C422.17880594 493.44402266 416.96698951 493.44567416 411.75509691 493.44523418 C406.13531413 493.44688135 400.51555598 493.45994595 394.89578629 493.47142696 C382.60660622 493.49428319 370.31744341 493.50219814 358.02824497 493.50725341 C350.35585205 493.51050947 342.68346415 493.51703138 335.01107407 493.5242548 C313.7708344 493.54382095 292.53060047 493.56030656 271.29035187 493.56313133 C270.27145071 493.56327242 270.27145071 493.56327242 269.23196569 493.56341637 C266.47922337 493.56379484 263.72648105 493.56415884 260.97373873 493.56451935 C258.90187649 493.56479106 256.83001425 493.56506774 254.75815201 493.56534481 C253.73121791 493.56547684 253.73121791 493.56547684 252.68353767 493.56561155 C231.17321245 493.56851687 209.66297709 493.59061241 188.15268326 493.62686825 C163.98400821 493.66760381 139.81541458 493.69127038 115.64669776 493.69159085 C102.85065302 493.69217576 90.05472395 493.70068984 77.25870895 493.72958851 C66.36392873 493.75408018 55.46930638 493.76140011 44.57450607 493.74634098 C39.01577855 493.73916331 33.45736292 493.74006688 27.8986702 493.76275158 C22.80830368 493.7833261 17.71848917 493.78075514 12.62812874 493.75987674 C10.78829972 493.75637898 8.948431 493.76130393 7.10865405 493.77558117 C-12.4333955 493.91743951 -12.4333955 493.91743951 -20.39638686 486.69714063 C-25.41382189 481.12671791 -27.2548454 475.63294221 -27.18564129 468.27111149 C-27.19030121 467.49331005 -27.19496113 466.71550861 -27.19976225 465.91413742 C-27.21172656 463.30414086 -27.20231137 460.69466348 -27.19300461 458.08466244 C-27.1971769 456.19602385 -27.20265384 454.30738778 -27.20932442 452.41875637 C-27.22381154 447.22578677 -27.21952408 442.03297544 -27.21215761 436.83999705 C-27.2074363 431.24069991 -27.21992661 425.64143753 -27.23017502 420.04215145 C-27.2473889 409.07134275 -27.24819764 398.10059126 -27.24296211 387.12977256 C-27.2389239 378.21407355 -27.24035983 369.29839148 -27.24571037 360.38269329 C-27.24645879 359.11470057 -27.24720722 357.84670784 -27.24797832 356.54029109 C-27.24950977 353.96452014 -27.25104811 351.3887492 -27.25259329 348.81297825 C-27.26242518 331.51336995 -27.26658251 314.21377155 -27.2589674 296.91416264 C-27.25867023 296.23761048 -27.25837305 295.56105832 -27.25806687 294.86400459 C-27.25561792 289.36985834 -27.25300634 283.87571217 -27.25038274 278.38156601 C-27.24028087 256.95182905 -27.24863413 235.52217045 -27.27187729 214.09244442 C-27.29794799 190.01681212 -27.31074876 165.94123851 -27.30368954 141.86558712 C-27.30019337 129.11769642 -27.3024556 116.36987007 -27.31994057 103.62198925 C-27.33464078 92.76961393 -27.33532655 81.91734827 -27.31786966 71.06497516 C-27.30933923 65.52679495 -27.30725997 59.98881082 -27.32252121 54.45064068 C-27.33631741 49.38140753 -27.33167044 44.31253937 -27.31228197 39.2433276 C-27.30850606 37.40892292 -27.31148953 35.57448936 -27.32189362 33.74011029 C-27.33503234 31.24636226 -27.32350884 28.75387974 -27.30589581 26.2601862 C-27.31554632 25.54812718 -27.32519683 24.83606816 -27.33513978 24.1024316 C-27.24270299 17.72756555 -24.94332959 12.77897951 -20.9889183 7.8976202 C-20.41270737 7.35879208 -19.83649643 6.81996395 -19.24282455 6.2648077 C-18.66403549 5.71051083 -18.08524643 5.15621395 -17.4889183 4.5851202 C-12.05075812 -0.08336998 -6.88448082 -0.00865356 0 0 Z " fill="#149A42" transform="translate(167.80532455444336,151.86019229888916)"/>
<path d="M -50.5, -1.3 
         A 104 104 0 1 0 -50.5 206.7 
         A 104 104 0 1 0 -50.5 -1.3 
         Z 
         M -50.5, 37.7 
         A 65 65 0 1 1 -50.5 167.7 
         A 65 65 0 1 1 -50.5 37.7 
         Z" 
      fill="#159A43" 
      fill-rule="evenodd" 
      transform="translate(1494,357)" /><path d="M0 0 C73.92 0 147.84 0 224 0 C224 48.64750542 224 48.64750542 214.5859375 58.53125 C213.67859863 59.38009766 213.67859863 59.38009766 212.75292969 60.24609375 C209.77229949 63.22838447 207.60413111 66.72971579 205.3125 70.25 C204.41381233 71.57280377 203.51153293 72.89317537 202.60546875 74.2109375 C202.17024902 74.84612305 201.7350293 75.48130859 201.28662109 76.13574219 C196.60092142 82.92511652 191.74170448 89.59435263 186.90625 96.27734375 C185.81247604 97.78904516 184.71872648 99.30076423 183.625 100.8125 C183.07473145 101.57288574 182.52446289 102.33327148 181.95751953 103.11669922 C177.76757351 108.91542756 173.63499712 114.75267071 169.52001953 120.60473633 C165.3472779 126.52991996 161.10653283 132.40418265 156.85327148 138.27172852 C153.21464214 143.2983613 149.62609768 148.35747777 146.0625 153.4375 C141.2162899 160.34045709 136.23393305 167.13476487 131.21337891 173.91162109 C126.8818449 179.77094885 122.65219889 185.6943357 118.46655273 191.65844727 C112.18944628 200.59648972 105.76367367 209.42697847 99.35449219 218.27050781 C97.71467069 220.53390967 96.07607348 222.79819456 94.4375 225.0625 C93.96836182 225.70888428 93.49922363 226.35526855 93.01586914 227.02124023 C87.26933239 234.96280191 81.65431314 242.98972305 76 251 C127.15 251 178.3 251 231 251 C231 266.84 231 282.68 231 299 C154.77 299 78.54 299 0 299 C0 257 0 257 12 241 C13.97810865 238.23859773 15.94225013 235.47908414 17.875 232.6875 C22.71718688 225.76397265 27.69147672 218.9473461 32.71826172 212.15698242 C36.68305217 206.7978184 40.60667793 201.4112789 44.5 196 C48.97609448 189.77873314 53.50271024 183.59765468 58.0625 177.4375 C64.00410631 169.40135883 69.80234529 161.27336357 75.53662109 153.08837891 C82.66529279 142.91509601 89.85553363 132.78995025 97.14428711 122.73071289 C101.30448828 116.98212768 105.40377658 111.19285249 109.48486328 105.38793945 C113.07395831 100.29095458 116.71436533 95.23328441 120.375 90.1875 C130.46111856 76.27272974 140.21794787 62.12963086 150 48 C100.5 47.67 51 47.34 0 47 C0 31.49 0 15.98 0 0 Z " fill="#159B44" transform="translate(756,259)"/>
<path d="M0 0 C1.36171829 -0.00043808 1.36171829 -0.00043808 2.75094604 -0.00088501 C5.74316051 0.0005052 8.7351241 0.01605195 11.72729492 0.03173828 C13.80523035 0.03546951 15.88316753 0.03831596 17.96110535 0.04031372 C23.42407101 0.04794153 28.88692995 0.06758278 34.34985352 0.08972168 C39.92682451 0.11019842 45.50381278 0.11931935 51.08081055 0.12939453 C62.01900842 0.15082941 72.95712716 0.18495514 83.89526367 0.22705078 C82.78769663 1.98000117 81.67849147 3.73191662 80.56860352 5.48339844 C79.95109222 6.45910797 79.33358093 7.4348175 78.69735718 8.44009399 C76.43757639 11.93486903 74.0212818 15.27810194 71.52026367 18.60205078 C67.36816041 24.19559081 63.34076767 29.8560271 59.39526367 35.59814453 C53.95417959 43.51510145 48.41390099 51.36407651 42.89526367 59.22705078 C42.3699707 59.97567383 41.84467773 60.72429687 41.3034668 61.49560547 C35.74714954 69.40817309 30.14067431 77.27988111 24.45776367 85.10205078 C19.99932792 91.24212472 15.6577196 97.44945243 11.39526367 103.72705078 C6.61128866 110.77272449 1.70325739 117.71277781 -3.30224609 124.60253906 C-10.14816166 134.02635845 -16.84569244 143.55374832 -23.51098633 153.10595703 C-29.72288989 162.00637591 -35.98160424 170.86587101 -42.3527832 179.65307617 C-49.16342562 189.05287988 -55.84846355 198.54100697 -62.47583008 208.07080078 C-68.82853802 217.19713843 -75.28281843 226.22415842 -81.92016602 235.14575195 C-85.99284382 240.64728941 -89.89578751 246.24455372 -93.72973633 251.91455078 C-98.19921181 258.52374047 -102.83148158 264.96209485 -107.65820312 271.31420898 C-111.74061041 276.69949794 -115.65161053 282.19163383 -119.53027344 287.72485352 C-123.75604087 293.74958068 -128.05091086 299.72185737 -132.37207031 305.6784668 C-134.92738473 309.20307835 -137.47056901 312.73419465 -139.97192383 316.29736328 C-140.41842285 316.93134033 -140.86492187 317.56531738 -141.32495117 318.21850586 C-142.51564633 319.91278193 -143.70103349 321.6107849 -144.88598633 323.30908203 C-149.25793396 329.05880894 -154.90603572 335.15035127 -162.28585815 336.67878151 C-164.66035 336.83761214 -166.98723713 336.84669922 -169.36645508 336.79467773 C-170.69956978 336.79577293 -170.69956978 336.79577293 -172.05961609 336.79689026 C-174.97112986 336.7934316 -177.88100517 336.75465296 -180.79223633 336.71533203 C-182.82103603 336.70599776 -184.84984707 336.69888455 -186.87866211 336.69389343 C-192.19882742 336.67487205 -197.51830198 336.62581303 -202.8381958 336.57037354 C-208.27460386 336.51907613 -213.71112436 336.49635701 -219.14770508 336.47119141 C-229.80035105 336.41768968 -240.45248608 336.33243579 -251.10473633 336.22705078 C-249.49486004 331.97221735 -247.36191267 328.55316908 -244.66723633 324.91455078 C-243.75704525 323.66422082 -242.84824133 322.41288015 -241.94067383 321.16064453 C-241.2363623 320.18973877 -241.2363623 320.18973877 -240.51782227 319.19921875 C-238.22212171 315.99523307 -236.01001997 312.73521626 -233.79223633 309.47705078 C-229.82040442 303.65920605 -225.74636412 297.92514476 -221.60473633 292.22705078 C-217.03804097 285.94281083 -212.57242593 279.60218155 -208.19189453 273.18701172 C-204.93411153 268.41998329 -201.62835112 263.68956623 -198.29223633 258.97705078 C-193.92084806 252.80149593 -189.56665812 246.61436804 -185.22973633 240.41455078 C-184.35442261 239.16339478 -184.35442261 239.16339478 -183.46142578 237.88696289 C-181.67559308 235.33384723 -179.89010173 232.78049323 -178.10473633 230.22705078 C-170.97071753 220.02392575 -163.83036718 209.8257672 -156.64331055 199.65991211 C-152.78100148 194.19352463 -148.94025008 188.71226475 -145.10473633 183.22705078 C-139.28237573 174.90131408 -133.43336587 166.59487623 -127.56811523 158.29931641 C-126.09216792 156.20925288 -124.6194931 154.11691989 -123.14770508 152.02392578 C-118.03796019 144.76226797 -112.88714045 137.53498909 -107.66723633 130.35205078 C-102.59107764 123.36312563 -97.6891744 116.26939984 -92.83935547 109.12207031 C-89.10074118 103.63124511 -85.23112785 98.25977288 -81.26831055 92.92944336 C-77.5849567 87.9475309 -74.08268911 82.85393175 -70.60473633 77.72705078 C-66.30244003 71.38738867 -61.90112374 65.14927494 -57.33691406 58.99609375 C-51.68184381 51.34816819 -46.28225905 43.52057819 -40.84350586 35.71826172 C-38.10704328 31.79761244 -35.35838043 27.88564592 -32.60473633 23.97705078 C-32.13688721 23.3107666 -31.66903809 22.64448242 -31.18701172 21.95800781 C-28.81890036 18.5989786 -26.42100063 15.26278245 -23.98364258 11.95361328 C-23.28476929 11.00349365 -23.28476929 11.00349365 -22.57177734 10.03417969 C-16.15872725 2.13446313 -9.9267216 -0.08381289 0 0 Z " fill="#FCFDFC" transform="translate(459.104736328125,224.77294921875)"/>
<path d="M0 0 C17.49 0 34.98 0 53 0 C53.00410889 3.92535645 53.00821777 7.85071289 53.01245117 11.89501953 C53.02968805 24.89899642 53.07400598 37.90276458 53.13209057 50.90661812 C53.1666345 58.7868975 53.19208209 66.66700388 53.19555664 74.54736328 C53.19861138 81.42185522 53.21930288 88.29603822 53.26052457 95.17041099 C53.28172064 98.80503831 53.29452518 102.43922794 53.28615379 106.07391739 C53.2771039 110.14752225 53.30745896 114.21997634 53.34057617 118.29345703 C53.32763771 120.06940247 53.32763771 120.06940247 53.31443787 121.88122559 C53.48061335 134.16343297 57.02248888 146.24646005 66 155 C68.52704004 157.05160511 71.0713701 158.58827859 74 160 C74.63035156 160.31839844 75.26070312 160.63679687 75.91015625 160.96484375 C86.78343609 165.51108985 99.77319124 164.04231523 110.44897461 159.75463867 C120.28198027 155.36809894 126.22952254 148.84518538 130.84375 139.1875 C133.84323146 130.9186592 134.30248417 123.07064183 134.31884766 114.32006836 C134.32889328 113.08005066 134.3389389 111.84003296 134.34928894 110.56243896 C134.37474341 107.18907632 134.39168161 103.81587915 134.40471697 100.44245982 C134.42043094 96.90703179 134.44719444 93.37168711 134.4727478 89.83631897 C134.51939013 83.15365723 134.55620424 76.47097955 134.58942068 69.78823906 C134.62774536 62.17506423 134.67712814 54.56197341 134.72740483 46.94886959 C134.83050816 31.29930119 134.91837883 15.64969742 135 0 C152.82 0 170.64 0 189 0 C189 68.31 189 136.62 189 207 C171.51 207 154.02 207 136 207 C135.67 199.74 135.34 192.48 135 185 C133.96875 186.134375 132.9375 187.26875 131.875 188.4375 C122.82489221 197.43972362 112.02644992 203.01783773 100 207 C99.030625 207.35191406 98.06125 207.70382812 97.0625 208.06640625 C77.91870645 213.90233311 53.84413226 210.43286972 36.31640625 201.65625 C18.39255391 191.58981187 8.93787399 175.80809576 2.89453125 156.7265625 C0.41135304 146.38179389 -0.28748934 136.28313009 -0.22705078 125.67260742 C-0.22648493 124.29139718 -0.22680661 122.91018634 -0.22793579 121.52897644 C-0.22850353 117.82319852 -0.21684442 114.11755328 -0.20278788 110.41180587 C-0.19018263 106.52277938 -0.18910237 102.63374897 -0.18673706 98.7447052 C-0.18055081 91.39983757 -0.16417913 84.05503034 -0.14403808 76.71018916 C-0.12158958 68.34004338 -0.11066327 59.96989453 -0.10064721 51.59972608 C-0.07980997 34.39977658 -0.04316996 17.19991015 0 0 Z " fill="#169B44" transform="translate(1597,351)"/>
<path d="M0 0 C56.43 0 112.86 0 171 0 C171 42 171 42 157 57 C154.63611004 59.64918703 152.30155359 62.29924761 150 65 C148.06382881 67.27197014 146.12629328 69.54276695 144.1875 71.8125 C143.67002197 72.41884277 143.15254395 73.02518555 142.61938477 73.64990234 C139.41472075 77.39109382 136.14775173 81.06132289 132.8125 84.6875 C128.78606164 89.07355646 125.01890278 93.61741628 121.28125 98.25 C118.13805742 102.03905407 114.79841405 105.63269352 111.46484375 109.25390625 C109.07292703 111.91875166 106.80745116 114.64831825 104.5625 117.4375 C100.42188033 122.56747127 96.0273268 127.404648 91.55078125 132.23828125 C88.29342287 135.76500771 85.13385725 139.36372074 82 143 C81.02736747 144.11851021 80.05470879 145.23699768 79.08203125 146.35546875 C78.01274487 147.59090704 76.94373647 148.82658597 75.875 150.0625 C75.37170166 150.6404834 74.86840332 151.2184668 74.34985352 151.81396484 C73.86057373 152.38195801 73.37129395 152.94995117 72.8671875 153.53515625 C72.43519043 154.034104 72.00319336 154.53305176 71.55810547 155.04711914 C69.25096975 157.93881119 67.15016955 160.98976263 65 164 C100.31 164 135.62 164 172 164 C172 178.19 172 192.38 172 207 C114.91 207 57.82 207 -1 207 C-1 165 -1 165 10 153 C12.19029155 150.30907038 14.38056796 147.61807498 16.5546875 144.9140625 C19.95278531 140.86457214 23.5754821 137.04403943 27.19824219 133.19628906 C31.25842696 128.86051539 35.03527884 124.35922917 38.75 119.72265625 C42.16268497 115.59307044 45.81020414 111.69116515 49.44921875 107.76171875 C53.6621597 103.20038758 57.71432894 98.50977708 61.7421875 93.78515625 C62.76544735 92.58578591 63.78889037 91.38657183 64.8125 90.1875 C65.32973633 89.58139893 65.84697266 88.97529785 66.37988281 88.35083008 C69.5848938 84.60948459 72.85201503 80.9389307 76.1875 77.3125 C79.37736844 73.83863691 82.42048894 70.30089975 85.375 66.625 C89.35524837 61.68522747 93.58011611 57.02970136 97.92724609 52.41455078 C100.48155448 49.69408095 102.75270692 46.99639078 105 44 C70.35 43.67 35.7 43.34 0 43 C0 28.81 0 14.62 0 0 Z " fill="#169B44" transform="translate(1140,351)"/>
<path d="M0 0 C0.69682388 -0.00832352 1.39364777 -0.01664703 2.11158752 -0.02522278 C4.40094702 -0.04919315 6.69002075 -0.05807962 8.97949219 -0.06469727 C10.58363931 -0.07367479 12.18778563 -0.08279683 13.79193115 -0.09205627 C17.15085884 -0.10851458 20.50968724 -0.11624037 23.86865234 -0.11914062 C28.15013039 -0.12451542 32.43066096 -0.16217073 36.7118721 -0.20788479 C40.02526157 -0.2377892 43.33842677 -0.24486709 46.65193939 -0.24586678 C48.22905559 -0.25004405 49.80617401 -0.26237707 51.38315582 -0.28338432 C60.35086764 -0.39332144 68.2336986 -0.23544879 75.77636719 5.30639648 C81.65654466 11.05164383 84.67973234 18.95401268 88.04019165 26.32965088 C89.75477365 30.09244607 91.49953978 33.8412391 93.24121094 37.59155273 C93.60458054 38.37592712 93.96795013 39.16030151 94.34233093 39.96844482 C99.00096448 49.99450346 103.8839727 59.91261189 108.77038574 69.82919312 C109.88598846 72.09360453 110.99735788 74.36005659 112.10839844 76.62670898 C112.43586563 77.28686508 112.76333282 77.94702118 113.10072327 78.62718201 C115.3103905 83.14281121 116.99249995 87.54941717 118.77636719 92.30639648 C53.10636719 92.30639648 -12.56363281 92.30639648 -80.22363281 92.30639648 C-77.50243451 87.54429945 -74.91294495 83.32201619 -71.72363281 78.93139648 C-70.8325224 77.69737186 -69.94191928 76.4629808 -69.05175781 75.22827148 C-68.58833984 74.58696289 -68.12492187 73.9456543 -67.64746094 73.28491211 C-65.23472516 69.93223537 -62.85392238 66.55715152 -60.47363281 63.18139648 C-59.97669922 62.47708496 -59.47976563 61.77277344 -58.96777344 61.04711914 C-55.04032987 55.47577414 -51.13065635 49.89207255 -47.22363281 44.30639648 C-45.46328647 41.79109648 -43.70271621 39.2759536 -41.94189453 36.76098633 C-40.81027292 35.14442997 -39.67907709 33.52757546 -38.54833984 31.91040039 C-35.13048125 27.02526379 -31.69145259 22.15619058 -28.22363281 17.30639648 C-27.5571875 16.36795898 -26.89074219 15.42952148 -26.20410156 14.46264648 C-19.27188533 5.0736403 -11.93648554 0.10132978 0 0 Z " fill="#FBFCFC" transform="translate(434.2236328125,468.693603515625)"/>
<path d="M0 0 C18.15 0 36.3 0 55 0 C55 67.65 55 135.3 55 205 C36.85 205 18.7 205 0 205 C0 137.35 0 69.7 0 0 Z " fill="#139A42" transform="translate(1036,352)"/>
<path d="M0 0 C18.80200233 -0.0700963 37.60397813 -0.12299122 56.40608406 -0.15543652 C65.13632705 -0.17090218 73.86648883 -0.19198594 82.59667969 -0.22631836 C90.20635052 -0.25622994 97.81596254 -0.27557719 105.42569053 -0.28226548 C109.45460471 -0.28617477 113.48335062 -0.29535581 117.51221085 -0.31719017 C121.30591799 -0.33758315 125.09938786 -0.34382816 128.89314461 -0.33932304 C130.283887 -0.34014699 131.67463749 -0.34609604 133.06533241 -0.35761642 C134.96806693 -0.37260266 136.87092935 -0.3671521 138.77371216 -0.36076355 C140.36933581 -0.36491162 140.36933581 -0.36491162 141.99719429 -0.36914349 C146.36030941 0.16722672 149.68372633 1.81110766 152.9375 4.75 C154.55603204 8.17747962 153.85258605 10.33276306 153 14 C151.5025403 16.79793322 149.65581702 19.28027675 147.75 21.8125 C147.2149585 22.54605713 146.67991699 23.27961426 146.12866211 24.03540039 C144.99781871 25.58445364 143.8615524 27.12956091 142.72021484 28.67089844 C140.50941271 31.66423542 138.3382461 34.68512626 136.16674805 37.70703125 C134.55617318 39.94629651 132.9391897 42.18079361 131.3203125 44.4140625 C129.01740605 47.59204597 126.72121053 50.77473609 124.4296875 53.9609375 C123.84501709 54.77312744 123.26034668 55.58531738 122.65795898 56.42211914 C121.54193646 57.97270471 120.42681015 59.52393585 119.31274414 61.07592773 C113.86109297 68.64270513 109.22283845 74.93687258 100 78 C96.9022522 78.26069641 96.9022522 78.26069641 93.39306641 78.2746582 C92.07464752 78.28419022 90.75622864 78.29372223 89.39785767 78.30354309 C87.96575901 78.30328162 86.53366033 78.30234436 85.1015625 78.30078125 C83.62332032 78.30467166 82.14507924 78.30900705 80.6668396 78.31376648 C77.57180149 78.32121698 74.47687747 78.32094624 71.38183594 78.31567383 C67.42870981 78.30988505 63.47605311 78.32680116 59.52300453 78.3500185 C56.47052307 78.36480007 53.41815346 78.36562148 50.36564255 78.36250877 C48.90888923 78.36301991 47.4521293 78.36821846 45.99541092 78.37832069 C30.92045143 78.47002917 30.92045143 78.47002917 24.07519531 73.64257812 C17.3085626 66.35950964 14.32686586 56.60006533 10.75 47.5 C10.03792329 45.72467213 9.32439256 43.94992673 8.609375 42.17578125 C6.71542091 37.4600063 4.82831452 32.74167209 3 28 C2.47384094 26.80661011 1.94768188 25.61322021 1.40557861 24.38366699 C-0.44697645 19.43271122 -0.3356228 14.72607606 -0.1875 9.5 C-0.17396484 8.5821875 -0.16042969 7.664375 -0.14648438 6.71875 C-0.11148097 4.47853197 -0.06238869 2.23959406 0 0 Z " fill="#FCFDFC" transform="translate(235,225)"/>
<path d="M0 0 C8.45427916 6.12995455 14.87288283 13.26103353 16.71484375 23.72265625 C17.88283974 33.05062423 16.57768282 40.87757429 11.08203125 48.74609375 C5.45454057 55.44928176 -1.24098695 60.3973545 -10 62 C-22.63035472 62.76458492 -31.75727604 61.78907397 -41.6953125 53.4609375 C-48.83500197 45.83720129 -51.37893333 36.5808333 -51.27734375 26.421875 C-50.54133946 17.34103339 -45.86288282 9.18853774 -39 3.27734375 C-27.37213315 -5.17362377 -12.76837573 -6.78433639 0 0 Z " fill="#179C45" transform="translate(1081,254)"/>
<path d="M0 0 C0.66 0 1.32 0 2 0 C0.34908222 4.29238623 -2.73754566 6.8793915 -6 10 C-6.66 9.67 -7.32 9.34 -8 9 C-6.71520959 7.49410612 -5.42195918 5.99542625 -4.125 4.5 C-3.04605469 3.24703125 -3.04605469 3.24703125 -1.9453125 1.96875 C-1.30335937 1.3190625 -0.66140625 0.669375 0 0 Z " fill="#22A34E" transform="translate(1225,418)"/>
<path d="M0 0 C0.66 0.33 1.32 0.66 2 1 C-0.97 4.96 -0.97 4.96 -4 9 C-4.66 8.67 -5.32 8.34 -6 8 C-4.02 5.36 -2.04 2.72 0 0 Z " fill="#22A550" transform="translate(454,351)"/>
<path d="M0 0 C0.33 1.32 0.66 2.64 1 4 C-0.9375 6.25 -0.9375 6.25 -3 8 C-3.66 7.67 -4.32 7.34 -5 7 C-3.35 4.69 -1.7 2.38 0 0 Z " fill="#28A755" transform="translate(431,383)"/>
</svg>
