<?xml version="1.0" encoding="UTF-8"?>
<svg version="1.1" xmlns="http://www.w3.org/2000/svg" width="1120" height="390">
      <path
            d="M0 0 C24.47929965 -0.07025617 48.95858407 -0.12306928 73.43796444 -0.15543652 C84.80560119 -0.1708684 96.17317509 -0.19188716 107.54077148 -0.22631836 C117.45525948 -0.25633379 127.36970193 -0.2756017 137.28423411 -0.28226548 C142.52800137 -0.28615726 147.7716384 -0.29522581 153.01536369 -0.31719017 C157.96392206 -0.3377477 162.91229813 -0.34379539 167.86089516 -0.33932304 C169.66466644 -0.34013972 171.46844465 -0.34598946 173.27217865 -0.35761642 C187.96489782 -0.44757776 202.28249157 0.83312582 216.25 5.75 C217.36592529 6.13514771 217.36592529 6.13514771 218.50439453 6.52807617 C234.64528415 12.30260361 247.62175865 22.35981393 260 34 C260.99580078 34.88171875 260.99580078 34.88171875 262.01171875 35.78125 C279.52835044 51.98324604 289.9364488 75.88623253 291.12548828 99.49121094 C291.57772003 112.00371336 290.8532292 123.80778711 288 136 C287.77957031 137.04414063 287.55914062 138.08828125 287.33203125 139.1640625 C283.25732122 155.1733293 273.25003067 170.01371113 263.41601562 183.0859375 C260.48941722 187.0418912 257.69213951 191.09077576 254.875 195.125 C254.26962402 195.99036377 253.66424805 196.85572754 253.04052734 197.74731445 C248.60100151 204.1062573 244.26128489 210.52002959 240 217 C232.80636114 227.92172908 225.38728889 238.67432088 217.90234375 249.3984375 C214.61944805 254.10373582 211.36464433 258.8273639 208.125 263.5625 C204.40352976 268.99682101 200.60824058 274.37194972 196.76367188 279.71972656 C193.66113477 284.04617791 190.63161551 288.41895668 187.625 292.8125 C174.86836819 311.43156279 161.59042645 329.64819471 147.99414062 347.66235352 C144.92925162 351.72943506 141.94544523 355.84548412 139 360 C138.319375 359.319375 137.63875 358.63875 136.9375 357.9375 C136.47859375 357.47988281 136.0196875 357.02226562 135.546875 356.55078125 C134.48959702 355.49083338 133.43774005 354.42545767 132.390625 353.35546875 C129.47265867 350.39065433 126.5156214 347.54512743 123.34765625 344.84765625 C118.59818147 340.71350025 114.1779396 336.28588378 109.75 331.8125 C108.46367676 330.52049683 108.46367676 330.52049683 107.15136719 329.20239258 C103.51505061 325.54986017 99.88475629 321.89136365 96.25390625 318.23339844 C93.58802403 315.54934844 90.9190819 312.86836759 88.25 310.1875 C87.44143555 309.37063721 86.63287109 308.55377441 85.79980469 307.7121582 C81.62847957 303.5230403 77.3750124 299.52406757 72.89404297 295.66918945 C69.77064831 292.91659222 66.85956244 289.96317327 63.9375 287 C63.30191162 286.360625 62.66632324 285.72125 62.01147461 285.0625 C59.33091985 282.36581517 56.65645336 279.6631227 53.98144531 276.9609375 C44.61917655 267.44681092 44.61917655 267.44681092 34.72265625 258.5 C31.47872889 255.67535577 28.509991 252.56933408 25.5 249.5 C19.73641482 243.66252959 19.73641482 243.66252959 13.6875 238.125 C12.8751291 237.40325167 12.8751291 237.40325167 12.04634666 236.66692257 C9.99876907 234.91871881 9.99876907 234.91871881 7.49230385 233.49134922 C3.75734301 230.91927194 0.66953426 228.44765909 -0.57140398 223.91108203 C-1.5094145 217.39132418 -1.25153119 210.79955598 -1.13525391 204.23217773 C-1.13243119 202.00427885 -1.13402037 199.77637066 -1.13967896 197.54847717 C-1.14254345 191.51532505 -1.08383186 185.48416869 -1.01393938 179.45147967 C-0.95134538 173.14150842 -0.94554575 166.83148931 -0.9336853 160.52125549 C-0.90615435 149.93496904 -0.84373114 139.34933517 -0.75439453 128.76342773 C-0.66250306 117.86339958 -0.59176919 106.96357009 -0.54931641 96.06323242 C-0.54668917 95.39053593 -0.54406194 94.71783944 -0.54135509 94.02475821 C-0.52830403 90.64979506 -0.51566712 87.27483052 -0.50323606 83.89986503 C-0.39968917 55.93273566 -0.22291757 27.96641334 0 0 Z M15 15 C14.78968517 41.44267972 14.63101445 67.88523394 14.53369045 94.32858181 C14.48729837 106.60695302 14.42405859 118.88480432 14.32104492 131.1628418 C14.23129258 141.86539165 14.17326478 152.56756496 14.15320355 163.27048069 C14.14147791 168.93694843 14.11395567 174.60233902 14.04842949 180.26846123 C13.98721917 185.60475303 13.96851971 190.93952687 13.98203087 196.2761364 C13.97956018 198.23169716 13.96172669 200.18731004 13.92715073 202.14256668 C13.47871804 212.56576324 13.47871804 212.56576324 16.93388557 222.09385872 C19.17332749 224.37246187 21.38189747 226.18086125 24 228 C25.32338898 229.13323956 26.63788678 230.27707088 27.9375 231.4375 C28.8965625 232.25734375 28.8965625 232.25734375 29.875 233.09375 C33.40345201 236.25897901 36.68607031 239.66771478 39.99609375 243.05859375 C41.65468518 245.11596963 41.65468518 245.11596963 43 245 C43 209.69 43 174.38 43 138 C53.88226563 138.04640625 64.76453125 138.0928125 75.9765625 138.140625 C82.88542049 138.16107173 89.79425643 138.18049416 96.703125 138.1953125 C107.66055836 138.21900372 118.61786826 138.24678371 129.57519531 138.30175781 C137.55703753 138.34178429 145.53877913 138.36747025 153.52071893 138.37635398 C157.7422071 138.38154213 161.96340758 138.39362685 166.18480301 138.42292023 C170.16899825 138.45034012 174.15279096 138.4583922 178.13707161 138.45243073 C179.5889652 138.45351922 181.04087415 138.46131357 182.49268532 138.4768219 C195.31392037 138.60690666 208.37789451 137.31938757 218 128 C218.62519531 127.41347656 219.25039063 126.82695312 219.89453125 126.22265625 C224.82429375 121.14759549 227.05427169 115.73682275 229 109 C229.19335938 108.35804687 229.38671875 107.71609375 229.5859375 107.0546875 C231.70990461 96.51500165 229.86674443 86.17007441 224.125 77.1875 C217.16188165 67.48339863 207.67977005 60.77436613 196 58 C190.12614045 57.38926036 184.20571472 57.62186815 178.3125 57.75 C170.2378125 57.87375 170.2378125 57.87375 162 58 C162 75.82 162 93.64 162 112 C156.39 112 150.78 112 145 112 C145 89.23 145 66.46 145 43 C157.7771875 43.185625 157.7771875 43.185625 170.8125 43.375 C173.47932861 43.40899902 176.14615723 43.44299805 178.89379883 43.47802734 C181.03988824 43.51327781 183.18596671 43.54920389 185.33203125 43.5859375 C186.42012085 43.59729736 187.50821045 43.60865723 188.62927246 43.62036133 C205.07122065 43.92727276 218.75617415 47.87022364 230.8203125 59.55859375 C242.77328361 72.94677823 246.89719289 88.2161925 246.18359375 105.7421875 C245.7440704 111.14738952 244.04899366 116.01905819 242 121 C241.649375 121.88042969 241.29875 122.76085937 240.9375 123.66796875 C236.39533026 133.8405364 229.130835 141.43153396 219 146 C218.19949219 146.37898437 217.39898437 146.75796875 216.57421875 147.1484375 C210.82218964 149.80322017 206.33017825 151.1200416 199.93829346 151.15821838 C198.0747245 151.17290161 198.0747245 151.17290161 196.17350769 151.18788147 C194.79959145 151.19378524 193.4256748 151.19959571 192.05175781 151.20532227 C190.60290754 151.21490395 189.15406004 151.2249142 187.70521545 151.23532104 C183.77377731 151.26234473 179.84232719 151.28336802 175.91084766 151.30332303 C171.8015252 151.32519823 167.69223954 151.35257942 163.58294678 151.37937927 C155.80221211 151.42928541 148.021457 151.47423196 140.24068236 151.51740164 C131.38220908 151.56679177 122.52377273 151.62170332 113.66533518 151.67708123 C95.44359108 151.79086936 77.22181212 151.89771531 59 152 C58.8127969 166.07340375 58.67242173 180.14661339 58.58550262 194.2210083 C58.5437817 200.75666536 58.48720671 207.29148503 58.39648438 213.82666016 C58.30945285 220.13557137 58.26170258 226.44367805 58.24098206 232.75314331 C58.22621934 235.15815902 58.19739009 237.5631315 58.15415955 239.96780396 C58.09593001 243.3414768 58.08809338 246.71184162 58.09179688 250.0859375 C58.06303467 251.07640579 58.03427246 252.06687408 58.00463867 253.08735657 C58.07037309 258.63514264 58.87472157 261.47777284 62.82870483 265.48521423 C64.19510792 266.68474682 65.58502777 267.85816402 67 269 C68.21793133 270.04832927 69.4344976 271.0982493 70.64892578 272.15063477 C71.31232971 272.72266632 71.97573364 273.29469788 72.65924072 273.88406372 C77.52766939 278.28489423 82.09360828 283.00583548 86.71126938 287.66666985 C88.65035493 289.62331147 90.59310606 291.57624566 92.53689575 293.5282135 C98.05690991 299.07255519 103.57106447 304.62269889 109.08105469 310.17700195 C112.46416867 313.58681422 115.85207025 316.99180749 119.24301529 320.39383125 C120.53275339 321.68978957 121.82058934 322.98764372 123.10650253 324.28739738 C124.89448193 326.09447795 126.68843086 327.89542055 128.48388672 329.69506836 C129.28178871 330.50611275 129.28178871 330.50611275 130.09580994 331.33354187 C132.57531861 334.14756508 132.57531861 334.14756508 136 335 C136 299.03 136 263.06 136 226 C143.92 224.02 143.92 224.02 152 222 C154.99128571 221.08157806 157.92869469 220.15457069 160.875 219.12109375 C162.39309109 218.60229761 163.91132453 218.08391787 165.4296875 217.56591797 C166.56229004 217.17638947 166.56229004 217.17638947 167.71777344 216.7789917 C171.46795584 215.49894308 175.23454862 214.26939465 179 213.03515625 C216.45203972 200.7014336 245.45734751 189.56155565 264.75390625 152.64453125 C275.32171229 130.8997474 278.94637086 105.08533703 271.28369141 81.82568359 C266.29978204 67.91418212 259.25055829 56.67835045 249 46 C248.16597656 45.09121094 247.33195313 44.18242188 246.47265625 43.24609375 C236.93896633 33.18042113 225.92272029 26.10427196 213 21 C212.30132812 20.71640625 211.60265625 20.4328125 210.8828125 20.140625 C197.72418665 15.27441619 184.14933548 14.56127638 170.30273438 14.65942383 C168.59596268 14.66027259 166.88918989 14.65979011 165.18241882 14.65809631 C160.60283486 14.65724465 156.02349242 14.67473414 151.443964 14.69581819 C146.63807056 14.71472511 141.83217001 14.71634637 137.02624512 14.71989441 C127.94961284 14.72917407 118.87309052 14.75373193 109.7965064 14.78394288 C99.4529378 14.81761477 89.10936362 14.83400488 78.76575375 14.84902918 C57.51044141 14.88028567 36.25522767 14.93296577 15 15 Z "
            fill="#86EDE8" transform="translate(40,19)" />
      <path
            d="M0 0 C11.4675 -0.103125 22.935 -0.20625 34.75 -0.3125 C40.14617676 -0.38078003 40.14617676 -0.38078003 45.65136719 -0.45043945 C50.10400391 -0.47302246 50.10400391 -0.47302246 52.20001221 -0.47721863 C53.63873061 -0.48480901 55.07742075 -0.50220922 56.51593018 -0.52787781 C69.0064782 -0.7392749 79.85036676 1.07024578 89.25 10.0390625 C97.50962929 19.2942721 99.66876803 27.30787721 99.375 39.40234375 C98.85854788 48.38676609 95.06355656 55.8621003 88.88671875 62.3203125 C78.90463414 71.2070545 68.12200078 73.16489215 55.1328125 73.09765625 C54.09808807 73.0962413 53.06336365 73.09482635 51.99728394 73.09336853 C48.70649268 73.08779039 45.41577054 73.07524188 42.125 73.0625 C39.88802182 73.05748218 37.65104257 73.05291976 35.4140625 73.04882812 C29.94266056 73.03868087 24.47140726 73.01910111 19 73 C19 83.56 19 94.12 19 105 C12.73 105 6.46 105 0 105 C0 70.35 0 35.7 0 0 Z "
            fill="#BEF5F1" transform="translate(418,113)" />
      <path
            d="M0 0 C8.5503012 5.68313433 14.13286372 13.82169436 16.58203125 23.86328125 C17.78912988 34.92835203 17.53661457 44.85770168 10.70703125 54.05078125 C3.04076704 63.11960523 -8.19060686 71.45956529 -20.41625977 72.50341797 C-23.21153593 72.6060297 -25.99589459 72.62273082 -28.79296875 72.61328125 C-29.73140625 72.62939453 -30.66984375 72.64550781 -31.63671875 72.66210938 C-43.78904453 72.67050187 -56.90072567 68.49076153 -65.91796875 60.05078125 C-75.65494711 49.33533203 -76.76830953 39.40212464 -76.21777344 25.53515625 C-75.56307509 17.16672155 -70.76671842 10.19420729 -65.04296875 4.30078125 C-47.85696617 -10.04218373 -18.98706773 -11.59750624 0 0 Z "
            fill="#AEF3EC" transform="translate(866.04296875,148.69921875)" />
      <path
            d="M0 0 C6.25782039 5.90455634 9.53434441 13.88307278 10.11161804 22.39572144 C10.16762988 25.30236274 10.16256309 28.2023509 10.1328125 31.109375 C10.1299826 32.16346558 10.12715271 33.21755615 10.12423706 34.30358887 C10.11310986 37.6452201 10.08801904 40.98657581 10.0625 44.328125 C10.05246056 46.60416278 10.0433364 48.88020478 10.03515625 51.15625 C10.01319495 56.7136466 9.97871675 62.27083921 9.9375 67.828125 C3.6675 67.828125 -2.6025 67.828125 -9.0625 67.828125 C-10.0625 61.828125 -10.0625 61.828125 -9.0625 58.828125 C-9.85011719 59.35921875 -10.63773438 59.8903125 -11.44921875 60.4375 C-23.94478741 68.54113506 -36.04258622 72.5531844 -51.0625 70.828125 C-58.83644766 68.82300531 -66.87864273 65.99672446 -71.265625 58.875 C-74.27054124 53.16142688 -75.50460467 48.34916886 -75.0625 41.828125 C-72.49551145 34.12715934 -68.14556033 28.79463879 -61.0625 24.828125 C-55.37940018 22.82783973 -50.18740348 22.49253903 -44.19140625 22.4140625 C-42.80791237 22.38501328 -42.80791237 22.38501328 -41.39646912 22.3553772 C-38.47273789 22.2959638 -35.54896647 22.24934991 -32.625 22.203125 C-30.6334471 22.16490998 -28.6419101 22.12585623 -26.65039062 22.0859375 C-21.78789077 21.99029396 -16.92531362 21.90612279 -12.0625 21.828125 C-13.59898372 16.83283041 -14.88094674 14.11998608 -19.0625 10.828125 C-30.40007263 4.91081152 -45.7220787 7.32790717 -57.4765625 10.8515625 C-59.55875649 11.55225308 -61.63408013 12.27396997 -63.69921875 13.0234375 C-66.0625 13.828125 -66.0625 13.828125 -68.0625 13.828125 C-68.0625 8.548125 -68.0625 3.268125 -68.0625 -2.171875 C-48.28725826 -10.6469786 -18.20702218 -13.25364115 0 0 Z "
            fill="#A8F1EB" transform="translate(1065.0625,150.171875)" />
      <path
            d="M0 0 C1.12446533 -0.00193359 2.24893066 -0.00386719 3.4074707 -0.00585938 C13.60173694 0.19398367 24.94615507 2.227752 32.78515625 9.28125 C40.58182493 17.62418209 42.47813365 25.5864645 42.265625 36.81640625 C42.25996521 37.95786606 42.25430542 39.09932587 42.24847412 40.27537537 C42.22622749 43.89235808 42.17605107 47.50832076 42.125 51.125 C42.10491995 53.58917832 42.08667183 56.05337229 42.0703125 58.51757812 C42.02640079 64.53294029 41.95745308 70.54754768 41.875 76.5625 C35.605 76.5625 29.335 76.5625 22.875 76.5625 C22.875 73.5925 22.875 70.6225 22.875 67.5625 C22.36453125 67.93761719 21.8540625 68.31273437 21.328125 68.69921875 C18.89366077 70.41283985 16.40962378 72.00076211 13.875 73.5625 C12.67423828 74.31080078 12.67423828 74.31080078 11.44921875 75.07421875 C1.0712924 80.43999104 -13.03330267 80.65395947 -24.29003906 78.06445312 C-30.79843579 75.90533476 -36.66839999 71.54665337 -40.125 65.5625 C-42.13517047 59.67105697 -42.370741 51.93459202 -40.21875 46.109375 C-36.25138233 39.44623186 -30.70634302 35.18252476 -23.56030273 32.39160156 C-15.58423137 30.46659706 -7.15215878 31.16463401 1 31.3125 C2.92966898 31.33259397 4.85935815 31.35083961 6.7890625 31.3671875 C11.48487888 31.41095765 16.17971403 31.47982532 20.875 31.5625 C19.45439349 26.11684171 18.4521906 23.04514502 13.875 19.5625 C8.13772812 17.79670898 2.86042182 17.17693822 -3.125 17.1875 C-4.35307373 17.18665405 -4.35307373 17.18665405 -5.60595703 17.18579102 C-13.8735269 17.33197124 -21.22078945 19.24703126 -29.125 21.5625 C-30.775 21.8925 -32.425 22.2225 -34.125 22.5625 C-34.125 17.2825 -34.125 12.0025 -34.125 6.5625 C-22.72329275 2.19422904 -12.25954536 -0.02023445 0 0 Z "
            fill="#A6F2EB" transform="translate(568.125,141.4375)" />
      <path
            d="M0 0 C6.93 0 13.86 0 21 0 C21 19.14 21 38.28 21 58 C26.16435747 55.46584424 26.16435747 55.46584424 30.59375 52.28515625 C31.22321533 51.76912842 31.85268066 51.25310059 32.5012207 50.72143555 C33.16081787 50.17398682 33.82041504 49.62653809 34.5 49.0625 C35.20793701 48.49635986 35.91587402 47.93021973 36.64526367 47.34692383 C40.08519904 44.56683937 43.2795952 41.79748614 46.20703125 38.4765625 C51.65103976 32.55837621 55.62084928 29.78729223 63.87890625 29.25390625 C70.6079894 29.12917117 77.29544146 29.43415325 84 30 C80.90532307 33.87387237 77.91277042 37.10380746 74 40.1875 C67.56170975 45.33986993 61.27620598 50.65270481 55 56 C54.15308594 56.70898438 53.30617188 57.41796875 52.43359375 58.1484375 C51.71300781 58.75945312 50.99242187 59.37046875 50.25 60 C49.63640625 60.515625 49.0228125 61.03125 48.390625 61.5625 C46.73896179 63.06256554 46.73896179 63.06256554 46 66 C49.52645041 69.53028954 53.06085081 73.05249025 56.59785461 76.57220459 C59.55913343 79.52013669 62.51779347 82.4706911 65.47631836 85.42138672 C67.04184418 86.98184082 68.60825995 88.54140255 70.17553711 90.10009766 C72.43836035 92.35087078 74.69800869 94.60478812 76.95703125 96.859375 C77.66318069 97.56036316 78.36933014 98.26135132 79.09687805 98.98358154 C79.74142441 99.62805237 80.38597076 100.27252319 81.05004883 100.93652344 C81.62120926 101.50546326 82.19236969 102.07440308 82.78083801 102.6605835 C84 104 84 104 84 105 C61.7163202 107.52533802 61.7163202 107.52533802 54.45849609 103.63916016 C50.12267312 100.09491502 46.8711449 95.71332771 43.62646484 91.18164062 C41.02060828 87.68630375 38.01401115 84.64120677 34.9375 81.5625 C34.16817139 80.73939331 34.16817139 80.73939331 33.38330078 79.8996582 C30.10955405 76.53794235 27.72227328 75.15763757 23 75 C21.14034925 76.85965075 21.75912451 79.94889119 21.68359375 82.44140625 C21.64169922 83.74658203 21.59980469 85.05175781 21.55664062 86.39648438 C21.51682392 87.7851533 21.47711175 89.17382522 21.4375 90.5625 C21.39432011 91.95509183 21.350706 93.34767028 21.30664062 94.74023438 C21.20014194 98.16002549 21.09952944 101.57999896 21 105 C14.07 105 7.14 105 0 105 C0 70.35 0 35.7 0 0 Z "
            fill="#B6F4EE" transform="translate(704,113)" />
      <path
            d="M0 0 C-1.35940533 2.88446431 -2.91183624 5.40420589 -4.79296875 7.9765625 C-5.61571289 9.10771484 -5.61571289 9.10771484 -6.45507812 10.26171875 C-7.02677734 11.04160156 -7.59847656 11.82148438 -8.1875 12.625 C-12.86571739 19.03366652 -17.46300668 25.49059573 -22 32 C-23.09571025 33.56164991 -24.19205633 35.1228539 -25.2890625 36.68359375 C-31.11679498 44.98529826 -36.91244649 53.30603734 -42.625 61.6875 C-50.63931874 73.43642344 -58.82126583 85.0613321 -67.1875 96.5625 C-67.65752441 97.21250977 -68.12754883 97.86251953 -68.61181641 98.53222656 C-69.7158812 100.04035844 -70.85428894 101.52325798 -72 103 C-72.33 103 -72.66 103 -73 103 C-73 77.26 -73 51.52 -73 25 C-66.25155091 21.62577545 -66.25155091 21.62577545 -62.72070312 20.5012207 C-61.93059341 20.24672653 -61.1404837 19.99223236 -60.32643127 19.73002625 C-59.48652145 19.4646254 -58.64661163 19.19922455 -57.78125 18.92578125 C-56.89360458 18.64052078 -56.00595917 18.35526031 -55.09141541 18.06135559 C-53.2019961 17.45417294 -51.31195894 16.84891004 -49.4213562 16.24542236 C-35.46161464 11.78743977 -21.52707656 7.31767802 -7.81640625 2.1340332 C-2.1652913 0 -2.1652913 0 0 0 Z "
            fill="#000203" transform="translate(265,232)" />
      <path
            d="M0 0 C6.93 0 13.86 0 21 0 C19.63966198 4.08101406 18.39028638 7.4677889 16.49609375 11.23828125 C16.00737793 12.21450439 15.51866211 13.19072754 15.01513672 14.1965332 C14.4945166 15.22480225 13.97389648 16.25307129 13.4375 17.3125 C12.62949951 18.91774536 12.62949951 18.91774536 11.80517578 20.55541992 C7.68573029 28.71177527 3.45536555 36.80309162 -0.85839844 44.85791016 C-3.41994725 49.66437493 -5.93888197 54.49357497 -8.46337891 59.31958008 C-11.23059892 64.59175972 -14.09257499 69.80375104 -17 75 C-23.6 75 -30.2 75 -37 75 C-37.99 72.69 -38.98 70.38 -40 68 C-41.14224893 65.61593604 -42.29638822 63.24383891 -43.4765625 60.87890625 C-43.80320892 60.22160522 -44.12985535 59.5643042 -44.46640015 58.88708496 C-45.51654529 56.7775198 -46.57038883 54.66983569 -47.625 52.5625 C-47.9844873 51.84246796 -48.34397461 51.12243591 -48.71435547 50.38058472 C-52.95453204 41.89656565 -57.26278594 33.4938404 -62.02954102 25.29077148 C-64.78154593 20.5133125 -67.20922645 15.61008723 -69.5625 10.625 C-69.90990234 9.891604 -70.25730469 9.15820801 -70.61523438 8.40258789 C-73 3.26028399 -73 3.26028399 -73 1 C-65.74 1 -58.48 1 -51 1 C-50.18917969 2.77761719 -49.37835937 4.55523437 -48.54296875 6.38671875 C-47.42612829 8.82108857 -46.30809676 11.25486136 -45.1875 13.6875 C-44.89743073 14.31726746 -44.60736145 14.94703491 -44.3085022 15.59588623 C-39.89988174 25.14250289 -35.25937956 34.52519735 -30.25268555 43.77612305 C-29.60746948 44.97362183 -29.60746948 44.97362183 -28.94921875 46.1953125 C-28.57112061 46.88641113 -28.19302246 47.57750977 -27.8034668 48.28955078 C-27 50 -27 50 -27 52 C-24.40670541 49.68410579 -23.05453112 47.40983513 -21.58203125 44.2734375 C-21.13617676 43.33193848 -20.69032227 42.39043945 -20.23095703 41.42041016 C-19.76286621 40.4154248 -19.29477539 39.41043945 -18.8125 38.375 C-18.3263623 37.34552246 -17.84022461 36.31604492 -17.33935547 35.25537109 C-15.10369544 30.51553643 -12.89020643 25.76540654 -10.67578125 21.015625 C-10.32604248 20.26748535 -9.97630371 19.5193457 -9.6159668 18.74853516 C-8.98224751 17.39054296 -8.35187071 16.03098273 -7.72583008 14.66943359 C-5.37143339 9.60560693 -2.73492887 4.92287196 0 0 Z "
            fill="#AEF2EA" transform="translate(962,143)" />
      <path
            d="M0 0 C5.94199389 -0.11535363 11.88004038 -0.21471807 17.82226562 -0.2746582 C19.83965278 -0.2996658 21.85695059 -0.3336834 23.87402344 -0.37719727 C45.75805651 -0.83717323 45.75805651 -0.83717323 53 5 C57.19517152 9.30005081 59.28897613 13.22832934 59.375 19.25 C59.24065025 25.95853099 57.41974102 30.51304395 52.75 35.3125 C45.8432211 39.55075069 39.95950231 40.43288069 32.03125 40.29296875 C31.11033569 40.28872391 30.18942139 40.28447906 29.24060059 40.28010559 C26.32675755 40.26344065 23.41363061 40.22581188 20.5 40.1875 C18.51303089 40.17243739 16.52605083 40.15875175 14.5390625 40.14648438 C9.6922169 40.11614102 4.84690094 40.05739751 0 40 C0 26.8 0 13.6 0 0 Z "
            fill="#010202" transform="translate(438,129)" />
      <path
            d="M0 0 C0 5.94 0 11.88 0 18 C-2.083125 18.103125 -4.16625 18.20625 -6.3125 18.3125 C-15.40554092 18.98299696 -25.40832215 19.99521972 -32 27 C-36.29664141 33.59606723 -37.15187426 39.71989262 -37.31640625 47.484375 C-37.33718735 48.29996887 -37.35796844 49.11556274 -37.37937927 49.95587158 C-37.44461297 52.55383105 -37.50363768 55.15188913 -37.5625 57.75 C-37.60571014 59.514333 -37.64932522 61.27865613 -37.69335938 63.04296875 C-37.80102743 67.36187968 -37.9002951 71.68086854 -38 76 C-44.6 76 -51.2 76 -58 76 C-58.33 51.25 -58.66 26.5 -59 1 C-52.73 1 -46.46 1 -40 1 C-39.505 7.93 -39.505 7.93 -39 15 C-37.6078125 13.453125 -37.6078125 13.453125 -36.1875 11.875 C-25.59898766 1.30792189 -14.2645413 -0.29717794 0 0 Z "
            fill="#B6F5F2" transform="translate(689,142)" />
      <path
            d="M0 0 C4.63348081 3.10114857 7.26653902 6.56616396 9.359375 11.703125 C10.60319162 18.91726138 10.91533763 25.87293219 6.984375 32.328125 C1.40051671 38.73351646 -4.53382596 41.93201764 -12.94921875 42.67578125 C-22.41374909 43.12274969 -30.32790134 42.50124509 -37.65625 35.8359375 C-42.52723436 30.43306405 -43.43311636 25.18936561 -43.25390625 18.171875 C-42.69673547 11.52236144 -41.16529537 6.99225526 -36.203125 2.390625 C-27.2240291 -5.19052782 -10.27351289 -5.03047873 0 0 Z "
            fill="#010303" transform="translate(853.015625,161.671875)" />
      <path
            d="M0 0 C1.73734147 3.80043446 2 5.59714577 2 10 C16.85 10.495 16.85 10.495 32 11 C32 20 32 20 29.9375 22.8125 C23.1551062 27.86321879 16.67262112 31.41298196 8 31 C8 31.66 8 32.32 8 33 C6.02 33.495 6.02 33.495 4 34 C3.7215625 35.8871875 3.7215625 35.8871875 3.4375 37.8125 C3.33308594 38.52019531 3.22867187 39.22789062 3.12109375 39.95703125 C2.86095201 42.2025342 2.86095201 42.2025342 4 45 C4.66 44.67 5.32 44.34 6 44 C8.6723621 43.86584528 11.32250488 43.95681459 14 44 C14 43.34 14 42.68 14 42 C14.94875 41.54625 15.8975 41.0925 16.875 40.625 C20.00313679 39.19761746 20.00313679 39.19761746 22 37 C24.125 37.375 24.125 37.375 26 38 C26.495 37.01 26.495 37.01 27 36 C28.32 36.33 29.64 36.66 31 37 C18.92395384 45.17790936 6.50390178 48.66579466 -8 47 C-15.77394766 44.99488031 -23.81614273 42.16859946 -28.203125 35.046875 C-31.20804124 29.33330188 -32.44210467 24.52104386 -32 18 C-29.43301145 10.29903434 -25.08306033 4.96651379 -18 1 C-11.84492764 -1.53444156 -6.43492319 -0.8610928 0 0 Z "
            fill="#88EDE5" transform="translate(1022,174)" />
      <path
            d="M0 0 C10.89 0 21.78 0 33 0 C33 10.23 33 20.46 33 31 C22.11 31 11.22 31 0 31 C0 20.77 0 10.54 0 0 Z "
            fill="#93F2EF" transform="translate(83,101)" />
      <path
            d="M0 0 C10.89 0 21.78 0 33 0 C33 10.23 33 20.46 33 31 C22.11 31 11.22 31 0 31 C0 20.77 0 10.54 0 0 Z "
            fill="#9DF2EB" transform="translate(83,55)" />
      <path
            d="M0 0 C10.23 0 20.46 0 31 0 C31 10.23 31 20.46 31 31 C20.77 31 10.54 31 0 31 C0 20.77 0 10.54 0 0 Z "
            fill="#98F5F0" transform="translate(132,101)" />
      <path
            d="M0 0 C10.23 0 20.46 0 31 0 C31 9.9 31 19.8 31 30 C20.77 30 10.54 30 0 30 C0 20.1 0 10.2 0 0 Z "
            fill="#A0F6EE" transform="translate(132,55)" />
      <path
            d="M0 0 C1.40428247 0.01507889 2.80858066 0.02876161 4.21289062 0.04101562 C7.62150115 0.07615594 11.0292927 0.12535877 14.4375 0.1875 C14.49337755 1.62846356 14.53327934 3.07005274 14.56640625 4.51171875 C14.59033447 5.31440186 14.6142627 6.11708496 14.63891602 6.9440918 C14.4375 9.1875 14.4375 9.1875 12.375 12 C4.64177043 17.75878798 -2.42642316 20.54233777 -12.0625 20.5 C-12.79597656 20.51611328 -13.52945312 20.53222656 -14.28515625 20.54882812 C-19.93729226 20.5538837 -23.75444841 19.15313611 -28.4375 15.875 C-30.24419051 13.16496424 -30.07017459 11.36046619 -29.5625 8.1875 C-22.64546294 -1.40709979 -10.60084833 -0.19916518 0 0 Z "
            fill="#040C0C" transform="translate(1039.5625,184.8125)" />
      <path
            d="M0 0 C1.28326172 0.00193359 2.56652344 0.00386719 3.88867188 0.00585938 C4.88217651 0.01516479 4.88217651 0.01516479 5.89575195 0.0246582 C7.92997668 0.04300659 9.9637477 0.045167 11.99804688 0.04492188 C21.95749992 0.09007809 21.95749992 0.09007809 24.23828125 1.23046875 C24.17780907 2.81483992 24.08889179 4.39813933 23.98828125 5.98046875 C23.941875 6.8621875 23.89546875 7.74390625 23.84765625 8.65234375 C23.06358902 11.96955125 21.86979472 13.099981 19.23828125 15.23046875 C12.60856209 19.30040943 6.02368714 20.70994712 -1.63671875 20.79296875 C-2.70635864 20.81472168 -2.70635864 20.81472168 -3.79760742 20.83691406 C-8.89225306 20.73890563 -11.85574856 19.44269199 -15.76171875 16.23046875 C-17.76171875 13.23046875 -17.76171875 13.23046875 -17.69921875 10.35546875 C-16.51871978 6.42047218 -14.92187993 4.81605517 -11.76171875 2.23046875 C-7.75582975 0.224698 -4.45235522 -0.01555594 0 0 Z "
            fill="#030808" transform="translate(564.76171875,184.76953125)" />
      <path
            d="M0 0 C89.595 0.495 89.595 0.495 181 1 C176.71604139 3.14197931 174.75583119 3.24557965 170.05407715 3.23377991 C169.35519426 3.23478319 168.65631137 3.23578647 167.93625021 3.23682016 C165.59475632 3.23777266 163.25356276 3.22443069 160.91210938 3.21118164 C159.23330272 3.20898039 157.55449468 3.20767494 155.87568665 3.2071991 C152.26069812 3.20426524 148.6458 3.1950163 145.03083801 3.18089485 C139.31658024 3.15864201 133.60235609 3.1505409 127.88806152 3.14439392 C118.85123771 3.13301028 109.81446364 3.11228198 100.77766752 3.08749622 C84.59123498 3.04317779 68.40478506 3.0099943 52.21830797 2.98725218 C46.53597386 2.97883706 40.85368893 2.96480408 35.17137909 2.94627964 C31.638891 2.93564531 28.10640338 2.92905595 24.57390404 2.92347908 C22.93399273 2.92000521 21.29408406 2.91478748 19.65418434 2.90771103 C17.41807897 2.89827334 15.18204549 2.89498496 12.94592285 2.89320374 C11.6937925 2.88968431 10.44166214 2.88616488 9.15158844 2.8825388 C5.82322796 2.89811005 5.82322796 2.89811005 2 4 C1.67 6.97 1.34 9.94 1 13 C0.67 13 0.34 13 0 13 C0 8.71 0 4.42 0 0 Z "
            fill="#A4F1F0" transform="translate(41,19)" />
      <path
            d="M0 0 C5.05683329 1.30498924 7.76062971 3.2662361 11.375 7 C12.24898437 7.886875 13.12296875 8.77375 14.0234375 9.6875 C16 12 16 12 16 14 C16.57975586 14.25523437 17.15951172 14.51046875 17.75683594 14.7734375 C20.23015312 16.12584777 21.89602109 17.63732524 23.890625 19.625 C24.95410156 20.68460937 24.95410156 20.68460937 26.0390625 21.765625 C26.76867187 22.50296875 27.49828125 23.2403125 28.25 24 C29.36761719 25.10601562 29.36761719 25.10601562 30.5078125 26.234375 C31.21164063 26.94078125 31.91546875 27.6471875 32.640625 28.375 C33.28547852 29.02210938 33.93033203 29.66921875 34.59472656 30.3359375 C36 32 36 32 36 34 C37.32 34.66 38.64 35.32 40 36 C40 36.66 40 37.32 40 38 C40.66 38 41.32 38 42 38 C42 38.66 42 39.32 42 40 C42.556875 40.226875 43.11375 40.45375 43.6875 40.6875 C47.68438886 42.95600449 50.53966649 45.61899946 52 50 C52.66 50 53.32 50 54 50 C54 50.66 54 51.32 54 52 C54.66 52 55.32 52 56 52 C56 52.66 56 53.32 56 54 C56.66 54 57.32 54 58 54 C58 54.66 58 55.32 58 56 C58.66 56 59.32 56 60 56 C60 56.66 60 57.32 60 58 C60.66 58 61.32 58 62 58 C63.38007251 59.2848951 64.70420353 60.63015802 66 62 C69.99763093 66.20563977 69.99763093 66.20563977 75 69 C74.505 70.485 74.505 70.485 74 72 C75.98 72.495 75.98 72.495 78 73 C77.34 73.99 76.68 74.98 76 76 C75.49158569 75.48936508 74.98317139 74.97873016 74.45935059 74.45262146 C69.63750628 69.61063345 64.81317798 64.77113263 59.98613739 59.93432522 C57.5053614 57.44835902 55.02551227 54.9614835 52.54785156 52.47241211 C49.69098377 49.60247167 46.82996269 46.73670258 43.96875 43.87109375 C43.09134155 42.98852402 42.21393311 42.10595428 41.30993652 41.19664001 C36.94460805 36.83091914 32.51506364 32.62823382 27.83288574 28.60481262 C24.9459005 26.07706621 22.23841855 23.38162097 19.53125 20.6640625 C18.96547241 20.09924164 18.39969482 19.53442078 17.81677246 18.95248413 C16.63931676 17.77570138 15.46309233 16.5976854 14.28808594 15.41845703 C12.47966491 13.60460383 10.66586636 11.7962482 8.8515625 9.98828125 C7.7028036 8.83886279 6.55435427 7.68913483 5.40625 6.5390625 C4.86262817 5.9974649 4.31900635 5.45586731 3.75891113 4.89785767 C0 1.11499614 0 1.11499614 0 0 Z "
            fill="#5DDAD9" transform="translate(85,286)" />
      <path
            d="M0 0 C0.33 0 0.66 0 1 0 C1.87794289 34.67173949 2.12885628 69.31783655 2 104 C7.94 104 13.88 104 20 104 C19.98839844 101.84597656 19.97679687 99.69195312 19.96484375 97.47265625 C19.95705263 95.39428861 19.95097619 93.31592257 19.94506836 91.23754883 C19.94002899 89.78929927 19.93319747 88.34105483 19.92456055 86.89282227 C19.91247753 84.81525412 19.90676789 82.73775303 19.90234375 80.66015625 C19.89710693 79.40855713 19.89187012 78.15695801 19.88647461 76.86743164 C20 74 20 74 21 73 C23.67058851 72.85884839 26.32432238 72.95752893 29 73 C29 73.66 29 74.32 29 75 C28.030625 74.979375 27.06125 74.95875 26.0625 74.9375 C23.12534105 74.64381501 23.12534105 74.64381501 22 76 C21.84141158 78.14386657 21.74870702 80.29266838 21.68359375 82.44140625 C21.64169922 83.74658203 21.59980469 85.05175781 21.55664062 86.39648438 C21.51682392 87.7851533 21.47711175 89.17382522 21.4375 90.5625 C21.39432011 91.95509183 21.350706 93.34767028 21.30664062 94.74023438 C21.20014194 98.16002549 21.09952944 101.57999896 21 105 C14.07 105 7.14 105 0 105 C0 70.35 0 35.7 0 0 Z "
            fill="#5CACAB" transform="translate(704,113)" />
      <path
            d="M0 0 C0.33 0 0.66 0 1 0 C1 32.01 1 64.02 1 97 C0.67 97 0.34 97 0 97 C-0.01981934 95.72358643 -0.03963867 94.44717285 -0.06005859 93.13208008 C-0.13622663 88.38888074 -0.224927 83.64598368 -0.31738281 78.90307617 C-0.35562625 76.85170466 -0.39048719 74.80026716 -0.421875 72.7487793 C-0.46762602 69.79712362 -0.52560422 66.84592047 -0.5859375 63.89453125 C-0.59748871 62.97976517 -0.60903992 62.06499908 -0.62094116 61.12251282 C-0.72720333 56.52052074 -1.22486865 53.2716012 -3 49 C-3.18829071 46.28399534 -3.28066751 43.67468872 -3.265625 40.9609375 C-3.26753845 40.19826569 -3.2694519 39.43559387 -3.27142334 38.64981079 C-3.27277948 37.04453194 -3.26912305 35.43924192 -3.26074219 33.83398438 C-3.2500046 31.37605273 -3.26067169 28.918847 -3.2734375 26.4609375 C-3.27211638 24.89843589 -3.26955498 23.33593473 -3.265625 21.7734375 C-3.27169769 20.67181778 -3.27169769 20.67181778 -3.27789307 19.54794312 C-3.24353954 15.81871981 -3.1228762 14.1843143 -1 11 C-0.79594479 8.78002676 -0.79594479 8.78002676 -0.9375 6.4375 C-1.09770992 2.19541985 -1.09770992 2.19541985 0 0 Z "
            fill="#94F8F7" transform="translate(97,182)" />
      <path
            d="M0 0 C0.99 0 1.98 0 3 0 C-0.02452281 8.8372776 -7.35854489 15.42394803 -15.4453125 19.75 C-16.28835938 20.1625 -17.13140625 20.575 -18 21 C-18.76054688 21.4125 -19.52109375 21.825 -20.3046875 22.25 C-31.63343536 27.4619479 -47.24704313 26.45269003 -59 23 C-59 22.67 -59 22.34 -59 22 C-55.535 21.505 -55.535 21.505 -52 21 C-52 21.66 -52 22.32 -52 23 C-51.4225 22.649375 -50.845 22.29875 -50.25 21.9375 C-47.51378529 20.79741054 -46.79124949 21.20250014 -44 22 C-38.66942247 22.32636189 -33.84110037 21.50876569 -28.6484375 20.4375 C-26.04534965 20.00749139 -23.63268411 19.9239658 -21 20 C-21 19.34 -21 18.68 -21 18 C-17.77208445 15.8480563 -16.71599191 15.79913557 -13 16 C-13 14.35 -13 12.7 -13 11 C-12.01 10.67 -11.02 10.34 -10 10 C-10 10.66 -10 11.32 -10 12 C-9.34 12 -8.68 12 -8 12 C-8 11.01 -8 10.02 -8 9 C-6.68 8.67 -5.36 8.34 -4 8 C-4 7.34 -4 6.68 -4 6 C-3 5 -2 4 -1 3 C-0.67 2.01 -0.34 1.02 0 0 Z "
            fill="#7BF0E8" transform="translate(877,196)" />
      <path
            d="M0 0 C0.33 0 0.66 0 1 0 C1.02505615 1.001521 1.0501123 2.00304199 1.07592773 3.03491211 C1.17186553 6.8390253 1.27158868 10.64303231 1.37231445 14.44702148 C1.41497418 16.07687861 1.45667869 17.70676108 1.49731445 19.33666992 C1.77836965 30.5754081 2.26778838 41.78143994 3 53 C3.86779234 48.88339081 4.28761753 44.88927484 4.5625 40.6875 C4.64628906 39.43324219 4.73007812 38.17898437 4.81640625 36.88671875 C4.87699219 35.93410156 4.93757813 34.98148438 5 34 C5.33 34 5.66 34 6 34 C6.33 42.91 6.66 51.82 7 61 C10.63 61 14.26 61 18 61 C18 61.33 18 61.66 18 62 C12.06 62 6.12 62 0 62 C0 41.54 0 21.08 0 0 Z "
            fill="#87E9EA" transform="translate(418,156)" />
      <path
            d="M0 0 C0.33 0 0.66 0 1 0 C1 15.84 1 31.68 1 48 C-5.27 48 -11.54 48 -18 48 C-17.67 46.68 -17.34 45.36 -17 44 C-16.01 44.33 -15.02 44.66 -14 45 C-12.68 45 -11.36 45 -10 45 C-10.66 44.01 -11.32 43.02 -12 42 C-11.01 41.505 -11.01 41.505 -10 41 C-9.401875 41.33 -8.80375 41.66 -8.1875 42 C-5.62018317 43.43194543 -5.62018317 43.43194543 -1 42 C-0.67 28.14 -0.34 14.28 0 0 Z "
            fill="#62BBB9" transform="translate(1074,170)" />
      <path
            d="M0 0 C0.99 0 1.98 0 3 0 C3 0.66 3 1.32 3 2 C4.32 2.66 5.64 3.32 7 4 C7 4.66 7 5.32 7 6 C7.66 6 8.32 6 9 6 C9 6.66 9 7.32 9 8 C9.556875 8.226875 10.11375 8.45375 10.6875 8.6875 C14.68438886 10.95600449 17.53966649 13.61899946 19 18 C19.66 18 20.32 18 21 18 C21 18.66 21 19.32 21 20 C21.66 20 22.32 20 23 20 C23 20.66 23 21.32 23 22 C23.66 22 24.32 22 25 22 C25 22.66 25 23.32 25 24 C25.66 24 26.32 24 27 24 C27 24.66 27 25.32 27 26 C27.66 26 28.32 26 29 26 C30.38007251 27.2848951 31.70420353 28.63015802 33 30 C36.99763093 34.20563977 36.99763093 34.20563977 42 37 C41.67 37.99 41.34 38.98 41 40 C42.32 40.33 43.64 40.66 45 41 C44.34 41.99 43.68 42.98 43 44 C37.39057155 38.41369424 31.78381339 32.8247281 26.18048859 27.23230076 C23.57883884 24.63588001 20.97626277 22.04040187 18.37158203 19.44702148 C15.86015478 16.94642254 13.35114505 14.44342177 10.84382629 11.93870354 C9.88457279 10.98130439 8.92443652 10.02478891 7.96342468 9.06915474 C6.62240364 7.73534331 5.28474539 6.39815344 3.94726562 5.06079102 C3.18337524 4.29912125 2.41948486 3.53745148 1.63244629 2.75270081 C0 1 0 1 0 0 Z "
            fill="#66EAEE" transform="translate(118,318)" />
      <path
            d="M0 0 C0.66 0 1.32 0 2 0 C2 0.66 2 1.32 2 2 C2.66 2.33 3.32 2.66 4 3 C2.35 3.66 0.7 4.32 -1 5 C-1 31.07 -1 57.14 -1 84 C-1.66 84 -2.32 84 -3 84 C-4.15509047 68.49909838 -4.08488548 53.03606312 -4 37.5 C-3.97345957 32.53125254 -3.95350913 27.56254118 -3.9375 22.59375 C-3.92920166 21.45748169 -3.92090332 20.32121338 -3.91235352 19.1505127 C-3.90905029 18.10762085 -3.90574707 17.064729 -3.90234375 15.99023438 C-3.89710693 15.07189819 -3.89187012 14.15356201 -3.88647461 13.20739746 C-3.85439421 10.95730817 -3.85439421 10.95730817 -5 9 C-4.06421005 6.64018187 -3.06652192 4.30368736 -2 2 C-1.34 2 -0.68 2 0 2 C0 1.34 0 0.68 0 0 Z "
            fill="#6DDCDE" transform="translate(194,252)" />
      <path
            d="M0 0 C0.66 0.66 1.32 1.32 2 2 C-1.3340947 4.19097652 -4.04179141 5.43454163 -8 6 C-8.33 6.99 -8.66 7.98 -9 9 C-11.04000973 9.22397733 -13.08216189 9.42848537 -15.125 9.625 C-16.26195312 9.74101562 -17.39890625 9.85703125 -18.5703125 9.9765625 C-22.18042592 10.00123298 -24.63596026 9.22328718 -28 8 C-30.77747682 8.28639786 -30.77747682 8.28639786 -33 9 C-32.34 7.02 -31.68 5.04 -31 3 C-30.50757813 3.15855469 -30.01515625 3.31710938 -29.5078125 3.48046875 C-19.61034538 5.53087861 -8.89668533 4.89645581 0 0 Z "
            fill="#8AEFEE" transform="translate(854,199)" />
      <path
            d="M0 0 C0.33 0 0.66 0 1 0 C1.33 13.53 1.66 27.06 2 41 C2.33 41 2.66 41 3 41 C3 48.92 3 56.84 3 65 C2.01 65.495 2.01 65.495 1 66 C-0.38425411 63.23149177 -0.11959962 60.99580816 -0.11352539 57.89794922 C-0.11344986 56.61677216 -0.11337433 55.33559509 -0.11329651 54.01559448 C-0.10818948 52.61195843 -0.10297348 51.20832277 -0.09765625 49.8046875 C-0.09579146 48.37265065 -0.09436784 46.94061316 -0.09336853 45.50857544 C-0.08954819 41.73726646 -0.07972202 37.96599593 -0.06866455 34.19470215 C-0.05844005 30.34725464 -0.05386868 26.49980093 -0.04882812 22.65234375 C-0.03809933 15.10154497 -0.02102869 7.55077787 0 0 Z "
            fill="#C1FAF9" transform="translate(419,128)" />
      <path
            d="M0 0 C0.33 0 0.66 0 1 0 C1 35.31 1 70.62 1 107 C0.01 106.01 -0.98 105.02 -2 104 C-1.505 103.505 -1.505 103.505 -1 103 C-0.89267567 101.65974458 -0.85321719 100.31396422 -0.84178162 98.96946716 C-0.8319928 98.10143463 -0.82220398 97.2334021 -0.81211853 96.33906555 C-0.80636307 95.37953476 -0.8006076 94.42000397 -0.79467773 93.43139648 C-0.78477814 92.42663269 -0.77487854 91.4218689 -0.76467896 90.38665771 C-0.73295916 87.04816079 -0.70826527 83.70964961 -0.68359375 80.37109375 C-0.66303326 78.06323363 -0.64203704 75.75537736 -0.62062073 73.44752502 C-0.56530653 67.35986433 -0.51593862 61.27216914 -0.46777344 55.18444824 C-0.41762648 48.9777518 -0.36190498 42.77110574 -0.30664062 36.56445312 C-0.19894479 24.37634508 -0.09752537 12.18819337 0 0 Z "
            fill="#081617" transform="translate(82,157)" />
      <path
            d="M0 0 C0.66 0.33 1.32 0.66 2 1 C1.99214478 2.53370239 1.99214478 2.53370239 1.98413086 4.09838867 C1.96579472 7.95449927 1.95446533 11.81060617 1.94506836 15.66674805 C1.94009265 17.32398124 1.93330968 18.98121017 1.92456055 20.63842773 C1.8785458 29.58964867 1.93519979 38.41407472 2.88110352 47.3293457 C3.00378147 50.08493952 2.59694077 52.31888634 2 55 C2.00818103 58.64465034 2.12814225 62.27576025 2.2578125 65.91796875 C2.13019531 67.44357422 2.13019531 67.44357422 2 69 C0.515 69.99 0.515 69.99 -1 71 C-0.67 47.57 -0.34 24.14 0 0 Z "
            fill="#5BEDEB" transform="translate(177,286)" />
      <path
            d="M0 0 C0.66 0 1.32 0 2 0 C1.46644775 4.53519409 -0.36341299 7.3247575 -3 11 C-5.08575008 13.67889722 -5.08575008 13.67889722 -5.3125 15.9375 C-6.3344273 19.00328191 -8.44623727 20.08467795 -11 22 C-11.886875 22.9075 -12.77375 23.815 -13.6875 24.75 C-16 27 -16 27 -18 27 C-16.58255612 24.00662972 -14.94122811 21.32225658 -13.06640625 18.59375 C-12.49986328 17.76746094 -11.93332031 16.94117188 -11.34960938 16.08984375 C-10.75986328 15.23519531 -10.17011719 14.38054687 -9.5625 13.5 C-8.68368164 12.21802734 -8.68368164 12.21802734 -7.78710938 10.91015625 C-6.19987585 8.60047024 -4.61278527 6.29192173 -3 4 C-2.48300537 3.24912109 -1.96601074 2.49824219 -1.43334961 1.72460938 C-0.96034424 1.15548828 -0.48733887 0.58636719 0 0 Z "
            fill="#61E4E5" transform="translate(215,303)" />
      <path
            d="M0 0 C5.8797505 4.87724437 11.26880817 10.13886878 16.65234375 15.5546875 C17.55247696 16.45623566 18.45261017 17.35778381 19.38002014 18.28665161 C21.75072823 20.66198217 24.11924515 23.03945405 26.48669434 25.41802979 C28.91180728 27.85344717 31.33982085 30.28596912 33.76757812 32.71875 C38.51437128 37.47652769 43.25829281 42.2371538 48 47 C45 47 45 47 43.14648438 45.45532227 C42.46908203 44.74947998 41.79167969 44.0436377 41.09375 43.31640625 C40.34996094 42.55392578 39.60617188 41.79144531 38.83984375 41.00585938 C38.06769531 40.19955078 37.29554688 39.39324219 36.5 38.5625 C34.97338644 36.97599426 33.44232906 35.39374913 31.90625 33.81640625 C31.22884766 33.10943604 30.55144531 32.40246582 29.85351562 31.67407227 C28.00377638 29.77837178 28.00377638 29.77837178 25 29 C25 28.01 25 27.02 25 26 C24.34 26 23.68 26 23 26 C21.66796875 24.64453125 21.66796875 24.64453125 20.1875 22.8125 C17.18827111 19.12175989 13.87422267 15.83161988 10.47485352 12.50952148 C8.87619916 10.94674777 7.28181741 9.37969658 5.6875 7.8125 C5.13771484 7.27947266 4.58792969 6.74644531 4.02148438 6.19726562 C2.64284322 4.83575044 1.31660273 3.42159498 0 2 C0 1.34 0 0.68 0 0 Z "
            fill="#6CE4ED" transform="translate(121,301)" />
      <path
            d="M0 0 C1.32 0 2.64 0 4 0 C3.9296875 1.76953125 3.9296875 1.76953125 3 4 C0.69988533 5.42065906 -1.43607066 6.5702659 -3.875 7.6875 C-4.83212891 8.14866211 -4.83212891 8.14866211 -5.80859375 8.61914062 C-10.62563637 10.91704092 -14.21884738 12.1258262 -19.54296875 12.09765625 C-20.61611328 12.09443359 -21.68925781 12.09121094 -22.79492188 12.08789062 C-23.91447266 12.07951172 -25.03402344 12.07113281 -26.1875 12.0625 C-27.31865234 12.05798828 -28.44980469 12.05347656 -29.61523438 12.04882812 C-32.41020927 12.03703498 -35.2050782 12.0205765 -38 12 C-38 11.67 -38 11.34 -38 11 C-36.78183594 10.95101562 -35.56367187 10.90203125 -34.30859375 10.8515625 C-32.68487563 10.77647727 -31.06117874 10.70093198 -29.4375 10.625 C-28.63763672 10.5940625 -27.83777344 10.563125 -27.01367188 10.53125 C-20.88013636 10.23083193 -15.82261378 8.94087126 -10 7 C-9.67 6.01 -9.34 5.02 -9 4 C-8.67 4.66 -8.34 5.32 -8 6 C-6.865625 5.38125 -5.73125 4.7625 -4.5625 4.125 C-3.60537109 3.60292969 -3.60537109 3.60292969 -2.62890625 3.0703125 C-0.83381685 2.08589976 -0.83381685 2.08589976 0 0 Z "
            fill="#6CD1D1" transform="translate(584,208)" />
      <path
            d="M0 0 C0.33 0 0.66 0 1 0 C1 17.16 1 34.32 1 52 C-4.61 52 -10.22 52 -16 52 C-16 51.34 -16 50.68 -16 50 C-11.05 49.67 -6.1 49.34 -1 49 C-0.67 32.83 -0.34 16.66 0 0 Z "
            fill="#72C0C5" transform="translate(609,166)" />
      <path
            d="M0 0 C0.33 0.99 0.66 1.98 1 3 C0.39671875 3.10957031 -0.2065625 3.21914062 -0.828125 3.33203125 C-7.1669313 4.31177106 -7.1669313 4.31177106 -12 8 C-12.22217793 10.29731982 -12.1818684 12.49559393 -12.07421875 14.80078125 C-11.98872203 17.33418396 -12.49193897 19.52320248 -13 22 C-12.99727692 23.37515512 -12.97492237 24.75035147 -12.9375 26.125 C-13 30 -13 30 -15 33 C-15 23.76 -15 14.52 -15 5 C-10 3.33333333 -5 1.66666667 0 0 Z "
            fill="#64F6F0" transform="translate(192,240)" />
      <path
            d="M0 0 C1.65 0 3.3 0 5 0 C-6.53323947 10.09158453 -19.30665745 11.49220875 -34 11 C-34 10.67 -34 10.34 -34 10 C-33.15695312 9.93941406 -32.31390625 9.87882813 -31.4453125 9.81640625 C-30.34960938 9.73261719 -29.25390625 9.64882812 -28.125 9.5625 C-27.03445313 9.48128906 -25.94390625 9.40007812 -24.8203125 9.31640625 C-22.05271029 9.16998297 -22.05271029 9.16998297 -20 8 C-17.3276379 7.86584528 -14.67749512 7.95681459 -12 8 C-12 7.34 -12 6.68 -12 6 C-11.05125 5.54625 -10.1025 5.0925 -9.125 4.625 C-5.99686321 3.19761746 -5.99686321 3.19761746 -4 1 C-1.875 1.375 -1.875 1.375 0 2 C0 1.34 0 0.68 0 0 Z "
            fill="#7BE3DD" transform="translate(1048,210)" />
      <path
            d="M0 0 C0.33 0.99 0.66 1.98 1 3 C1.66 3 2.32 3 3 3 C2.67 4.32 2.34 5.64 2 7 C0.9275 7.226875 -0.145 7.45375 -1.25 7.6875 C-5.64180776 9.22463272 -6.86063762 9.88584159 -9 14 C-9.6146905 17.99548826 -9.87119136 21.96184923 -10 26 C-10.33 26 -10.66 26 -11 26 C-11.91813425 12.61564289 -11.91813425 12.61564289 -7.51171875 6.65625 C-5.1942942 4.11726289 -2.75874209 2.05301737 0 0 Z "
            fill="#8BE9E9" transform="translate(538,177)" />
      <path
            d="M0 0 C11.22 0 22.44 0 34 0 C34 0.33 34 0.66 34 1 C31.94921875 1.22786458 29.8984375 1.45572917 27.84765625 1.68359375 C25.98859771 1.81886614 25.98859771 1.81886614 25 3 C22.13732433 3.07325168 19.299281 3.09238205 16.4375 3.0625 C15.63119141 3.05798828 14.82488281 3.05347656 13.99414062 3.04882812 C11.99606244 3.03700518 9.99802217 3.01906914 8 3 C8 2.34 8 1.68 8 1 C5.36 1 2.72 1 0 1 C0 0.67 0 0.34 0 0 Z "
            fill="#97E3E9" transform="translate(438,169)" />
      <path
            d="M0 0 C1.60875 0.2784375 1.60875 0.2784375 3.25 0.5625 C6.40391546 0.9304568 8.09818492 1.04465343 11 0 C11 0.99 11 1.98 11 3 C11.495 3.825 11.99 4.65 12.5 5.5 C14 8 14 8 14 11 C8.65478385 9.49665796 4.86491984 5.82879909 1 2 C0.67 1.34 0.34 0.68 0 0 Z "
            fill="#8CF1E7" transform="translate(797,204)" />
      <path
            d="M0 0 C0.33 0.66 0.66 1.32 1 2 C1.5775 1.649375 2.155 1.29875 2.75 0.9375 C5.46553768 -0.19397403 6.23405046 0.24405463 9 1 C10.36676632 1.13929356 11.7374567 1.24365301 13.109375 1.31640625 C14.24052734 1.37924805 14.24052734 1.37924805 15.39453125 1.44335938 C16.56048828 1.50233398 16.56048828 1.50233398 17.75 1.5625 C18.93916016 1.62727539 18.93916016 1.62727539 20.15234375 1.69335938 C22.10137815 1.79902991 24.05066748 1.89997966 26 2 C23.50652721 4.49347279 22.71291683 4.25660595 19.2734375 4.265625 C18.32339844 4.26820313 17.37335937 4.27078125 16.39453125 4.2734375 C15.39808594 4.26570312 14.40164063 4.25796875 13.375 4.25 C12.40175781 4.25773438 11.42851563 4.26546875 10.42578125 4.2734375 C4.60339068 4.25776485 -0.41951322 3.67016944 -6 2 C-6 1.67 -6 1.34 -6 1 C-4.02 0.67 -2.04 0.34 0 0 Z "
            fill="#59AFA9" transform="translate(824,217)" />
      <path
            d="M0 0 C0.33 0.66 0.66 1.32 1 2 C1.66 2.33 2.32 2.66 3 3 C2.33333333 6.33333333 1.66666667 9.66666667 1 13 C0.85304688 13.89203125 0.70609375 14.7840625 0.5546875 15.703125 C-0.17817783 18.73780679 -1.75435057 19.89045053 -4 22 C-4.68177416 23.32567199 -5.35191436 24.65753688 -6 26 C-6.66 26.33 -7.32 26.66 -8 27 C-6.9314096 22.90373679 -5.65126138 19.08768079 -4 15.1875 C-1.95569562 10.22167108 -0.85515858 5.28848066 0 0 Z M-10 27 C-9.01 27.495 -9.01 27.495 -8 28 C-8.99 28.495 -8.99 28.495 -10 29 C-10 28.34 -10 27.68 -10 27 Z "
            fill="#A2F3ED" transform="translate(317,150)" />
      <path
            d="M0 0 C0.99 0.33 1.98 0.66 3 1 C5.86515081 1.26466936 8.72975948 1.44396154 11.6015625 1.62109375 C12.78878906 1.80865234 12.78878906 1.80865234 14 2 C14.33 2.66 14.66 3.32 15 4 C6.09 4 -2.82 4 -12 4 C-12.33 3.34 -12.66 2.68 -13 2 C-8.71 2 -4.42 2 0 2 C0 1.34 0 0.68 0 0 Z "
            fill="#6EDAD0" transform="translate(773,214)" />
      <path
            d="M0 0 C0.99 0 1.98 0 3 0 C1.67579939 6.03246945 -1.63099793 8.98129654 -6 13 C-7.00454538 13.99543386 -8.00609739 14.99393956 -9 16 C-9 11.27583198 -7.43694919 9.31362716 -4.6875 5.75 C-4.28337891 5.19570312 -3.87925781 4.64140625 -3.46289062 4.0703125 C-2.26171875 2.484375 -2.26171875 2.484375 0 0 Z "
            fill="#71E8E7" transform="translate(263,235)" />
      <path
            d="M0 0 C0.33 0.66 0.66 1.32 1 2 C1.66 2.33 2.32 2.66 3 3 C-0.22791555 5.1519437 -1.28400809 5.20086443 -5 5 C-5.33 5.66 -5.66 6.32 -6 7 C-8.64860427 7.59355614 -11.29197322 7.74209269 -14 8 C-14 7.34 -14 6.68 -14 6 C-16.64 6 -19.28 6 -22 6 C-22 5.67 -22 5.34 -22 5 C-21.24976563 4.97421875 -20.49953125 4.9484375 -19.7265625 4.921875 C-12.43302406 4.51769907 -6.59414005 3.13659316 0 0 Z "
            fill="#78E6E5" transform="translate(582,200)" />
      <path
            d="M0 0 C0.66 0 1.32 0 2 0 C2 0.66 2 1.32 2 2 C2.70125 2.226875 3.4025 2.45375 4.125 2.6875 C7.69343613 4.31656867 10.06514511 6.40640731 13 9 C12.67 10.65 12.34 12.3 12 14 C8.34683329 12.75023244 7.21934164 12.32901247 5 9 C5 7.68 5 6.36 5 5 C4.34 5 3.68 5 3 5 C3 4.34 3 3.68 3 3 C2.01 3 1.02 3 0 3 C0 2.01 0 1.02 0 0 Z "
            fill="#A6F8EF" transform="translate(278,48)" />
      <path
            d="M0 0 C0.66 0.66 1.32 1.32 2 2 C1.30132812 2.97582031 0.60265625 3.95164062 -0.1171875 4.95703125 C-1.03648348 6.24216951 -1.95575293 7.52732675 -2.875 8.8125 C-3.33519531 9.45509766 -3.79539063 10.09769531 -4.26953125 10.75976562 C-4.71425781 11.38173828 -5.15898437 12.00371094 -5.6171875 12.64453125 C-6.02565918 13.21534424 -6.43413086 13.78615723 -6.85498047 14.37426758 C-7.92862832 15.89866439 -8.9657399 17.44860985 -10 19 C-11.32 19 -12.64 19 -14 19 C-14 17 -14 17 -12.125 14.875 C-10 13 -10 13 -8 13 C-7.7525 12.29875 -7.505 11.5975 -7.25 10.875 C-5.82819762 7.60485452 -4.12753712 4.858878 -2 2 C-1.34 2 -0.68 2 0 2 C0 1.34 0 0.68 0 0 Z "
            fill="#62E8E3" transform="translate(255,268)" />
      <path
            d="M0 0 C0.66 0.33 1.32 0.66 2 1 C0.68 3.31 -0.64 5.62 -2 8 C-8.6 8 -15.2 8 -22 8 C-22 7.34 -22 6.68 -22 6 C-20.73542969 5.96261719 -19.47085938 5.92523438 -18.16796875 5.88671875 C-16.5077827 5.82106167 -14.84762778 5.75461424 -13.1875 5.6875 C-12.35412109 5.66494141 -11.52074219 5.64238281 -10.66210938 5.61914062 C-9.85966797 5.58369141 -9.05722656 5.54824219 -8.23046875 5.51171875 C-7.49207764 5.48553467 -6.75368652 5.45935059 -5.99291992 5.43237305 C-3.49054723 4.8894719 -2.59873659 3.96196281 -1 2 C-0.67 1.34 -0.34 0.68 0 0 Z "
            fill="#69CEC7" transform="translate(947,210)" />
      <path
            d="M0 0 C5.11790246 1.30574051 7.7614885 3.31616356 11.375 7.125 C12.24898437 8.03507812 13.12296875 8.94515625 14.0234375 9.8828125 C14.67570312 10.58148438 15.32796875 11.28015625 16 12 C15.67 12.99 15.34 13.98 15 15 C9.72997792 10.60831493 4.64697949 6.0573621 0 1 C0 0.67 0 0.34 0 0 Z "
            fill="#66E2E0" transform="translate(85,286)" />
      <path
            d="M0 0 C7.26 0 14.52 0 22 0 C22.33 1.65 22.66 3.3 23 5 C22.34 4.67 21.68 4.34 21 4 C21 3.34 21 2.68 21 2 C14.25766581 1.87089147 7.69613196 2.202163 1 3 C0.67 2.01 0.34 1.02 0 0 Z "
            fill="#CEEEEB" transform="translate(889,144)" />
      <path
            d="M0 0 C1.32 0.33 2.64 0.66 4 1 C-1.445 7.93 -1.445 7.93 -7 15 C-7.33 14.34 -7.66 13.68 -8 13 C-7.25 10.75 -7.25 10.75 -6 8 C-5.525625 6.948125 -5.05125 5.89625 -4.5625 4.8125 C-3 2 -3 2 0 0 Z "
            fill="#60EBEA" transform="translate(202,342)" />
      <path
            d="M0 0 C5.64426769 4.68354127 11.0058046 9.6207646 16 15 C16 15.33 16 15.66 16 16 C13.69 16 11.38 16 9 16 C8.938125 15.0925 8.87625 14.185 8.8125 13.25 C7.7995215 9.19808599 6.3718069 8.32815238 3 6 C1.1875 4.4375 1.1875 4.4375 0 3 C0 2.01 0 1.02 0 0 Z "
            fill="#8DECEC" transform="translate(770,200)" />
      <path
            d="M0 0 C1.10151387 3.30454161 1.05581759 3.83254722 0 7 C-0.391875 8.19625 -0.78375 9.3925 -1.1875 10.625 C-3 14 -3 14 -6.1875 15.4375 C-7.115625 15.623125 -8.04375 15.80875 -9 16 C-11 14 -11 14 -12 12 C-11.34 11.01 -10.68 10.02 -10 9 C-9.34 10.65 -8.68 12.3 -8 14 C-5.08975798 11.49941082 -3.83208836 8.80344623 -2.3125 5.3125 C-1.87550781 4.31863281 -1.43851563 3.32476562 -0.98828125 2.30078125 C-0.66214844 1.54152344 -0.33601562 0.78226563 0 0 Z "
            fill="#8AE3E4" transform="translate(943,181)" />
      <path
            d="M0 0 C0 3.3 0 6.6 0 10 C-3.3 10 -6.6 10 -10 10 C-8.68 9.01 -7.36 8.02 -6 7 C-5.835 6.34 -5.67 5.68 -5.5 5 C-4.8768204 2.50728162 -2.82492797 0 0 0 Z "
            fill="#8EF2EC" transform="translate(609,206)" />
      <path
            d="M0 0 C0 0.99 0 1.98 0 3 C-2.60951236 4.30475618 -4.52701285 4.11301572 -7.4453125 4.09765625 C-9.05986328 4.09282227 -9.05986328 4.09282227 -10.70703125 4.08789062 C-11.83496094 4.07951172 -12.96289062 4.07113281 -14.125 4.0625 C-15.26066406 4.05798828 -16.39632812 4.05347656 -17.56640625 4.04882812 C-20.37765638 4.03701615 -23.1888023 4.02054507 -26 4 C-26 3.67 -26 3.34 -26 3 C-24.73542969 2.95101562 -23.47085938 2.90203125 -22.16796875 2.8515625 C-20.50779053 2.7765262 -18.84763536 2.70097873 -17.1875 2.625 C-16.35412109 2.5940625 -15.52074219 2.563125 -14.66210938 2.53125 C-13.85966797 2.49257812 -13.05722656 2.45390625 -12.23046875 2.4140625 C-11.12288208 2.36693115 -11.12288208 2.36693115 -9.99291992 2.31884766 C-6.08063469 1.69292036 -4.28284672 -0.23150523 0 0 Z "
            fill="#A8E2DD" transform="translate(228,73)" />
      <path
            d="M0 0 C0.66 0.66 1.32 1.32 2 2 C-6.44237243 7.62824829 -13.19655972 7.09090914 -23 6 C-23 5.67 -23 5.34 -23 5 C-21.76636719 4.96132812 -21.76636719 4.96132812 -20.5078125 4.921875 C-12.92502704 4.53660645 -6.83785264 3.31859665 0 0 Z "
            fill="#68CDD1" transform="translate(854,199)" />
      <path
            d="M0 0 C0.66 0 1.32 0 2 0 C0.6077541 4.62675657 -1.29520984 8.64686231 -3.625 12.875 C-4.25664063 14.02742187 -4.88828125 15.17984375 -5.5390625 16.3671875 C-6.02117188 17.23601562 -6.50328125 18.10484375 -7 19 C-7.66 18.01 -8.32 17.02 -9 16 C-8.690625 15.401875 -8.38125 14.80375 -8.0625 14.1875 C-6.89790296 11.91043228 -6.89790296 11.91043228 -6 9 C-5.34 8.67 -4.68 8.34 -4 8 C-2.87775145 6.11986894 -2.87775145 6.11986894 -1.875 3.9375 C-1.34519531 2.83728516 -1.34519531 2.83728516 -0.8046875 1.71484375 C-0.53914062 1.14894531 -0.27359375 0.58304688 0 0 Z "
            fill="#84E9E1" transform="translate(960,184)" />
      <path
            d="M0 0 C1.175625 0.185625 2.35125 0.37125 3.5625 0.5625 C4.366875 0.706875 5.17125 0.85125 6 1 C6 1.33 6 1.66 6 2 C-3.24 2 -12.48 2 -22 2 C-22 1.67 -22 1.34 -22 1 C-14.41159184 -0.41916134 -7.6268578 -1.40897775 0 0 Z "
            fill="#97ECE5" transform="translate(1048,183)" />
      <path
            d="M0 0 C0.66 0.33 1.32 0.66 2 1 C-2.42154487 6.56838307 -6.72861435 10.61182282 -13 14 C-13.33 13.01 -13.66 12.02 -14 11 C-13.195625 10.71125 -12.39125 10.4225 -11.5625 10.125 C-8.8673532 9.26737432 -8.8673532 9.26737432 -8 7 C-7.34 7 -6.68 7 -6 7 C-6 6.34 -6 5.68 -6 5 C-4.04072937 3.2856382 -2.04119788 1.61594832 0 0 Z "
            fill="#84EBEB" transform="translate(510,168)" />
      <path
            d="M0 0 C0.66 0 1.32 0 2 0 C5 6.625 5 6.625 5 10 C4.01 10.33 3.02 10.66 2 11 C2 10.34 2 9.68 2 9 C1.01 8.67 0.02 8.34 -1 8 C-1.04241723 5.66705225 -1.04092937 3.33297433 -1 1 C-0.67 0.67 -0.34 0.34 0 0 Z "
            fill="#BDEFEB" transform="translate(919,165)" />
      <path
            d="M0 0 C0.99 0.33 1.98 0.66 3 1 C-1.95 7.93 -1.95 7.93 -7 15 C-7.66 14.67 -8.32 14.34 -9 14 C-8.39816251 11.97954558 -7.72693904 9.97888961 -7 8 C-6.34 7.67 -5.68 7.34 -5 7 C-4.67 6.01 -4.34 5.02 -4 4 C-2.70644173 2.62804426 -1.37701298 1.28817344 0 0 Z "
            fill="#5DE6E1" transform="translate(241,288)" />
      <path
            d="M0 0 C8.91 0 17.82 0 27 0 C25.35 1.98 23.7 3.96 22 6 C21.67 4.68 21.34 3.36 21 2 C14.07 1.67 7.14 1.34 0 1 C0 0.67 0 0.34 0 0 Z "
            fill="#B4DBDE" transform="translate(761,143)" />
      <path
            d="M0 0 C0.66 0 1.32 0 2 0 C2 3.3 2 6.6 2 10 C-0.64 9.67 -3.28 9.34 -6 9 C-5.38125 8.443125 -4.7625 7.88625 -4.125 7.3125 C-1.93893621 4.93354822 -1.01214301 3.03642904 0 0 Z "
            fill="#99F6EF" transform="translate(435,208)" />
      <path
            d="M0 0 C2.66769422 0.15243967 4.44334709 0.44650989 6.375 2.3671875 C7.60348251 3.89547824 8.80289981 5.44700516 10 7 C10.66 7.33 11.32 7.66 12 8 C11.67 9.32 11.34 10.64 11 12 C9.16364422 10.19047409 7.33083792 8.37759362 5.5 6.5625 C4.97535156 6.04623047 4.45070313 5.52996094 3.91015625 4.99804688 C2.58775448 3.68423213 1.29164432 2.34406495 0 1 C0 0.67 0 0.34 0 0 Z "
            fill="#8CEEE5" transform="translate(739,194)" />
      <path
            d="M0 0 C10.89 0 21.78 0 33 0 C31 2 31 2 28.34204102 2.21118164 C27.24045654 2.19434326 26.13887207 2.17750488 25.00390625 2.16015625 C23.80572266 2.14919922 22.60753906 2.13824219 21.37304688 2.12695312 C20.11556641 2.10568359 18.85808594 2.08441406 17.5625 2.0625 C15.08469317 2.02810371 12.60682266 1.9979547 10.12890625 1.97265625 C9.02619385 1.95468994 7.92348145 1.93672363 6.78735352 1.91821289 C3.91408943 1.86848839 3.91408943 1.86848839 1 3 C0.67 2.01 0.34 1.02 0 0 Z "
            fill="#A3FBFB" transform="translate(83,101)" />
      <path
            d="M0 0 C0.33 0 0.66 0 1 0 C1 5.28 1 10.56 1 16 C-2 12 -2 12 -2 8 C-2.99 7.67 -3.98 7.34 -5 7 C-4.34 7 -3.68 7 -3 7 C-3 6.01 -3 5.02 -3 4 C-2.34 3.67 -1.68 3.34 -1 3 C-0.67 2.01 -0.34 1.02 0 0 Z "
            fill="#B5F5ED" transform="translate(608,164)" />
      <path
            d="M0 0 C0.33 0.99 0.66 1.98 1 3 C-0.65234375 5.69921875 -0.65234375 5.69921875 -2.9375 8.6875 C-3.68902344 9.68136719 -4.44054687 10.67523438 -5.21484375 11.69921875 C-5.80394531 12.45847656 -6.39304688 13.21773438 -7 14 C-7.66 13.67 -8.32 13.34 -9 13 C-6.25 7.125 -6.25 7.125 -4 6 C-4 4.68 -4 3.36 -4 2 C-2.68 1.34 -1.36 0.68 0 0 Z "
            fill="#5CE9E4" transform="translate(226,310)" />
      <path
            d="M0 0 C0.99 0 1.98 0 3 0 C3 1.32 3 2.64 3 4 C3.763125 4.103125 4.52625 4.20625 5.3125 4.3125 C8 5 8 5 11 8 C8.03 8 5.06 8 2 8 C2 7.34 2 6.68 2 6 C1.34 6 0.68 6 0 6 C0 4.02 0 2.04 0 0 Z "
            fill="#8AEEE7" transform="translate(1055,208)" />
      <path
            d="M0 0 C4.62 0.66 9.24 1.32 14 2 C13.67 2.66 13.34 3.32 13 4 C11.00773831 4.28919928 9.01277818 4.57264551 7.0078125 4.75390625 C4.79670732 4.9575063 4.79670732 4.9575063 2 6 C1.34 4.02 0.68 2.04 0 0 Z "
            fill="#8BEEEA" transform="translate(554,204)" />
      <path
            d="M0 0 C2 3 2 3 1.75 5.19140625 C0.98438986 7.61185081 0.24142939 9.7816382 -1 12 C-4.1875 13.5625 -4.1875 13.5625 -7 14 C-5.83024607 11.46553315 -4.52774442 9.31308279 -2.9375 7 C-1.3098164 4.47971572 -0.44658072 2.90277468 0 0 Z "
            fill="#7FE6E6" transform="translate(862,186)" />
      <path
            d="M0 0 C7.19989839 0.2666629 12.20641863 2.74233883 18 7 C18.33 7.66 18.66 8.32 19 9 C17.5164999 8.57742724 16.03823576 8.13643678 14.5625 7.6875 C13.73878906 7.44386719 12.91507813 7.20023438 12.06640625 6.94921875 C11.38449219 6.63597656 10.70257812 6.32273438 10 6 C9.67 5.01 9.34 4.02 9 3 C7.02 3 5.04 3 3 3 C3 2.34 3 1.68 3 1 C2.01 0.67 1.02 0.34 0 0 Z "
            fill="#C5E8EB" transform="translate(1048,144)" />
      <path
            d="M0 0 C0.66 0 1.32 0 2 0 C2.33 0.99 2.66 1.98 3 3 C-1.21896866 5.04898287 -4.65372146 5.21207997 -9.3125 5.125 C-10.56675781 5.10695312 -11.82101562 5.08890625 -13.11328125 5.0703125 C-14.06589844 5.04710937 -15.01851562 5.02390625 -16 5 C-12.59648662 2.96780512 -9.6767073 2.63108961 -5.75 2.375 C-4.67234375 2.30023438 -3.5946875 2.22546875 -2.484375 2.1484375 C-1.66453125 2.09945312 -0.8446875 2.05046875 0 2 C0 1.34 0 0.68 0 0 Z "
            fill="#77E6DC" transform="translate(856,214)" />
      <path
            d="M0 0 C0.66 0 1.32 0 2 0 C2 1.32 2 2.64 2 4 C0.68 4.33 -0.64 4.66 -2 5 C-1.67 5.99 -1.34 6.98 -1 8 C-2.32 7.67 -3.64 7.34 -5 7 C-5 7.66 -5 8.32 -5 9 C-6.32 8.67 -7.64 8.34 -9 8 C-6.31158141 5.74754119 -4.35358125 4.11786042 -1 3 C-0.67 2.01 -0.34 1.02 0 0 Z "
            fill="#80E3E1" transform="translate(1053,194)" />
      <path
            d="M0 0 C0.33 0 0.66 0 1 0 C1.12117188 1.27617188 1.24234375 2.55234375 1.3671875 3.8671875 C1.53599491 5.53650526 1.7052911 7.20577365 1.875 8.875 C1.95363281 9.71675781 2.03226562 10.55851562 2.11328125 11.42578125 C2.19707031 12.23144531 2.28085938 13.03710938 2.3671875 13.8671875 C2.44050293 14.61081543 2.51381836 15.35444336 2.58935547 16.12060547 C2.87391282 18.23382504 2.87391282 18.23382504 5 20 C3.35 20 1.7 20 0 20 C0 13.4 0 6.8 0 0 Z "
            fill="#ADFBF7" transform="translate(84,65)" />
      <path
            d="M0 0 C1.22589844 0.01353516 1.22589844 0.01353516 2.4765625 0.02734375 C3.41628906 0.04474609 3.41628906 0.04474609 4.375 0.0625 C-0.60290658 3.38110439 -5.01690095 3.19227499 -10.875 3.125 C-11.62007812 3.12048828 -12.36515625 3.11597656 -13.1328125 3.11132812 C-14.9635764 3.09959246 -16.79429873 3.0816585 -18.625 3.0625 C-18.625 2.7325 -18.625 2.4025 -18.625 2.0625 C-17.78195312 2.00191406 -16.93890625 1.94132813 -16.0703125 1.87890625 C-14.97460938 1.79511719 -13.87890625 1.71132812 -12.75 1.625 C-11.65945313 1.54378906 -10.56890625 1.46257812 -9.4453125 1.37890625 C-6.00346535 0.99277104 -3.55650991 -0.05080728 0 0 Z "
            fill="#56A5A5" transform="translate(1032.625,217.9375)" />
      <path
            d="M0 0 C0.99 0 1.98 0 3 0 C3 0.66 3 1.32 3 2 C4.32 2.66 5.64 3.32 7 4 C7 4.66 7 5.32 7 6 C7.66 6 8.32 6 9 6 C9 6.66 9 7.32 9 8 C10.32 8.66 11.64 9.32 13 10 C13 10.66 13 11.32 13 12 C9.34435261 10.46563424 7.01301377 8.25017578 4.25 5.4375 C3.45078125 4.63183594 2.6515625 3.82617188 1.828125 2.99609375 C0 1 0 1 0 0 Z "
            fill="#68F0F1" transform="translate(118,318)" />
      <path
            d="M0 0 C2.475 0.495 2.475 0.495 5 1 C5 1.66 5 2.32 5 3 C5.61875 3.28875 6.2375 3.5775 6.875 3.875 C9 5 9 5 11 7 C10.67 7.99 10.34 8.98 10 10 C8.33037631 8.52417192 6.6643694 7.04425109 5 5.5625 C4.071875 4.73878906 3.14375 3.91507813 2.1875 3.06640625 C1.465625 2.38449219 0.74375 1.70257813 0 1 C0 0.67 0 0.34 0 0 Z "
            fill="#7EE1DC" transform="translate(797,204)" />
      <path
            d="M0 0 C0.33 0 0.66 0 1 0 C1.06058594 0.89203125 1.12117188 1.7840625 1.18359375 2.703125 C1.26738281 3.87359375 1.35117187 5.0440625 1.4375 6.25 C1.51871094 7.41015625 1.59992188 8.5703125 1.68359375 9.765625 C1.89725234 12.8577601 1.89725234 12.8577601 2.59375 15.21875 C3.24818175 18.08818151 2.03225227 20.32828825 1 23 C0.67 23 0.34 23 0 23 C0 15.41 0 7.82 0 0 Z "
            fill="#ADF8F4" transform="translate(315,117)" />
      <path
            d="M0 0 C2 2 2 2 2.375 4.9375 C2.69292523 8.10467484 2.69292523 8.10467484 5.0625 9.75 C5.701875 10.1625 6.34125 10.575 7 11 C7 11.66 7 12.32 7 13 C4.06832781 12.68306247 2.41017339 12.36774166 0.1875 10.375 C-1.42928574 7.14142853 -1.26890518 4.56299364 -1 1 C-0.67 0.67 -0.34 0.34 0 0 Z "
            fill="#85F1EB" transform="translate(546,192)" />
      <path
            d="M0 0 C0 0.66 0 1.32 0 2 C-0.66 2 -1.32 2 -2 2 C-2 2.66 -2 3.32 -2 4 C-4.64738916 5.4606285 -5.89448334 6 -9 6 C-9 4.68 -9 3.36 -9 2 C-5.62902617 0.50178941 -3.79557881 0 0 0 Z "
            fill="#D0F5F3" transform="translate(543,158)" />
      <path
            d="M0 0 C0.33 0.99 0.66 1.98 1 3 C-0.41538717 3.33872513 -1.83237963 3.67074624 -3.25 4 C-4.03890625 4.185625 -4.8278125 4.37125 -5.640625 4.5625 C-8 5 -8 5 -12 5 C-9.65085508 2.65085508 -8.04320554 2.26859643 -4.875 1.375 C-3.96492187 1.11460937 -3.05484375 0.85421875 -2.1171875 0.5859375 C-1.41851562 0.39257812 -0.71984375 0.19921875 0 0 Z "
            fill="#6DEEEC" transform="translate(192,240)" />
      <path
            d="M0 0 C0.99 0.33 1.98 0.66 3 1 C0.69 4.3 -1.62 7.6 -4 11 C-4.66 10.67 -5.32 10.34 -6 10 C-4.6302836 6.00499382 -2.74277578 3.19990508 0 0 Z "
            fill="#64E0E0" transform="translate(223,292)" />
      <path
            d="M0 0 C0.33 0 0.66 0 1 0 C0.02766798 8.26482213 0.02766798 8.26482213 -2 12 C-3.98 12.99 -3.98 12.99 -6 14 C-4.02 9.38 -2.04 4.76 0 0 Z "
            fill="#76DEE3" transform="translate(306,166)" />
      <path
            d="M0 0 C2 3 2 3 3 6 C2.67 6.99 2.34 7.98 2 9 C0.68 8.34 -0.64 7.68 -2 7 C-2 5.35 -2 3.7 -2 2 C-1.34 2 -0.68 2 0 2 C0 1.34 0 0.68 0 0 Z "
            fill="#9DF3E9" transform="translate(810,188)" />
      <path
            d="M0 0 C2.88437779 1.29299694 4.87219421 2.65941363 7 5 C6.67 5.99 6.34 6.98 6 8 C3.69 6.02 1.38 4.04 -1 2 C-0.67 1.34 -0.34 0.68 0 0 Z "
            fill="#86D7CA" transform="translate(285,59)" />
      <path
            d="M0 0 C3.3125 -0.25 3.3125 -0.25 7 0 C8.9375 2 8.9375 2 10 4 C9.34 4.66 8.68 5.32 8 6 C6.66402348 5.19185349 5.331275 4.37836819 4 3.5625 C3.2575 3.11003906 2.515 2.65757812 1.75 2.19140625 C1.1725 1.79824219 0.595 1.40507812 0 1 C0 0.67 0 0.34 0 0 Z "
            fill="#85E5E1" transform="translate(533,212)" />
      <path
            d="M0 0 C0.33 1.65 0.66 3.3 1 5 C-2.37503669 3.8141763 -4.64722731 2.72426311 -7 0 C-3.98968256 -0.93423645 -3.13349732 -1.04449911 0 0 Z "
            fill="#7EE6E2" transform="translate(1004,212)" />
      <path
            d="M0 0 C0.33 0.66 0.66 1.32 1 2 C1.66 2.33 2.32 2.66 3 3 C-0.45245824 5.30163882 -1.94738713 5.34490322 -6 5 C-6.66 4.34 -7.32 3.68 -8 3 C-5.36 2.01 -2.72 1.02 0 0 Z "
            fill="#7CDCDC" transform="translate(582,200)" />
      <path
            d="M0 0 C2.7856426 1.3928213 3.52376361 3.30426398 5 6 C5.33 6.99 5.66 7.98 6 9 C5.34 9.66 4.68 10.32 4 11 C0 4.5 0 4.5 0 0 Z "
            fill="#80DDD2" transform="translate(791,191)" />
      <path
            d="M0 0 C-1.82274953 1.21516636 -3.6719181 2.39331792 -5.5625 3.5 C-8.06417819 4.9097645 -8.06417819 4.9097645 -10 7 C-10 4 -10 4 -9 1 C-3.79245283 -1.26415094 -3.79245283 -1.26415094 0 0 Z "
            fill="#84E8DA" transform="translate(558,185)" />
      <path
            d="M0 0 C0.66 0 1.32 0 2 0 C0.66958425 8.35010941 0.66958425 8.35010941 -2.125 11.0625 C-2.74375 11.371875 -3.3625 11.68125 -4 12 C-2.87204037 7.89100419 -1.66489182 3.92438786 0 0 Z M-6 12 C-5.01 12.495 -5.01 12.495 -4 13 C-4.99 13.495 -4.99 13.495 -6 14 C-6 13.34 -6 12.68 -6 12 Z "
            fill="#9AF0E7" transform="translate(313,165)" />
      <path
            d="M0 0 C0.66 0.33 1.32 0.66 2 1 C1 4 1 4 -2.25 5.6875 C-5.54126631 6.83944321 -7.5872117 7.31025348 -11 7 C-10.46375 6.7525 -9.9275 6.505 -9.375 6.25 C-6.10155465 4.52713402 -2.63127385 2.63127385 0 0 Z "
            fill="#9CE7EE" transform="translate(493,161)" />
      <path
            d="M0 0 C1.67542976 0.28604898 3.34385343 0.61781233 5 1 C5 1.66 5 2.32 5 3 C-0.28 3 -5.56 3 -11 3 C-11 2.67 -11 2.34 -11 2 C-10.28972656 1.93941406 -9.57945312 1.87882813 -8.84765625 1.81640625 C-7.46900391 1.69072266 -7.46900391 1.69072266 -6.0625 1.5625 C-5.14597656 1.48128906 -4.22945312 1.40007812 -3.28515625 1.31640625 C-1.03840268 1.23955024 -1.03840268 1.23955024 0 0 Z "
            fill="#80EAE6" transform="translate(555,216)" />
      <path
            d="M0 0 C0.99 0 1.98 0 3 0 C3.33 2.97 3.66 5.94 4 9 C3.01 9.33 2.02 9.66 1 10 C-0.25541557 6.23375329 0.62938042 4.62811066 2 1 C1.34 0.67 0.68 0.34 0 0 Z "
            fill="#5CC5C0" transform="translate(587,185)" />
      <path
            d="M0 0 C0.66 0 1.32 0 2 0 C1.71517632 1.41805831 1.42181856 2.83440379 1.125 4.25 C0.88136719 5.43335938 0.88136719 5.43335938 0.6328125 6.640625 C0.00849925 8.96831144 -0.84838542 10.89031952 -2 13 C-2.16682272 8.07872966 -2.24828052 4.49656104 0 0 Z "
            fill="#6EDFE3" transform="translate(326,152)" />
      <path
            d="M0 0 C0.33 0 0.66 0 1 0 C1.05416188 1.60379341 1.09286638 3.20811406 1.125 4.8125 C1.14820313 5.70582031 1.17140625 6.59914062 1.1953125 7.51953125 C1 10 1 10 -1 13 C-2.0070238 7.96488101 -1.97387813 4.76052962 0 0 Z "
            fill="#A0F7F3" transform="translate(329,134)" />
      <path
            d="M0 0 C0.433125 0.9590625 0.433125 0.9590625 0.875 1.9375 C1.82823451 4.15206079 1.82823451 4.15206079 4 5 C3.01 5.99 2.02 6.98 1 8 C-0.32 6.02 -1.64 4.04 -3 2 C-2.01 1.34 -1.02 0.68 0 0 Z "
            fill="#55E2E0" transform="translate(177,371)" />
      <path
            d="M0 0 C0 0.66 0 1.32 0 2 C-1.4370809 2.05422947 -2.87475462 2.09289723 -4.3125 2.125 C-5.11300781 2.14820313 -5.91351562 2.17140625 -6.73828125 2.1953125 C-9 2 -9 2 -12 0 C-3.42857143 -1.28571429 -3.42857143 -1.28571429 0 0 Z "
            fill="#6EE1DB" transform="translate(1020,218)" />
      <path
            d="M0 0 C0.66 0 1.32 0 2 0 C2 0.99 2 1.98 2 3 C-3.28 3 -8.56 3 -14 3 C-14 2.34 -14 1.68 -14 1 C-13.07316406 1.01160156 -12.14632813 1.02320313 -11.19140625 1.03515625 C-9.39509766 1.04869141 -9.39509766 1.04869141 -7.5625 1.0625 C-5.77005859 1.07990234 -5.77005859 1.07990234 -3.94140625 1.09765625 C-1.11126659 1.33901792 -1.11126659 1.33901792 0 0 Z "
            fill="#76E4DB" transform="translate(1072,214)" />
      <path
            d="M0 0 C1 3 1 3 0.125 5.1875 C-3.21413695 8.0355874 -6.78484599 7.31812483 -11 7 C-11 6.67 -11 6.34 -11 6 C-9.906875 5.690625 -8.81375 5.38125 -7.6875 5.0625 C-5.44592006 4.41662103 -3.2130649 3.7376883 -1 3 C-0.67 2.01 -0.34 1.02 0 0 Z "
            fill="#7BE4DE" transform="translate(575,212)" />
      <path
            d="M0 0 C-0.33 1.65 -0.66 3.3 -1 5 C-1.33 4.34 -1.66 3.68 -2 3 C-3.65 3.66 -5.3 4.32 -7 5 C-7 5.66 -7 6.32 -7 7 C-8.32 6.67 -9.64 6.34 -11 6 C-9.54550599 4.9944239 -8.08627557 3.99569565 -6.625 3 C-5.40683594 2.1646875 -5.40683594 2.1646875 -4.1640625 1.3125 C-2 0 -2 0 0 0 Z "
            fill="#071D21" transform="translate(1056,209)" />
      <path
            d="M0 0 C1.32 0 2.64 0 4 0 C3.67 1.32 3.34 2.64 3 4 C-0.28696233 4.79953138 -1.71023192 5.09658936 -5 4 C-4.360625 3.71125 -3.72125 3.4225 -3.0625 3.125 C-0.84793921 2.17176549 -0.84793921 2.17176549 0 0 Z "
            fill="#7CEAE0" transform="translate(584,208)" />
      <path
            d="M0 0 C0.66 0 1.32 0 2 0 C1.7452486 1.31571603 1.47065859 2.62760376 1.1875 3.9375 C1.03667969 4.66839844 0.88585937 5.39929688 0.73046875 6.15234375 C0.48941406 6.76207031 0.24835937 7.37179688 0 8 C-0.99 8.33 -1.98 8.66 -3 9 C-2.5020163 5.26512223 -2.12508244 3.18762365 0 0 Z "
            fill="#9AE2E8" transform="translate(948,172)" />
      <path
            d="M0 0 C0.33 0.66 0.66 1.32 1 2 C1.66 2 2.32 2 3 2 C3.33 4.64 3.66 7.28 4 10 C1.9754262 8.06745228 0.57894208 6.36841312 -1 4 C-0.625 1.8125 -0.625 1.8125 0 0 Z "
            fill="#9EEBE3" transform="translate(304,81)" />
      <path
            d="M0 0 C1.32 0.33 2.64 0.66 4 1 C3.67 1.99 3.34 2.98 3 4 C4.32 4.33 5.64 4.66 7 5 C6.01 6.485 6.01 6.485 5 8 C2.5 5.6875 2.5 5.6875 0 3 C0 2.01 0 1.02 0 0 Z "
            fill="#57DCDB" transform="translate(156,354)" />
      <path
            d="M0 0 C-1.29299694 2.88437779 -2.65941363 4.87219421 -5 7 C-5 6.01 -5 5.02 -5 4 C-5.66 4 -6.32 4 -7 4 C-7 3.34 -7 2.68 -7 2 C-2.25 0 -2.25 0 0 0 Z "
            fill="#072224" transform="translate(265,232)" />
      <path
            d="M0 0 C0.99 0.33 1.98 0.66 3 1 C3 1.66 3 2.32 3 3 C4.65 3.33 6.3 3.66 8 4 C8 4.33 8 4.66 8 5 C3.45194365 5.17835515 0.1205746 4.99785435 -4 3 C-2.1875 1.4375 -2.1875 1.4375 0 0 Z "
            fill="#80EBE5" transform="translate(815,213)" />
      <path
            d="M0 0 C0.66 0.33 1.32 0.66 2 1 C0.52307692 5.67692308 0.52307692 5.67692308 -2.125 7.3125 C-3.053125 7.6528125 -3.053125 7.6528125 -4 8 C-2.25 2.25 -2.25 2.25 0 0 Z "
            fill="#92F3F3" transform="translate(290,194)" />
      <path
            d="M0 0 C5.61 0 11.22 0 17 0 C17 0.33 17 0.66 17 1 C15.22932584 1.16834933 13.45845388 1.33461909 11.6875 1.5 C10.70136719 1.5928125 9.71523437 1.685625 8.69921875 1.78125 C5.78829219 2.01715722 2.91965291 2 0 2 C0 1.34 0 0.68 0 0 Z "
            fill="#9BF3F8" transform="translate(1032,173)" />
      <path
            d="M0 0 C3.65316671 1.24976756 4.78065836 1.67098753 7 5 C6.67 5.99 6.34 6.98 6 8 C4.99403703 7.0479279 3.99538437 6.08812654 3 5.125 C2.443125 4.59132813 1.88625 4.05765625 1.3125 3.5078125 C0 2 0 2 0 0 Z "
            fill="#62E4E7" transform="translate(149,348)" />
      <path
            d="M0 0 C0.598125 0.20625 1.19625 0.4125 1.8125 0.625 C0.1625 2.275 -1.4875 3.925 -3.1875 5.625 C-3.1875 4.965 -3.1875 4.305 -3.1875 3.625 C-3.8475 3.625 -4.5075 3.625 -5.1875 3.625 C-5.1875 2.965 -5.1875 2.305 -5.1875 1.625 C-2.1875 -0.375 -2.1875 -0.375 0 0 Z "
            fill="#56E3DF" transform="translate(204.1875,342.375)" />
      <path
            d="M0 0 C4.95 0 9.9 0 15 0 C14.67 0.99 14.34 1.98 14 3 C9.38 2.34 4.76 1.68 0 1 C0 0.67 0 0.34 0 0 Z "
            fill="#7FF4F3" transform="translate(831,205)" />
      <path
            d="M0 0 C-0.33 0.99 -0.66 1.98 -1 3 C-3.97 3 -6.94 3 -10 3 C-6.84916414 -0.15083586 -4.41812253 0 0 0 Z "
            fill="#90D8DA" transform="translate(552,173)" />
      <path
            d="M0 0 C3.63 0 7.26 0 11 0 C9.68 0.99 8.36 1.98 7 3 C4.375 2.625 4.375 2.625 2 2 C1.01 2.495 1.01 2.495 0 3 C0 2.01 0 1.02 0 0 Z "
            fill="#C5F2F0" transform="translate(962,144)" />
      <path
            d="M0 0 C1.125 1.5625 1.125 1.5625 2 4 C1.125 7.75 1.125 7.75 0 11 C-0.66 11 -1.32 11 -2 11 C-1.40049704 7.31733897 -0.75241109 3.65456815 0 0 Z "
            fill="#A7F5EE" transform="translate(320,138)" />
      <path
            d="M0 0 C1.65 0.99 3.3 1.98 5 3 C4.34 4.32 3.68 5.64 3 7 C1.68 5.68 0.36 4.36 -1 3 C-0.67 2.01 -0.34 1.02 0 0 Z "
            fill="#9BEFE2" transform="translate(292,65)" />
      <path
            d="M0 0 C-1.31224548 3.93673644 -2.91910327 6.22719294 -6 9 C-5.38983051 3.50847458 -5.38983051 3.50847458 -3.5625 1.125 C-2 0 -2 0 0 0 Z "
            fill="#6AE7E3" transform="translate(264,258)" />
      <path
            d="M0 0 C0 0.99 0 1.98 0 3 C-2.64 3 -5.28 3 -8 3 C-5.53387212 -0.1151089 -3.89156016 -0.31553191 0 0 Z "
            fill="#B1F2EA" transform="translate(228,73)" />
      <path
            d="M0 0 C1.32 0.33 2.64 0.66 4 1 C2.71937515 2.7074998 1.38232443 4.37373596 0 6 C-0.66 6 -1.32 6 -2 6 C-1.34 4.02 -0.68 2.04 0 0 Z "
            fill="#5AE3DE" transform="translate(183,367)" />
      <path
            d="M0 0 C2.475 0.495 2.475 0.495 5 1 C5 1.99 5 2.98 5 4 C5.66 4 6.32 4 7 4 C6.67 4.99 6.34 5.98 6 7 C4.02 4.69 2.04 2.38 0 0 Z "
            fill="#5EE7E9" transform="translate(167,366)" />
      <path
            d="M0 0 C-1 3 -1 3 -2.75 4.25 C-5.52724898 5.17574966 -7.21571665 4.77341204 -10 4 C-8.66666667 3.33333333 -7.33333333 2.66666667 -6 2 C-5.29875 1.62875 -4.5975 1.2575 -3.875 0.875 C-2 0 -2 0 0 0 Z "
            fill="#5BCACC" transform="translate(258,218)" />
      <path
            d="M0 0 C2.31 0 4.62 0 7 0 C7 0.66 7 1.32 7 2 C6.360625 2.12375 5.72125 2.2475 5.0625 2.375 C4.381875 2.58125 3.70125 2.7875 3 3 C2.67 3.66 2.34 4.32 2 5 C1.34 4.67 0.68 4.34 0 4 C0 2.68 0 1.36 0 0 Z "
            fill="#7FE5E5" transform="translate(1023,205)" />
      <path
            d="M0 0 C-0.66 1.32 -1.32 2.64 -2 4 C-3.65 4 -5.3 4 -7 4 C-7 3.34 -7 2.68 -7 2 C-4 0 -4 0 0 0 Z "
            fill="#7DDFDE" transform="translate(1041,203)" />
      <path
            d="M0 0 C0.33 2.31 0.66 4.62 1 7 C-0.7074998 5.71937515 -2.37373596 4.38232443 -4 3 C-4 2.34 -4 1.68 -4 1 C-2 0 -2 0 0 0 Z "
            fill="#91E8DD" transform="translate(283,53)" />
      <path
            d="M0 0 C0.33 0.99 0.66 1.98 1 3 C-0.4375 5.6875 -0.4375 5.6875 -2 8 C-2.99 7.67 -3.98 7.34 -5 7 C-3.35 4.69 -1.7 2.38 0 0 Z "
            fill="#66DADE" transform="translate(247,257)" />
      <path
            d="M0 0 C3.84766567 0.76953313 5.2397053 2.2397053 8 5 C5.69 5 3.38 5 1 5 C0.67 3.35 0.34 1.7 0 0 Z "
            fill="#8EF5EE" transform="translate(541,213)" />
      <path d="M0 0 C4.75 1.875 4.75 1.875 7 3 C6.67 4.32 6.34 5.64 6 7 C4.02 4.69 2.04 2.38 0 0 Z "
            fill="#81ECE1" transform="translate(744,199)" />
      <path
            d="M0 0 C1.32 0 2.64 0 4 0 C4 0.99 4 1.98 4 3 C2.02 3.99 2.02 3.99 0 5 C0 4.34 0 3.68 0 3 C-0.66 2.67 -1.32 2.34 -2 2 C-1.34 1.34 -0.68 0.68 0 0 Z "
            fill="#7DE3DD" transform="translate(588,195)" />
      <path
            d="M0 0 C1.98 0.66 3.96 1.32 6 2 C6 3.32 6 4.64 6 6 C3.97945196 4.35830472 1.97956942 2.69088222 0 1 C0 0.67 0 0.34 0 0 Z "
            fill="#80E9E1" transform="translate(733,188)" />
      <path
            d="M0 0 C2.97 0 5.94 0 9 0 C8.34 1.98 7.68 3.96 7 6 C6.6596875 5.0409375 6.6596875 5.0409375 6.3125 4.0625 C5.14749104 1.72806339 5.14749104 1.72806339 2.375 1.25 C1.59125 1.1675 0.8075 1.085 0 1 C0 0.67 0 0.34 0 0 Z "
            fill="#97F2EF" transform="translate(1017,173)" />
      <path
            d="M0 0 C0.99 0.33 1.98 0.66 3 1 C2.34 1.66 1.68 2.32 1 3 C0.53993654 5.20250992 0.53993654 5.20250992 0.375 7.625 C0.30023438 8.44226563 0.22546875 9.25953125 0.1484375 10.1015625 C0.07496094 11.04128906 0.07496094 11.04128906 0 12 C-0.33 12 -0.66 12 -1 12 C-1.02687279 10.18757948 -1.04633715 8.37504767 -1.0625 6.5625 C-1.07410156 5.55316406 -1.08570313 4.54382813 -1.09765625 3.50390625 C-1 1 -1 1 0 0 Z "
            fill="#51E7EC" transform="translate(178,244)" />
</svg>