<?xml version="1.0" encoding="UTF-8"?>
<svg version="1.1" xmlns="http://www.w3.org/2000/svg" width="420" height="490">
    <path
        d="M0 0 C29.10460209 -0.06861499 58.20919621 -0.12162008 87.31386318 -0.15319599 C90.75929108 -0.15694757 94.20471882 -0.16083059 97.65014648 -0.16479492 C98.67891866 -0.16597532 98.67891866 -0.16597532 99.7284741 -0.16717956 C110.79605654 -0.18019089 121.86359165 -0.20382085 132.93114612 -0.23145839 C144.30933197 -0.25963212 155.687483 -0.27597721 167.06570596 -0.28226548 C173.44747466 -0.28615988 179.82913646 -0.29524558 186.21087074 -0.31719017 C192.23136007 -0.33772264 198.25169959 -0.34380027 204.27222061 -0.33932304 C206.46861399 -0.34014081 208.66501297 -0.34600565 210.86137581 -0.35761642 C246.28842554 -0.53553269 281.70464219 8.17859682 309 32 C309.83144531 32.721875 310.66289062 33.44375 311.51953125 34.1875 C314.04720841 36.42397011 316.53177119 38.69816864 319 41 C319.75152344 41.69738281 320.50304687 42.39476562 321.27734375 43.11328125 C339.25269158 60.39362442 351.90002572 83.88920121 358 108 C358.17587646 108.64114746 358.35175293 109.28229492 358.53295898 109.94287109 C360.66478527 118.78140568 360.43888219 127.83760673 360.4375 136.875 C360.43889984 137.74616455 360.44029968 138.6173291 360.44174194 139.51489258 C360.42541521 151.84824981 359.83499512 163.30525534 355.68359375 175.03857422 C355.01383517 176.96030294 354.448874 178.8866734 353.90625 180.84765625 C348.38938085 199.58530827 337.39359504 215.3908373 326 231 C324.86633921 232.56579243 323.73350895 234.13218655 322.6015625 235.69921875 C320.95933656 237.97185772 319.31671409 240.24418627 317.67114258 242.5144043 C310.74688345 252.08047008 304.13088104 261.85032959 297.51171875 271.62890625 C295.86221844 274.06526627 294.21244059 276.50143813 292.5625 278.9375 C292.14836853 279.54909973 291.73423706 280.16069946 291.30755615 280.79083252 C285.97603094 288.66115445 280.59641432 296.49211284 275.08544922 304.23828125 C271.740142 308.94043465 268.45000085 313.67753073 265.1875 318.4375 C260.2508785 325.63864259 255.2624257 332.80025754 250.22265625 339.9296875 C249.19007177 341.3906021 248.15752062 342.85154026 247.125 344.3125 C246.34419067 345.41706543 246.34419067 345.41706543 245.54760742 346.54394531 C242.46561642 350.90869534 239.40800074 355.2885734 236.375 359.6875 C230.624616 368.01422092 224.72970912 376.23511456 218.79296875 384.4296875 C213.16673796 392.19650207 207.58931086 399.98318999 202.15625 407.88671875 C199.90649942 411.13499994 197.61635345 414.35255361 195.3125 417.5625 C191.04386064 423.51412465 186.82654332 429.50083573 182.625 435.5 C182.02985596 436.34892822 181.43471191 437.19785645 180.8215332 438.07250977 C177.82973722 442.34935538 174.87234166 446.64196438 172 451 C167.90227343 449.39017885 165.23514706 446.42394174 162.25 443.3125 C159.10408629 440.05423223 155.93894966 436.91196811 152.48291016 433.98071289 C147.60732409 429.73511632 143.06052281 425.17437053 138.5110817 420.58624649 C136.97490979 419.03713259 135.43547898 417.4913213 133.89523315 415.94625854 C130.63563594 412.67533853 127.3800425 409.4004518 124.125 406.125 C120.32942736 402.30579625 116.53221523 398.48825167 112.73080063 394.67486191 C111.21423759 393.15181846 109.70071408 391.625798 108.18728638 390.09963989 C107.27228363 389.18133392 106.35728088 388.26302795 105.41455078 387.31689453 C104.60817169 386.50527863 103.8017926 385.69366272 102.97097778 384.85745239 C101.13251112 382.94626821 101.13251112 382.94626821 99 382 C99 381.34 99 380.68 99 380 C98.42437317 379.75001755 97.84874634 379.5000351 97.25567627 379.24247742 C94.68271989 377.82523495 92.97480278 376.20813768 90.90917969 374.12036133 C90.11445251 373.3222554 89.31972534 372.52414948 88.50091553 371.70185852 C87.64983215 370.83731552 86.79874878 369.97277252 85.921875 369.08203125 C85.03647034 368.19142502 84.15106567 367.30081879 83.23883057 366.38322449 C80.88422236 364.01381223 78.53375145 361.64045715 76.18560791 359.26464844 C72.89608841 355.93722835 69.60157268 352.61478841 66.30401611 349.29533386 C64.55147181 347.53065247 62.80160649 345.76330509 61.05487061 343.99287415 C56.74082315 339.64392835 52.35395067 335.47195872 47.70684814 331.48075867 C45.63941453 329.68717776 43.69823419 327.79664024 41.78125 325.84375 C41.07613281 325.13089844 40.37101562 324.41804688 39.64453125 323.68359375 C38.21484375 322.22786458 36.78515625 320.77213542 35.35546875 319.31640625 C32.03572557 315.96024906 28.70414196 312.68866686 25.12109375 309.61328125 C20.02028774 305.22339773 15.30843493 300.45423523 10.5625 295.6875 C9.65306641 294.78193359 8.74363281 293.87636719 7.80664062 292.94335938 C6.94361328 292.07904297 6.08058594 291.21472656 5.19140625 290.32421875 C4.40967041 289.54135498 3.62793457 288.75849121 2.82250977 287.9519043 C0.04934539 284.98185082 -0.12479339 283.28099342 -0.12304783 279.31857109 C-0.12503888 278.32530465 -0.12702993 277.33203821 -0.12908131 276.30867279 C-0.12616847 275.20946915 -0.12325563 274.11026552 -0.12025452 272.97775269 C-0.12110894 271.81631497 -0.12196337 270.65487725 -0.12284368 269.45824444 C-0.1242103 266.22470139 -0.12106871 262.99119803 -0.11606562 259.75765967 C-0.11175989 256.27436303 -0.11320763 252.79106834 -0.1139679 249.30776978 C-0.11449305 243.26947462 -0.11134711 237.23119024 -0.10573006 231.1928978 C-0.09761394 222.46246765 -0.09499972 213.73204273 -0.09374207 205.00160922 C-0.09155172 190.83814668 -0.08489211 176.67468989 -0.07543945 162.51123047 C-0.06626488 148.75016305 -0.05918427 134.9890972 -0.05493164 121.22802734 C-0.05466892 120.38024605 -0.05440619 119.53246475 -0.05413551 118.65899311 C-0.0528305 114.40605815 -0.05156679 110.15312318 -0.05032361 105.90018821 C-0.03995154 70.60012137 -0.0223337 35.30006122 0 0 Z M19 19 C18.26672227 51.44904153 17.70205154 83.89565593 17.36590946 116.35111746 C17.3258967 120.20040047 17.28447743 124.04966715 17.2421875 127.89892578 C17.23379357 128.66510107 17.22539963 129.43127637 17.21675134 130.22066909 C17.07827198 142.55593116 16.82643445 154.8863206 16.53111053 167.2187112 C16.22964656 179.91537919 16.05367072 192.60953431 15.98916817 205.30963278 C15.94954499 212.42798814 15.85523884 219.53619106 15.61663818 226.65089417 C13.62132845 261.28843843 13.62132845 261.28843843 28.42960548 291.2099328 C35.24375291 298.31072598 42.79984994 304.56638235 51 310 C51.33 310 51.66 310 52 310 C52 264.79 52 219.58 52 173 C65.55320313 173.03480469 79.10640625 173.06960937 93.0703125 173.10546875 C101.6653663 173.12080044 110.26041017 173.1353669 118.85546875 173.14648438 C132.49271032 173.16426572 146.12989617 173.18513753 159.76708984 173.22631836 C169.70022687 173.25629949 179.63331857 173.27559365 189.56649959 173.28226548 C194.82190813 173.28616301 200.07718703 173.29526887 205.33255386 173.31719017 C210.28848982 173.33769317 215.24424386 173.34380611 220.2002182 173.33932304 C222.01008725 173.34014211 223.81996296 173.34602487 225.62979507 173.35761642 C243.90670599 173.46884221 259.89194704 171.56431465 273.73828125 158.45703125 C283.38416635 147.97816817 286.35694335 135.21856547 286.21484375 121.30859375 C285.31136134 107.39496468 277.19264246 94.44658031 267.0625 85.25 C252.52933703 73.21776374 238.9704677 72.43931449 220.75 72.75 C213.9025 72.8325 207.055 72.915 200 73 C200 95.77 200 118.54 200 142 C193.07 142 186.14 142 179 142 C179 112.63 179 83.26 179 53 C194.0665625 53.12375 194.0665625 53.12375 209.4375 53.25 C214.13891235 53.27368652 214.13891235 53.27368652 218.93530273 53.29785156 C243.66117959 53.53216176 265.20853236 56.11705719 283.421875 74.29296875 C297.60554729 89.18582466 305.71707149 107.26052264 305.47094727 127.94116211 C304.7508771 146.82915639 296.68802776 163.22577659 283 176 C268.36725292 188.72930031 250.40202481 191.29599722 231.73022461 191.31884766 C229.98507223 191.32815682 228.23992427 191.33832695 226.49478149 191.34928894 C221.77853204 191.37649164 217.0623123 191.3917094 212.3460052 191.40471697 C207.4092296 191.42039024 202.47251428 191.44716702 197.53578186 191.4727478 C188.19691376 191.51946145 178.85803423 191.55624139 169.51910931 191.58942068 C158.88303175 191.62769453 148.24701485 191.67709087 137.6109885 191.72740483 C115.74070384 191.83061439 93.87038075 191.91991039 72 192 C71.14988408 209.23763928 70.5200245 226.46855098 70.13476181 243.72250748 C69.95090101 251.73941086 69.70076216 259.74301305 69.28417969 267.75146484 C65.97765676 308.37223676 65.97765676 308.37223676 82.23176956 343.85532761 C88.79669226 350.66789173 96.05819138 356.63262295 103.82281494 362.02337646 C109.95668763 366.28273561 115.41793154 371.28801059 120.68432617 376.57080078 C121.50845505 377.39500519 122.33258392 378.21920959 123.1816864 379.06838989 C124.04340958 379.93527435 124.90513275 380.80215881 125.79296875 381.6953125 C126.70202469 382.60578339 127.61108063 383.51625427 128.54768372 384.45431519 C130.94318302 386.85359459 133.335666 389.255859 135.72747803 391.65881348 C138.15698845 394.09858186 140.58935065 396.53550345 143.02148438 398.97265625 C147.34467438 403.30545215 151.66522406 407.64087005 155.98422241 411.97784424 C157.64755882 413.64644365 159.3135902 415.31224082 160.98168945 416.97607422 C162.23716965 418.23504734 163.47594555 419.51120078 164.6875 420.8125 C165.95218271 422.22363777 165.95218271 422.22363777 168 422 C167.67 377.12 167.34 332.24 167 286 C172.94 284.515 172.94 284.515 179 283 C181.51091049 282.23820063 184.0127232 281.44511651 186.5 280.609375 C187.1625882 280.38809937 187.82517639 280.16682373 188.50784302 279.93884277 C190.67355045 279.21405323 192.8368657 278.48243021 195 277.75 C196.55185272 277.22733756 198.10377518 276.70488215 199.65576172 276.18261719 C202.98990932 275.05951201 206.32285606 273.93291517 209.65527344 272.8046875 C214.29404134 271.23573354 218.93806688 269.68289236 223.58331299 268.13323975 C227.48021426 266.83139901 231.37439684 265.52155391 235.26806641 264.21008301 C237.14145948 263.5805224 239.01578059 262.95371521 240.89111328 262.32995605 C279.25413892 249.55554607 309.59760422 230.81684914 328.1875 193.765625 C334.04037135 181.72507822 337.38344265 170.23337741 339.63989258 157.09521484 C339.93583183 155.37335001 340.2608071 153.65650029 340.59375 151.94140625 C343.74573224 129.11984255 337.83726939 106.43724727 328 86 C327.52691406 85.01128906 327.05382812 84.02257812 326.56640625 83.00390625 C311.78081804 54.14478366 284.30595895 34.14482144 254.0625 24.125 C253.21800293 23.83850586 252.37350586 23.55201172 251.50341797 23.25683594 C236.47260184 18.55316122 220.65464963 18.71165286 205.06811523 18.77294922 C203.02622483 18.77351481 200.98433402 18.7731939 198.94244385 18.77206421 C193.45391962 18.77149545 187.9654846 18.78317175 182.47698092 18.79721212 C176.72082912 18.80979976 170.96467479 18.81089627 165.20851135 18.81326294 C154.33281444 18.81945427 143.45715821 18.83583301 132.58147913 18.85596192 C120.18954886 18.87839437 107.79761655 18.88933275 95.405671 18.89935279 C69.93709153 18.92020156 44.46854806 18.95533143 19 19 Z "
        fill="#FCFCFC" transform="translate(29,25)" />
    <path
        d="M0 0 C14.19 0 28.38 0 43 0 C43 14.19 43 28.38 43 43 C28.81 43 14.62 43 0 43 C0 28.81 0 14.62 0 0 Z M4 4 C4 15.55 4 27.1 4 39 C15.55 39 27.1 39 39 39 C39 27.45 39 15.9 39 4 C27.45 4 15.9 4 4 4 Z "
        fill="#F5FAF0" transform="translate(81,68)" />
    <path
        d="M0 0 C5.96313166 -0.02464574 11.92623395 -0.042834 17.8894043 -0.05493164 C19.91968298 -0.05997278 21.94995802 -0.06680557 23.98022461 -0.07543945 C26.89177347 -0.08751467 29.8032745 -0.09323034 32.71484375 -0.09765625 C33.6283812 -0.10281754 34.54191864 -0.10797882 35.48313904 -0.11329651 C37.65575427 -0.11349168 39.82827296 -0.06211805 42 0 C43.89623202 1.89623202 43.12897626 4.66370359 43.13894653 7.1862793 C43.1369223 8.05293213 43.13489807 8.91958496 43.1328125 9.8125 C43.13376923 10.69655518 43.13472595 11.58061035 43.13571167 12.49145508 C43.13639351 14.36442129 43.13453893 16.23738986 43.13037109 18.11035156 C43.12502289 20.98768388 43.13031593 23.86486008 43.13671875 26.7421875 C43.13605797 28.55729201 43.13477681 30.37239643 43.1328125 32.1875 C43.13483673 33.05415283 43.13686096 33.92080566 43.13894653 34.8137207 C43.11495009 40.88504991 43.11495009 40.88504991 42 42 C38.98191937 42.101137 35.98719487 42.13968909 32.96875 42.1328125 C32.06249878 42.13376923 31.15624756 42.13472595 30.22253418 42.13571167 C28.30248953 42.13639353 26.38244259 42.13453882 24.46240234 42.13037109 C21.51264296 42.12502292 18.56303586 42.13031588 15.61328125 42.13671875 C13.75260383 42.13605797 11.8919265 42.13477681 10.03125 42.1328125 C8.69846008 42.13584885 8.69846008 42.13584885 7.33874512 42.13894653 C1.11494988 42.11494988 1.11494988 42.11494988 0 41 C-0.08871273 37.97022196 -0.1151935 34.96332978 -0.09765625 31.93359375 C-0.0962413 31.02497086 -0.09482635 30.11634796 -0.09336853 29.18019104 C-0.08775193 26.26592779 -0.07519665 23.35174019 -0.0625 20.4375 C-0.05748714 18.46679798 -0.05292386 16.49609476 -0.04882812 14.52539062 C-0.03777711 9.68356441 -0.02050138 4.84179505 0 0 Z M4 4 C4 15.22 4 26.44 4 38 C15.55 38 27.1 38 39 38 C39 26.78 39 15.56 39 4 C27.45 4 15.9 4 4 4 Z "
        fill="#E9F1E5" transform="translate(81,126)" />
    <path
        d="M0 0 C5.96313166 -0.02464574 11.92623395 -0.042834 17.8894043 -0.05493164 C19.91968298 -0.05997278 21.94995802 -0.06680557 23.98022461 -0.07543945 C26.89177347 -0.08751467 29.8032745 -0.09323034 32.71484375 -0.09765625 C33.6283812 -0.10281754 34.54191864 -0.10797882 35.48313904 -0.11329651 C37.65575427 -0.11349168 39.82827296 -0.06211805 42 0 C43.89623202 1.89623202 43.12897626 4.66370359 43.13894653 7.1862793 C43.1369223 8.05293213 43.13489807 8.91958496 43.1328125 9.8125 C43.13376923 10.69655518 43.13472595 11.58061035 43.13571167 12.49145508 C43.13639351 14.36442129 43.13453893 16.23738986 43.13037109 18.11035156 C43.12502289 20.98768388 43.13031593 23.86486008 43.13671875 26.7421875 C43.13605797 28.55729201 43.13477681 30.37239643 43.1328125 32.1875 C43.13483673 33.05415283 43.13686096 33.92080566 43.13894653 34.8137207 C43.11495009 40.88504991 43.11495009 40.88504991 42 42 C38.98191937 42.101137 35.98719487 42.13968909 32.96875 42.1328125 C32.06249878 42.13376923 31.15624756 42.13472595 30.22253418 42.13571167 C28.30248953 42.13639353 26.38244259 42.13453882 24.46240234 42.13037109 C21.51264296 42.12502292 18.56303586 42.13031588 15.61328125 42.13671875 C13.75260383 42.13605797 11.8919265 42.13477681 10.03125 42.1328125 C8.69846008 42.13584885 8.69846008 42.13584885 7.33874512 42.13894653 C1.11494988 42.11494988 1.11494988 42.11494988 0 41 C-0.08871273 37.97022196 -0.1151935 34.96332978 -0.09765625 31.93359375 C-0.0962413 31.02497086 -0.09482635 30.11634796 -0.09336853 29.18019104 C-0.08775193 26.26592779 -0.07519665 23.35174019 -0.0625 20.4375 C-0.05748714 18.46679798 -0.05292386 16.49609476 -0.04882812 14.52539062 C-0.03777711 9.68356441 -0.02050138 4.84179505 0 0 Z M3 4 C3 15.22 3 26.44 3 38 C14.88 38 26.76 38 39 38 C39 26.78 39 15.56 39 4 C27.12 4 15.24 4 3 4 Z "
        fill="#F5FDE5" transform="translate(140,126)" />
    <path
        d="M0 0 C0 13.86 0 27.72 0 42 C-14.19 42 -28.38 42 -43 42 C-43 28.14 -43 14.28 -43 0 C-36.461875 -0.185625 -29.92375 -0.37125 -23.1875 -0.5625 C-20.09604614 -0.65446655 -20.09604614 -0.65446655 -16.94213867 -0.74829102 C-15.30909348 -0.79225671 -13.67603745 -0.83582246 -12.04296875 -0.87890625 C-10.77048279 -0.9189679 -10.77048279 -0.9189679 -9.47229004 -0.95983887 C-8.2546698 -0.99047424 -8.2546698 -0.99047424 -7.01245117 -1.02172852 C-5.95655037 -1.05170677 -5.95655037 -1.05170677 -4.87931824 -1.08229065 C-3 -1 -3 -1 0 0 Z M-40 3 C-40 14.55 -40 26.1 -40 38 C-28.12 38 -16.24 38 -4 38 C-3.9690625 29.6159375 -3.9690625 29.6159375 -3.9375 21.0625 C-3.928396 19.29656494 -3.91929199 17.53062988 -3.90991211 15.71118164 C-3.90699286 14.31917395 -3.90444433 12.92716541 -3.90234375 11.53515625 C-3.89722778 10.80615112 -3.89211182 10.077146 -3.88684082 9.3260498 C-3.88652989 7.55029924 -3.93771485 5.77465792 -4 4 C-5.15668501 2.61578935 -5.15668501 2.61578935 -8.32641602 2.88647461 C-9.80225555 2.88672565 -11.27810097 2.89228486 -12.75390625 2.90234375 C-13.44093628 2.90335083 -14.12796631 2.90435791 -14.83581543 2.90539551 C-17.41139384 2.91064224 -19.98694853 2.92460341 -22.5625 2.9375 C-28.316875 2.958125 -34.07125 2.97875 -40 3 Z "
        fill="#FBFDF5" transform="translate(183,69)" />
    <path
        d="M0 0 C14.19 0 28.38 0 43 0 C43 14.19 43 28.38 43 43 C28.81 43 14.62 43 0 43 C0 42.67 0 42.34 0 42 C12.87 42 25.74 42 39 42 C39 29.46 39 16.92 39 4 C38.01 3.67 37.02 3.34 36 3 C36 2.67 36 2.34 36 2 C24.12 1.67 12.24 1.34 0 1 C0 0.67 0 0.34 0 0 Z "
        fill="#EAF0E3" transform="translate(81,68)" />
    <path
        d="M0 0 C0.33 0 0.66 0 1 0 C1 13.86 1 27.72 1 42 C-13.19 42 -27.38 42 -42 42 C-41.67 40.68 -41.34 39.36 -41 38 C-28.46 38 -15.92 38 -3 38 C-3.66 38.66 -4.32 39.32 -5 40 C-3.35 40.33 -1.7 40.66 0 41 C0 27.47 0 13.94 0 0 Z "
        fill="#ECF5E2" transform="translate(182,69)" />
    <path
        d="M0 0 C4.95 0 9.9 0 15 0 C15 0.33 15 0.66 15 1 C10.71 1 6.42 1 2 1 C2.33 1.66 2.66 2.32 3 3 C3.08675538 5.69893181 3.11557897 8.37169231 3.09765625 11.0703125 C3.0962413 11.86654022 3.09482635 12.66276794 3.09336853 13.48312378 C3.08776345 16.0304538 3.07521014 18.57769647 3.0625 21.125 C3.05748565 22.85025915 3.05292263 24.57551967 3.04882812 26.30078125 C3.03864253 30.53391504 3.0190682 34.76685954 3 39 C12.9 39 22.8 39 33 39 C33 39.66 33 40.32 33 41 C22.11 41 11.22 41 0 41 C0 27.47 0 13.94 0 0 Z "
        fill="#FCFDF8" transform="translate(140,126)" />
    <path
        d="M0 0 C0.99 0 1.98 0 3 0 C3.33 11.88 3.66 23.76 4 36 C13.9 36.33 23.8 36.66 34 37 C34 37.66 34 38.32 34 39 C22.78 39 11.56 39 0 39 C0 26.13 0 13.26 0 0 Z "
        fill="#F9FAF9" transform="translate(81,128)" />
    <path
        d="M0 0 C12.54 0 25.08 0 38 0 C38 1.32 38 2.64 38 4 C26.78 4 15.56 4 4 4 C4 15.22 4 26.44 4 38 C3.67 38 3.34 38 3 38 C3 26.12 3 14.24 3 2 C2.01 2 1.02 2 0 2 C0 1.34 0 0.68 0 0 Z "
        fill="#EFFAE3" transform="translate(81,126)" />
    <path
        d="M0 0 C0.33 0 0.66 0 1 0 C1.02464705 5.67830078 1.04283462 11.35657069 1.05493164 17.03491211 C1.05997256 18.96818585 1.06680519 20.90145576 1.07543945 22.8347168 C1.08751565 25.60726872 1.09323057 28.37977041 1.09765625 31.15234375 C1.10281754 32.02213364 1.10797882 32.89192352 1.11329651 33.78807068 C1.11349185 35.85905814 1.06208168 37.92994324 1 40 C0 41 0 41 -3.87719727 41.11352539 C-5.60694167 41.11336621 -7.33669081 41.10766849 -9.06640625 41.09765625 C-9.97502914 41.0962413 -10.88365204 41.09482635 -11.81980896 41.09336853 C-14.73407221 41.08775193 -17.64825981 41.07519665 -20.5625 41.0625 C-22.53320202 41.05748714 -24.50390524 41.05292386 -26.47460938 41.04882812 C-31.31643559 41.03777711 -36.15820495 41.02050138 -41 41 C-41 40.67 -41 40.34 -41 40 C-30.44 40 -19.88 40 -9 40 C-9 39.34 -9 38.68 -9 38 C-18.9 38 -28.8 38 -39 38 C-39 37.67 -39 37.34 -39 37 C-26.79 37 -14.58 37 -2 37 C-2 33.37 -2 29.74 -2 26 C-1.505 25.505 -1.505 25.505 -1 25 C-0.84213692 23.14825294 -0.74892644 21.2909089 -0.68359375 19.43359375 C-0.62075195 17.7465332 -0.62075195 17.7465332 -0.55664062 16.02539062 C-0.51732422 14.84138672 -0.47800781 13.65738281 -0.4375 12.4375 C-0.37272461 10.65569336 -0.37272461 10.65569336 -0.30664062 8.83789062 C-0.20016454 5.89205216 -0.09815159 2.9461257 0 0 Z "
        fill="#DEEAD4" transform="translate(182,127)" />
</svg>
