<svg version="1.1" xmlns="http://www.w3.org/2000/svg" width="511" height="499">
<path d="M0 0 C1.36171829 -0.00043808 1.36171829 -0.00043808 2.75094604 -0.00088501 C5.74316051 0.0005052 8.7351241 0.01605195 11.72729492 0.03173828 C13.80523035 0.03546951 15.88316753 0.03831596 17.96110535 0.04031372 C23.42407101 0.04794153 28.88692995 0.06758278 34.34985352 0.08972168 C39.92682451 0.11019842 45.50381278 0.11931935 51.08081055 0.12939453 C62.01900842 0.15082941 72.95712716 0.18495514 83.89526367 0.22705078 C82.78769663 1.98000117 81.67849147 3.73191662 80.56860352 5.48339844 C79.95109222 6.45910797 79.33358093 7.4348175 78.69735718 8.44009399 C76.43757639 11.93486903 74.0212818 15.27810194 71.52026367 18.60205078 C67.36816041 24.19559081 63.34076767 29.8560271 59.39526367 35.59814453 C53.95417959 43.51510145 48.41390099 51.36407651 42.89526367 59.22705078 C42.3699707 59.97567383 41.84467773 60.72429687 41.3034668 61.49560547 C35.74714954 69.40817309 30.14067431 77.27988111 24.45776367 85.10205078 C19.99932792 91.24212472 15.6577196 97.44945243 11.39526367 103.72705078 C6.61128866 110.77272449 1.70325739 117.71277781 -3.30224609 124.60253906 C-10.14816166 134.02635845 -16.84569244 143.55374832 -23.51098633 153.10595703 C-29.72288989 162.00637591 -35.98160424 170.86587101 -42.3527832 179.65307617 C-49.16342562 189.05287988 -55.84846355 198.54100697 -62.47583008 208.07080078 C-68.82853802 217.19713843 -75.28281843 226.22415842 -81.92016602 235.14575195 C-85.99284382 240.64728941 -89.89578751 246.24455372 -93.72973633 251.91455078 C-98.19921181 258.52374047 -102.83148158 264.96209485 -107.65820312 271.31420898 C-111.74061041 276.69949794 -115.65161053 282.19163383 -119.53027344 287.72485352 C-123.75604087 293.74958068 -128.05091086 299.72185737 -132.37207031 305.6784668 C-134.92738473 309.20307835 -137.47056901 312.73419465 -139.97192383 316.29736328 C-140.41842285 316.93134033 -140.86492187 317.56531738 -141.32495117 318.21850586 C-142.51564633 319.91278193 -143.70103349 321.6107849 -144.88598633 323.30908203 C-149.25793396 329.05880894 -154.90603572 335.15035127 -162.28585815 336.67878151 C-164.66035 336.83761214 -166.98723713 336.84669922 -169.36645508 336.79467773 C-170.69956978 336.79577293 -170.69956978 336.79577293 -172.05961609 336.79689026 C-174.97112986 336.7934316 -177.88100517 336.75465296 -180.79223633 336.71533203 C-182.82103603 336.70599776 -184.84984707 336.69888455 -186.87866211 336.69389343 C-192.19882742 336.67487205 -197.51830198 336.62581303 -202.8381958 336.57037354 C-208.27460386 336.51907613 -213.71112436 336.49635701 -219.14770508 336.47119141 C-229.80035105 336.41768968 -240.45248608 336.33243579 -251.10473633 336.22705078 C-249.49486004 331.97221735 -247.36191267 328.55316908 -244.66723633 324.91455078 C-243.75704525 323.66422082 -242.84824133 322.41288015 -241.94067383 321.16064453 C-241.2363623 320.18973877 -241.2363623 320.18973877 -240.51782227 319.19921875 C-238.22212171 315.99523307 -236.01001997 312.73521626 -233.79223633 309.47705078 C-229.82040442 303.65920605 -225.74636412 297.92514476 -221.60473633 292.22705078 C-217.03804097 285.94281083 -212.57242593 279.60218155 -208.19189453 273.18701172 C-204.93411153 268.41998329 -201.62835112 263.68956623 -198.29223633 258.97705078 C-193.92084806 252.80149593 -189.56665812 246.61436804 -185.22973633 240.41455078 C-184.35442261 239.16339478 -184.35442261 239.16339478 -183.46142578 237.88696289 C-181.67559308 235.33384723 -179.89010173 232.78049323 -178.10473633 230.22705078 C-170.97071753 220.02392575 -163.83036718 209.8257672 -156.64331055 199.65991211 C-152.78100148 194.19352463 -148.94025008 188.71226475 -145.10473633 183.22705078 C-139.28237573 174.90131408 -133.43336587 166.59487623 -127.56811523 158.29931641 C-126.09216792 156.20925288 -124.6194931 154.11691989 -123.14770508 152.02392578 C-118.03796019 144.76226797 -112.88714045 137.53498909 -107.66723633 130.35205078 C-102.59107764 123.36312563 -97.6891744 116.26939984 -92.83935547 109.12207031 C-89.10074118 103.63124511 -85.23112785 98.25977288 -81.26831055 92.92944336 C-77.5849567 87.9475309 -74.08268911 82.85393175 -70.60473633 77.72705078 C-66.30244003 71.38738867 -61.90112374 65.14927494 -57.33691406 58.99609375 C-51.68184381 51.34816819 -46.28225905 43.52057819 -40.84350586 35.71826172 C-38.10704328 31.79761244 -35.35838043 27.88564592 -32.60473633 23.97705078 C-32.13688721 23.3107666 -31.66903809 22.64448242 -31.18701172 21.95800781 C-28.81890036 18.5989786 -26.42100063 15.26278245 -23.98364258 11.95361328 C-23.28476929 11.00349365 -23.28476929 11.00349365 -22.57177734 10.03417969 C-16.15872725 2.13446313 -9.9267216 -0.08381289 0 0 Z " fill="#FCFDFC" transform="translate(326.104736328125,76.77294921875)"/>
<path d="M0 0 C0.69682388 -0.00832352 1.39364777 -0.01664703 2.11158752 -0.02522278 C4.40094702 -0.04919315 6.69002075 -0.05807962 8.97949219 -0.06469727 C10.58363931 -0.07367479 12.18778563 -0.08279683 13.79193115 -0.09205627 C17.15085884 -0.10851458 20.50968724 -0.11624037 23.86865234 -0.11914062 C28.15013039 -0.12451542 32.43066096 -0.16217073 36.7118721 -0.20788479 C40.02526157 -0.2377892 43.33842677 -0.24486709 46.65193939 -0.24586678 C48.22905559 -0.25004405 49.80617401 -0.26237707 51.38315582 -0.28338432 C60.35086764 -0.39332144 68.2336986 -0.23544879 75.77636719 5.30639648 C81.65654466 11.05164383 84.67973234 18.95401268 88.04019165 26.32965088 C89.75477365 30.09244607 91.49953978 33.8412391 93.24121094 37.59155273 C93.60458054 38.37592712 93.96795013 39.16030151 94.34233093 39.96844482 C99.00096448 49.99450346 103.8839727 59.91261189 108.77038574 69.82919312 C109.88598846 72.09360453 110.99735788 74.36005659 112.10839844 76.62670898 C112.43586563 77.28686508 112.76333282 77.94702118 113.10072327 78.62718201 C115.3103905 83.14281121 116.99249995 87.54941717 118.77636719 92.30639648 C53.10636719 92.30639648 -12.56363281 92.30639648 -80.22363281 92.30639648 C-77.50243451 87.54429945 -74.91294495 83.32201619 -71.72363281 78.93139648 C-70.8325224 77.69737186 -69.94191928 76.4629808 -69.05175781 75.22827148 C-68.58833984 74.58696289 -68.12492188 73.9456543 -67.64746094 73.28491211 C-65.23472516 69.93223537 -62.85392238 66.55715152 -60.47363281 63.18139648 C-59.97669922 62.47708496 -59.47976562 61.77277344 -58.96777344 61.04711914 C-55.04032987 55.47577414 -51.13065635 49.89207255 -47.22363281 44.30639648 C-45.46328647 41.79109648 -43.70271621 39.2759536 -41.94189453 36.76098633 C-40.81027292 35.14442997 -39.67907709 33.52757546 -38.54833984 31.91040039 C-35.13048125 27.02526379 -31.69145259 22.15619058 -28.22363281 17.30639648 C-27.5571875 16.36795898 -26.89074219 15.42952148 -26.20410156 14.46264648 C-19.27188533 5.0736403 -11.93648554 0.10132978 0 0 Z " fill="#FBFCFC" transform="translate(301.2236328125,320.693603515625)"/>
<path d="M0 0 C18.80200233 -0.0700963 37.60397813 -0.12299122 56.40608406 -0.15543652 C65.13632705 -0.17090218 73.86648883 -0.19198594 82.59667969 -0.22631836 C90.20635052 -0.25622994 97.81596254 -0.27557719 105.42569053 -0.28226548 C109.45460471 -0.28617477 113.48335062 -0.29535581 117.51221085 -0.31719017 C121.30591799 -0.33758315 125.09938786 -0.34382816 128.89314461 -0.33932304 C130.283887 -0.34014699 131.67463749 -0.34609604 133.06533241 -0.35761642 C134.96806693 -0.37260266 136.87092935 -0.3671521 138.77371216 -0.36076355 C140.36933581 -0.36491162 140.36933581 -0.36491162 141.99719429 -0.36914349 C146.36030941 0.16722672 149.68372633 1.81110766 152.9375 4.75 C154.55603204 8.17747962 153.85258605 10.33276306 153 14 C151.5025403 16.79793322 149.65581702 19.28027675 147.75 21.8125 C147.2149585 22.54605713 146.67991699 23.27961426 146.12866211 24.03540039 C144.99781871 25.58445364 143.8615524 27.12956091 142.72021484 28.67089844 C140.50941271 31.66423542 138.3382461 34.68512626 136.16674805 37.70703125 C134.55617318 39.94629651 132.9391897 42.18079361 131.3203125 44.4140625 C129.01740605 47.59204597 126.72121053 50.77473609 124.4296875 53.9609375 C123.84501709 54.77312744 123.26034668 55.58531738 122.65795898 56.42211914 C121.54193646 57.97270471 120.42681015 59.52393585 119.31274414 61.07592773 C113.86109297 68.64270513 109.22283845 74.93687258 100 78 C96.9022522 78.26069641 96.9022522 78.26069641 93.39306641 78.2746582 C92.07464752 78.28419022 90.75622864 78.29372223 89.39785767 78.30354309 C87.96575901 78.30328162 86.53366033 78.30234436 85.1015625 78.30078125 C83.62332032 78.30467166 82.14507924 78.30900705 80.6668396 78.31376648 C77.57180149 78.32121698 74.47687747 78.32094624 71.38183594 78.31567383 C67.42870981 78.30988505 63.47605311 78.32680116 59.52300453 78.3500185 C56.47052307 78.36480007 53.41815346 78.36562148 50.36564255 78.36250877 C48.90888923 78.36301991 47.4521293 78.36821846 45.99541092 78.37832069 C30.92045143 78.47002917 30.92045143 78.47002917 24.07519531 73.64257812 C17.3085626 66.35950964 14.32686586 56.60006533 10.75 47.5 C10.03792329 45.72467213 9.32439256 43.94992673 8.609375 42.17578125 C6.71542091 37.4600063 4.82831452 32.74167209 3 28 C2.47384094 26.80661011 1.94768188 25.61322021 1.40557861 24.38366699 C-0.44697645 19.43271122 -0.3356228 14.72607606 -0.1875 9.5 C-0.17396484 8.5821875 -0.16042969 7.664375 -0.14648438 6.71875 C-0.11148097 4.47853197 -0.06238869 2.23959406 0 0 Z " fill="#FCFDFC" transform="translate(102,77)"/>
<path d="M0 0 C0.33 0.66 0.66 1.32 1 2 C4.04581269 2.46954261 4.04581269 2.46954261 7.5625 2.625 C8.76003906 2.69976562 9.95757812 2.77453125 11.19140625 2.8515625 C12.11824219 2.90054687 13.04507813 2.94953125 14 3 C14 3.33 14 3.66 14 4 C6.08 4.495 6.08 4.495 -2 5 C-1.34 3.35 -0.68 1.7 0 0 Z " fill="#ECF7F0" transform="translate(77,408)"/>
<path d="M0 0 C0.66 0.33 1.32 0.66 2 1 C-0.97 4.96 -0.97 4.96 -4 9 C-4.66 8.67 -5.32 8.34 -6 8 C-4.02 5.36 -2.04 2.72 0 0 Z " fill="#22A550" transform="translate(321,203)"/>
<path d="M0 0 C0.33 1.32 0.66 2.64 1 4 C-0.9375 6.25 -0.9375 6.25 -3 8 C-3.66 7.67 -4.32 7.34 -5 7 C-3.35 4.69 -1.7 2.38 0 0 Z " fill="#28A755" transform="translate(298,235)"/>
</svg>
